<svg width="24" height="24" viewBox="0 0 24 24" fill="none" xmlns="http://www.w3.org/2000/svg">
<path d="M10.01 21.01C10.01 22.11 10.9 23 12 23C13.1 23 13.99 22.11 13.99 21.01H10.01ZM18.88 16.82V11C18.88 7.75 16.63 5.03 13.59 4.31V3.59C13.59 2.71 12.88 2 12 2C11.12 2 10.41 2.71 10.41 3.59V4.31C7.36999 5.03 5.11999 7.75 5.11999 11V16.82C5.11999 16.82 3.22962 17.7919 2.99999 18.94C2.91881 19.3459 2.99999 20 2.99999 20H21C21 20 21.0812 19.3459 21 18.94C20.7704 17.7919 18.88 16.82 18.88 16.82ZM16 12.005C16 12.5573 15.5523 13.01 15 13.01H13V15.01C13 15.5623 12.5523 16.01 12 16.01C11.4477 16.01 11 15.5623 11 15.01V13.01H8.99999C8.44771 13.01 7.99999 12.5573 7.99999 12.005C7.99999 11.4527 8.44771 11 8.99999 11H11V9C11 8.44772 11.4477 8 12 8C12.5523 8 13 8.44772 13 9V11H15C15.5523 11 16 11.4527 16 12.005Z" fill="black"/>
</svg>
