<svg width="24" height="24" viewBox="0 0 24 24" fill="none" xmlns="http://www.w3.org/2000/svg">
<path d="M17.3049 8.66667L19.6249 8.67584C20.9363 8.67584 22 7.6121 22 6.30078V4.37506C22 3.06373 20.9363 2 19.6249 2H17.6992C16.3879 2 15.3242 3.06373 15.3242 4.37506V6.68592C15.3242 7.77717 14.4347 8.6575 13.3526 8.6575H10.2439C9.37277 8.6575 8.6575 9.3636 8.6575 10.2439V13.3526C8.6575 14.4438 7.768 15.3242 6.68592 15.3242H2.78863C2.34846 15.3242 2 15.6818 2 16.1128V21.2022C2 21.6424 2.35763 21.9908 2.78863 21.9908H7.87804C8.3182 21.9908 8.66667 21.6332 8.66667 21.2022V17.3049C8.66667 16.2137 9.55617 15.3333 10.6382 15.3333H13.3526C14.4438 15.3333 15.3242 16.2228 15.3242 17.3049V22H21.9908V15.3333H17.2957C16.2045 15.3333 15.3242 14.4438 15.3242 13.3618V10.6474C15.3333 9.55617 16.2228 8.66667 17.3049 8.66667Z" fill="#151A16"/>
<path d="M5.33792 8.67584C7.1814 8.67584 8.67584 7.1814 8.67584 5.33792C8.67584 3.49444 7.1814 2 5.33792 2C3.49444 2 2 3.49444 2 5.33792C2 7.1814 3.49444 8.67584 5.33792 8.67584Z" fill="#151A16"/>
</svg>
