<svg width="93" height="20" viewBox="0 0 93 20" fill="none" xmlns="http://www.w3.org/2000/svg">
    <path
        d="M15.3049 6.66667L17.6249 6.67584C18.9363 6.67584 20 5.6121 20 4.30078V2.37506C20 1.06373 18.9363 0 17.6249 0H15.6992C14.3879 0 13.3242 1.06373 13.3242 2.37506V4.68592C13.3242 5.77717 12.4347 6.6575 11.3526 6.6575H8.24393C7.37276 6.6575 6.6575 7.3636 6.6575 8.24393V11.3526C6.6575 12.4438 5.768 13.3242 4.68592 13.3242H0.788629C0.348464 13.3242 0 13.6818 0 14.1128V19.2022C0 19.6424 0.357634 19.9908 0.788629 19.9908H5.87804C6.3182 19.9908 6.66667 19.6332 6.66667 19.2022V15.3049C6.66667 14.2137 7.55617 13.3333 8.63824 13.3333H11.3526C12.4438 13.3333 13.3242 14.2228 13.3242 15.3049V20H19.9908V13.3333H15.2957C14.2045 13.3333 13.3242 12.4438 13.3242 11.3618V8.64741C13.3333 7.55617 14.2228 6.66667 15.3049 6.66667Z"
        fill="#151A16" />
    <path
        d="M3.33792 6.67584C5.1814 6.67584 6.67584 5.1814 6.67584 3.33792C6.67584 1.49444 5.1814 0 3.33792 0C1.49444 0 0 1.49444 0 3.33792C0 5.1814 1.49444 6.67584 3.33792 6.67584Z"
        fill="#151A16" />
    <path d="M46.4374 2.22832H48.2623V17.7716H46.4374V2.22832Z" fill="#151A16" />
    <path d="M91.4534 6.66668H89.6286V17.7717H91.4534V6.66668Z" fill="#151A16" />
    <path fill-rule="evenodd" clip-rule="evenodd"
        d="M50.1971 12.2146C50.1971 9.04172 52.7739 6.46492 55.9468 6.46492C59.1197 6.46492 61.6965 9.04172 61.6965 12.2146C61.6965 15.3874 59.1197 17.9642 55.9468 17.9642C52.7739 17.9642 50.1971 15.3874 50.1971 12.2146ZM51.7744 12.2238C51.7744 14.5254 53.6451 16.3961 55.9468 16.3961C58.2485 16.3961 60.1192 14.5254 60.1192 12.2238C60.1192 9.92205 58.2485 8.05135 55.9468 8.05135C53.6451 8.05135 51.7744 9.92205 51.7744 12.2238Z"
        fill="#151A16" />
    <path
        d="M90.7217 4.50385C91.3466 4.40243 91.771 3.81364 91.6696 3.18874C91.5681 2.56384 90.9793 2.13948 90.3545 2.24089C89.7296 2.34231 89.3052 2.9311 89.4066 3.556C89.508 4.1809 90.0968 4.60526 90.7217 4.50385Z"
        fill="#151A16" />
    <path fill-rule="evenodd" clip-rule="evenodd"
        d="M41.4489 8.38144C41.4489 7.43692 42.2192 6.66663 43.1637 6.66663V17.7716H41.3388V16.176C40.2934 17.2856 38.8079 17.9734 37.1664 17.9734C33.9111 17.9734 31.2884 15.2682 31.4168 11.9853C31.536 9.01417 33.9569 6.59327 36.9372 6.47405C38.7254 6.40069 40.3485 7.15264 41.4489 8.38144ZM37.1664 16.3961C39.459 16.3961 41.3297 14.5254 41.3388 12.2329V12.2145C41.3297 9.91284 39.4681 8.05131 37.1664 8.05131C34.8647 8.05131 32.994 9.92202 32.994 12.2237C32.994 14.5254 34.8647 16.3961 37.1664 16.3961Z"
        fill="#151A16" />
    <path fill-rule="evenodd" clip-rule="evenodd"
        d="M86.5291 6.66663C85.5846 6.66663 84.8143 7.43692 84.8143 8.38144C83.7139 7.15264 82.0908 6.40069 80.3026 6.47405C77.3223 6.59327 74.9014 9.01417 74.7822 11.9853C74.6538 15.2682 77.2765 17.9734 80.5319 17.9734C82.1733 17.9734 83.6589 17.2856 84.7043 16.176V17.7716H86.5291V6.66663ZM84.7134 12.2329C84.7043 14.5254 82.8336 16.3961 80.541 16.3961C78.2393 16.3961 76.3686 14.5254 76.3686 12.2237C76.3686 9.92202 78.2393 8.05131 80.541 8.05131C82.8427 8.05131 84.7043 9.91284 84.7134 12.2145V12.2329Z"
        fill="#151A16" />
    <path
        d="M73.37 6.66665L69.1885 10.9307C69.1151 11.0041 69.1059 11.1233 69.1701 11.2242L74.1678 17.7808H72.077L67.8863 12.2696V12.2604L67.8771 12.2696H66.0064C65.8872 12.2696 65.7955 12.3613 65.7955 12.4805V17.7716H63.9707V2.22832H65.7955V10.4264C65.7955 10.5456 65.8872 10.6373 66.0064 10.6373H67.3819L71.2792 6.66665H73.37Z"
        fill="#151A16" />
</svg>
