<svg width="25" height="24" viewBox="0 0 25 24" fill="none" xmlns="http://www.w3.org/2000/svg">
<path d="M12.5011 21.0016L8.72609 17.2266C8.32568 16.8262 8.32568 16.177 8.72609 15.7766C9.12649 15.3762 9.77568 15.3762 10.1761 15.7766L12.5011 18.1016L14.8261 15.7766C15.2265 15.3762 15.8757 15.3762 16.2761 15.7766C16.6765 16.177 16.6765 16.8262 16.2761 17.2266L12.5011 21.0016ZM10.1761 8.32656C9.77568 8.72697 9.12649 8.72697 8.72609 8.32656C8.32568 7.92616 8.32568 7.27697 8.72609 6.87656L12.5011 3.10156L16.2761 6.87656C16.6765 7.27697 16.6765 7.92616 16.2761 8.32656C15.8757 8.72697 15.2265 8.72697 14.8261 8.32656L12.5011 6.00156L10.1761 8.32656Z" fill="#646F68"/>
</svg>
