<svg width="24" height="24" viewBox="0 0 24 24" fill="none" xmlns="http://www.w3.org/2000/svg">
<path d="M12.025 11.721C11.9083 11.7043 11.7958 11.6752 11.6875 11.6335C11.5792 11.5918 11.4833 11.5293 11.4 11.446L7.625 7.671L4.575 9.896C4.24167 10.1293 3.89583 10.1543 3.5375 9.971C3.17917 9.78767 3 9.48767 3 9.071C3 8.90433 3.03333 8.75433 3.1 8.621C3.16667 8.48767 3.26667 8.371 3.4 8.271L7.125 5.546C7.225 5.46267 7.33333 5.4085 7.45 5.3835C7.56667 5.3585 7.68333 5.35433 7.8 5.371C7.91667 5.38767 8.02917 5.41683 8.1375 5.4585C8.24583 5.50017 8.34167 5.56267 8.425 5.646L12.2 9.421L19.425 4.196C19.7583 3.96267 20.1042 3.93767 20.4625 4.121C20.8208 4.30433 21 4.60433 21 5.021C21 5.18767 20.9625 5.33767 20.8875 5.471C20.8125 5.60433 20.7083 5.721 20.575 5.821L12.7 11.546C12.6 11.6293 12.4917 11.6835 12.375 11.7085C12.2583 11.7335 12.1417 11.7377 12.025 11.721ZM12.025 20.721C11.9083 20.721 11.7917 20.696 11.675 20.646C11.5583 20.596 11.4583 20.5293 11.375 20.446L5.8 15.046L4.575 15.921C4.24167 16.1543 3.89583 16.1793 3.5375 15.996C3.17917 15.8127 3 15.5127 3 15.096C3 14.9293 3.0375 14.7752 3.1125 14.6335C3.1875 14.4918 3.29167 14.3793 3.425 14.296L5.325 12.921C5.425 12.8377 5.52917 12.7835 5.6375 12.7585C5.74583 12.7335 5.85833 12.7293 5.975 12.746C6.09167 12.7627 6.20417 12.7918 6.3125 12.8335C6.42083 12.8752 6.51667 12.9377 6.6 13.021L12.125 18.396L16.025 15.271C16.1083 15.1877 16.2042 15.1293 16.3125 15.096C16.4208 15.0627 16.5333 15.046 16.65 15.046H20C20.2833 15.046 20.5208 15.1418 20.7125 15.3335C20.9042 15.5252 21 15.7627 21 16.046C21 16.3293 20.9042 16.5668 20.7125 16.7585C20.5208 16.9502 20.2833 17.046 20 17.046H17L12.675 20.496C12.575 20.5793 12.4708 20.6377 12.3625 20.671C12.2542 20.7043 12.1417 20.721 12.025 20.721Z" fill="#0AAB45"/>
</svg>
