<svg xmlns="http://www.w3.org/2000/svg" width="17" height="16" viewBox="0 0 17 16" fill="none">
  <path d="M8.66667 14.6667C7.74444 14.6667 6.87778 14.4917 6.06667 14.1417C5.25556 13.7917 4.55 13.3167 3.95 12.7167C3.35 12.1167 2.875 11.4112 2.525 10.6C2.175 9.78893 2 8.92226 2 8.00004C2 7.07782 2.175 6.21115 2.525 5.40004C2.875 4.58893 3.35 3.88337 3.95 3.28337C4.55 2.68337 5.25556 2.20837 6.06667 1.85837C6.87778 1.50837 7.74444 1.33337 8.66667 1.33337C9.58889 1.33337 10.4556 1.50837 11.2667 1.85837C12.0778 2.20837 12.7833 2.68337 13.3833 3.28337C13.9833 3.88337 14.4583 4.58893 14.8083 5.40004C15.1583 6.21115 15.3333 7.07782 15.3333 8.00004C15.3333 8.92226 15.1583 9.78893 14.8083 10.6C14.4583 11.4112 13.9833 12.1167 13.3833 12.7167C12.7833 13.3167 12.0778 13.7917 11.2667 14.1417C10.4556 14.4917 9.58889 14.6667 8.66667 14.6667ZM8.66667 13.3334C9.26667 13.3334 9.84444 13.2362 10.4 13.0417C10.9556 12.8473 11.4667 12.5667 11.9333 12.2L4.46667 4.73337C4.1 5.20004 3.81944 5.71115 3.625 6.26671C3.43056 6.82226 3.33333 7.40004 3.33333 8.00004C3.33333 9.48893 3.85 10.75 4.88333 11.7834C5.91667 12.8167 7.17778 13.3334 8.66667 13.3334ZM12.8667 11.2667C13.2333 10.8 13.5139 10.2889 13.7083 9.73337C13.9028 9.17782 14 8.60004 14 8.00004C14 6.51115 13.4833 5.25004 12.45 4.21671C11.4167 3.18337 10.1556 2.66671 8.66667 2.66671C8.06667 2.66671 7.48889 2.76393 6.93333 2.95837C6.37778 3.15282 5.86667 3.43337 5.4 3.80004L12.8667 11.2667Z" fill="#646F68" fill-opacity="0.5"/>
</svg>