<svg width="24" height="24" viewBox="0 0 24 24" xmlns="http://www.w3.org/2000/svg">
    <path
        d="M12 20.5C9.48333 20.5 7.35417 20.1125 5.6125 19.3375C3.87083 18.5625 3 17.6167 3 16.5V6.5C3 5.4 3.87917 4.45833 5.6375 3.675C7.39583 2.89167 9.51667 2.5 12 2.5C14.4833 2.5 16.6042 2.89167 18.3625 3.675C20.1208 4.45833 21 5.4 21 6.5V16.5C21 17.6167 20.1292 18.5625 18.3875 19.3375C16.6458 20.1125 14.5167 20.5 12 20.5ZM12 8.525C13.4833 8.525 14.975 8.3125 16.475 7.8875C17.975 7.4625 18.8167 7.00833 19 6.525C18.8167 6.04167 17.9792 5.58333 16.4875 5.15C14.9958 4.71667 13.5 4.5 12 4.5C10.4833 4.5 8.99583 4.7125 7.5375 5.1375C6.07917 5.5625 5.23333 6.025 5 6.525C5.23333 7.025 6.07917 7.48333 7.5375 7.9C8.99583 8.31667 10.4833 8.525 12 8.525ZM12 13.5C12.7 13.5 13.375 13.4667 14.025 13.4C14.675 13.3333 15.2958 13.2375 15.8875 13.1125C16.4792 12.9875 17.0375 12.8333 17.5625 12.65C18.0875 12.4667 18.5667 12.2583 19 12.025V9.025C18.5667 9.25833 18.0875 9.46667 17.5625 9.65C17.0375 9.83333 16.4792 9.9875 15.8875 10.1125C15.2958 10.2375 14.675 10.3333 14.025 10.4C13.375 10.4667 12.7 10.5 12 10.5C11.3 10.5 10.6167 10.4667 9.95 10.4C9.28333 10.3333 8.65417 10.2375 8.0625 10.1125C7.47083 9.9875 6.91667 9.83333 6.4 9.65C5.88333 9.46667 5.41667 9.25833 5 9.025V12.025C5.41667 12.2583 5.88333 12.4667 6.4 12.65C6.91667 12.8333 7.47083 12.9875 8.0625 13.1125C8.65417 13.2375 9.28333 13.3333 9.95 13.4C10.6167 13.4667 11.3 13.5 12 13.5ZM12 18.5C12.7667 18.5 13.5458 18.4417 14.3375 18.325C15.1292 18.2083 15.8583 18.0542 16.525 17.8625C17.1917 17.6708 17.75 17.4542 18.2 17.2125C18.65 16.9708 18.9167 16.725 19 16.475V14.025C18.5667 14.2583 18.0875 14.4667 17.5625 14.65C17.0375 14.8333 16.4792 14.9875 15.8875 15.1125C15.2958 15.2375 14.675 15.3333 14.025 15.4C13.375 15.4667 12.7 15.5 12 15.5C11.3 15.5 10.6167 15.4667 9.95 15.4C9.28333 15.3333 8.65417 15.2375 8.0625 15.1125C7.47083 14.9875 6.91667 14.8333 6.4 14.65C5.88333 14.4667 5.41667 14.2583 5 14.025V16.5C5.08333 16.75 5.34583 16.9917 5.7875 17.225C6.22917 17.4583 6.78333 17.6708 7.45 17.8625C8.11667 18.0542 8.85 18.2083 9.65 18.325C10.45 18.4417 11.2333 18.5 12 18.5Z" />
</svg>
