<svg width="34" height="34" viewBox="0 0 34 34" xmlns="http://www.w3.org/2000/svg">
    <path
        d="M17 0.333008C7.78334 0.333008 0.333344 7.78301 0.333344 16.9997C0.333344 26.2163 7.78334 33.6663 17 33.6663C26.2167 33.6663 33.6667 26.2163 33.6667 16.9997C33.6667 7.78301 26.2167 0.333008 17 0.333008ZM24.1583 21.808C24.8073 22.4569 24.8073 23.5091 24.1583 24.158C23.5094 24.8069 22.4573 24.8069 21.8083 24.158L17 19.3497L12.1917 24.158C11.5427 24.8069 10.4906 24.8069 9.84168 24.158C9.19274 23.5091 9.19274 22.4569 9.84168 21.808L14.65 16.9997L9.84168 12.1913C9.19274 11.5424 9.19274 10.4903 9.84168 9.84134C10.4906 9.19241 11.5427 9.19241 12.1917 9.84134L17 14.6497L21.8083 9.84134C22.4573 9.19241 23.5094 9.19241 24.1583 9.84134C24.8073 10.4903 24.8073 11.5424 24.1583 12.1913L19.35 16.9997L24.1583 21.808Z" />
</svg>
