<svg width="20" height="20" viewBox="0 0 20 20" fill="none" xmlns="http://www.w3.org/2000/svg">
<path fill-rule="evenodd" clip-rule="evenodd" d="M9.99984 18.2083C9.90262 18.2083 9.81234 18.2014 9.729 18.1875C9.64567 18.1736 9.56234 18.1528 9.479 18.125C7.604 17.5 6.11095 16.3438 4.99984 14.6563C4.82141 14.3853 4.6573 14.111 4.50752 13.8333H2.9165C2.22615 13.8333 1.6665 13.2737 1.6665 12.5833V7.58333C1.6665 6.89298 2.22615 6.33333 2.9165 6.33333H3.33317V5.27083C3.33317 4.92361 3.43387 4.61111 3.63525 4.33333C3.83664 4.05556 4.09706 3.85417 4.4165 3.72917L9.4165 1.85417C9.61095 1.78472 9.80539 1.75 9.99984 1.75C10.1943 1.75 10.3887 1.78472 10.5832 1.85417L15.5832 3.72917C15.9026 3.85417 16.163 4.05556 16.3644 4.33333C16.5658 4.61111 16.6665 4.92361 16.6665 5.27083V6.33333H17.0832C17.7735 6.33333 18.3332 6.89298 18.3332 7.58333V12.5833C18.3332 13.2737 17.7735 13.8333 17.0832 13.8333H15.4922C15.3424 14.111 15.1783 14.3853 14.9998 14.6563C13.8887 16.3438 12.3957 17.5 10.5207 18.125C10.4373 18.1528 10.354 18.1736 10.2707 18.1875C10.1873 18.2014 10.0971 18.2083 9.99984 18.2083ZM9.99984 16.5417C8.57003 16.088 7.38519 15.1852 6.4453 13.8333H13.5544C12.6145 15.1852 11.4296 16.088 9.99984 16.5417ZM14.9998 6.33333H4.99984V5.27083L9.99984 3.39583L14.9998 5.27083V6.33333ZM5.36529 12.4088C5.61669 12.5251 5.90999 12.5833 6.24518 12.5833C6.73866 12.5833 7.13438 12.4576 7.43233 12.2062C7.73494 11.9502 7.88624 11.6034 7.88624 11.1657C7.88624 10.9283 7.83503 10.7258 7.73261 10.5582C7.63485 10.3906 7.51148 10.2533 7.3625 10.1462C7.21352 10.0391 7.01334 9.91574 6.76194 9.77607L6.55943 9.66434C6.33596 9.55261 6.16837 9.46415 6.05663 9.39898C5.94956 9.3338 5.87041 9.26862 5.8192 9.20344C5.76799 9.13361 5.74239 9.05447 5.74239 8.96602C5.74239 8.84497 5.77963 8.74953 5.85412 8.6797C5.92861 8.60987 6.03336 8.57495 6.16837 8.57495C6.33596 8.57495 6.46865 8.62384 6.56641 8.7216C6.66418 8.81471 6.71306 8.92877 6.71306 9.06378V9.1825C6.71306 9.20577 6.72004 9.22672 6.73401 9.24534C6.75263 9.25931 6.77358 9.26629 6.79686 9.26629H7.77451C7.79779 9.26629 7.81641 9.25931 7.83038 9.24534C7.849 9.22672 7.85831 9.20577 7.85831 9.1825V9.04981C7.85831 8.76117 7.78615 8.50745 7.64183 8.28864C7.50217 8.06518 7.30663 7.89292 7.05524 7.77188C6.80384 7.64618 6.51753 7.58333 6.1963 7.58333C5.88438 7.58333 5.60738 7.64153 5.36529 7.75791C5.12321 7.86965 4.93466 8.03026 4.79965 8.23976C4.66464 8.44926 4.59714 8.69367 4.59714 8.973C4.59714 9.25233 4.66231 9.49209 4.79267 9.69227C4.92768 9.89246 5.08829 10.0554 5.27451 10.1811C5.46073 10.3021 5.68652 10.4278 5.95189 10.5582C6.18001 10.6746 6.34062 10.7584 6.43373 10.8096C6.52684 10.8608 6.599 10.919 6.65021 10.9842C6.70608 11.0447 6.73401 11.1192 6.73401 11.2076C6.73401 11.3147 6.69676 11.4055 6.62228 11.48C6.54779 11.5545 6.43839 11.5917 6.29406 11.5917C6.12181 11.5917 5.98447 11.5475 5.88205 11.459C5.77963 11.3659 5.72842 11.2542 5.72842 11.1238V10.9981C5.72842 10.9749 5.71911 10.9562 5.70049 10.9423C5.68652 10.9236 5.6679 10.9143 5.64462 10.9143H4.66697C4.64369 10.9143 4.62274 10.9236 4.60412 10.9423C4.59015 10.9562 4.58317 10.9749 4.58317 10.9981V11.1797C4.58317 11.459 4.65068 11.7058 4.78568 11.9199C4.92535 12.1294 5.11855 12.2924 5.36529 12.4088ZM10.3574 12.5833C10.0222 12.5833 9.72889 12.5251 9.47749 12.4088C9.23075 12.2924 9.03755 12.1294 8.89788 11.9199C8.76287 11.7058 8.69537 11.459 8.69537 11.1797V10.9981C8.69537 10.9749 8.70235 10.9562 8.71632 10.9423C8.73494 10.9236 8.75589 10.9143 8.77917 10.9143H9.75682C9.7801 10.9143 9.79872 10.9236 9.81269 10.9423C9.83131 10.9562 9.84062 10.9749 9.84062 10.9981V11.1238C9.84062 11.2542 9.89183 11.3659 9.99425 11.459C10.0967 11.5475 10.234 11.5917 10.4063 11.5917C10.5506 11.5917 10.66 11.5545 10.7345 11.48C10.809 11.4055 10.8462 11.3147 10.8462 11.2076C10.8462 11.1192 10.8183 11.0447 10.7624 10.9842C10.7112 10.919 10.639 10.8608 10.5459 10.8096C10.4528 10.7584 10.2922 10.6746 10.0641 10.5582C9.79872 10.4278 9.57293 10.3021 9.38671 10.1811C9.20049 10.0554 9.03988 9.89246 8.90487 9.69227C8.77451 9.49209 8.70934 9.25233 8.70934 8.973C8.70934 8.69367 8.77684 8.44926 8.91185 8.23976C9.04686 8.03026 9.23541 7.86965 9.47749 7.75791C9.71958 7.64153 9.99658 7.58333 10.3085 7.58333C10.6297 7.58333 10.916 7.64618 11.1674 7.77188C11.4188 7.89292 11.6144 8.06518 11.754 8.28864C11.8983 8.50745 11.9705 8.76117 11.9705 9.04981V9.1825C11.9705 9.20577 11.9612 9.22672 11.9426 9.24534C11.9286 9.25931 11.91 9.26629 11.8867 9.26629H10.9091C10.8858 9.26629 10.8648 9.25931 10.8462 9.24534C10.8322 9.22672 10.8253 9.20577 10.8253 9.1825V9.06378C10.8253 8.92877 10.7764 8.81471 10.6786 8.7216C10.5808 8.62384 10.4482 8.57495 10.2806 8.57495C10.1456 8.57495 10.0408 8.60987 9.96632 8.6797C9.89183 8.74953 9.85459 8.84497 9.85459 8.96602C9.85459 9.05447 9.88019 9.13361 9.9314 9.20344C9.98261 9.26862 10.0618 9.3338 10.1688 9.39898C10.2806 9.46415 10.4482 9.55261 10.6716 9.66434L10.8741 9.77607C11.1255 9.91574 11.3257 10.0391 11.4747 10.1462C11.6237 10.2533 11.747 10.3906 11.8448 10.5582C11.9472 10.7258 11.9984 10.9283 11.9984 11.1657C11.9984 11.6034 11.8471 11.9502 11.5445 12.2062C11.2466 12.4576 10.8509 12.5833 10.3574 12.5833ZM12.9263 12.5076C12.9449 12.5216 12.9659 12.5286 12.9891 12.5286H15.9291C15.9524 12.5286 15.971 12.5216 15.9849 12.5076C16.0036 12.489 16.0129 12.468 16.0129 12.4448V11.6207C16.0129 11.5975 16.0036 11.5788 15.9849 11.5649C15.971 11.5463 15.9524 11.5369 15.9291 11.5369H14.0995C14.0762 11.5369 14.0646 11.5253 14.0646 11.502V7.7241C14.0646 7.70082 14.0552 7.6822 14.0366 7.66823C14.0227 7.64961 14.004 7.6403 13.9808 7.6403H12.9891C12.9659 7.6403 12.9449 7.64961 12.9263 7.66823C12.9123 7.6822 12.9053 7.70082 12.9053 7.7241V12.4448C12.9053 12.468 12.9123 12.489 12.9263 12.5076Z" fill="#3CE078"/>
</svg>
