<svg width="16" height="16" viewBox="0 0 16 16" fill="none" xmlns="http://www.w3.org/2000/svg">
<g id="Icon" clip-path="url(#clip0_17791_3379)">
<path id="Subtract" fill-rule="evenodd" clip-rule="evenodd" d="M2.58773 3.21387C2.52523 3.26611 2.47201 3.32829 2.43018 3.39779C1.35319 4.69922 0.756836 6.34115 0.756836 8.0446C0.756836 9.97754 1.52474 11.8314 2.89152 13.1982C3.90535 14.2121 5.18726 14.8963 6.57064 15.1821C6.65918 15.2174 6.75358 15.2349 6.84847 15.2339C7.24145 15.2993 7.64152 15.3328 8.04508 15.3328C9.97803 15.3328 11.8319 14.5649 13.1986 13.1982C14.5655 11.8314 15.3333 9.97754 15.3333 8.0446C15.3333 7.25358 15.2048 6.47591 14.9591 5.73926C14.9451 5.65478 14.9164 5.57373 14.8745 5.49951C14.5129 4.52913 13.9451 3.63737 13.1986 2.89095C11.8319 1.52425 9.97803 0.756348 8.04508 0.756348C6.11214 0.756348 4.2583 1.52425 2.89152 2.89095C2.7867 2.99577 2.68538 3.10352 2.58773 3.21387ZM8.04508 2.21403C8.81095 2.21289 9.56942 2.36328 10.2769 2.65641C10.9844 2.94954 11.627 3.37972 12.1675 3.9222C12.5295 4.28288 12.8414 4.68896 13.096 5.12939H8.08756L8.04517 5.12907C7.66252 5.12891 7.28361 5.2041 6.93001 5.35026C6.57642 5.49658 6.25505 5.7111 5.98437 5.98144C5.80355 6.16211 5.6477 6.3654 5.52043 6.58577L3.96053 3.8846C4.49308 3.35986 5.12223 2.94271 5.81331 2.65641C6.52075 2.36328 7.2793 2.21289 8.04508 2.21403ZM13.6921 6.58708H10.5679C10.8213 7.02637 10.9578 7.52832 10.9576 8.04443C10.9574 8.53092 10.8354 9.00472 10.6088 9.42529C10.5976 9.4515 10.5847 9.47721 10.5703 9.50228L8.04508 13.8752C8.81095 13.8763 9.56942 13.7261 10.2769 13.4328C10.9844 13.1396 11.627 12.7095 12.1675 12.167C12.71 11.6265 13.1401 10.9839 13.4333 10.2764C13.7265 9.56885 13.8768 8.81038 13.8757 8.0446C13.8764 7.55192 13.8145 7.06217 13.6921 6.58708ZM6.48364 13.6637C6.25618 13.6006 6.03231 13.5236 5.81331 13.4328C5.10579 13.1396 4.46322 12.7095 3.92269 12.167C3.38021 11.6265 2.95003 10.9839 2.6569 10.2764C2.36369 9.56885 2.21338 8.81038 2.21452 8.0446C2.21338 7.27881 2.36369 6.52034 2.6569 5.81283C2.75448 5.57731 2.86719 5.34912 2.99414 5.12939L5.51977 9.50521C5.53271 9.52751 5.54671 9.54883 5.56177 9.5695C5.68042 9.76237 5.82153 9.94141 5.98234 10.1024C6.25277 10.373 6.57389 10.5879 6.92733 10.7345C7.28084 10.881 7.65967 10.9567 8.04232 10.9569H8.04598L6.48364 13.6637ZM8.04036 6.58708C7.6713 6.61133 7.32511 6.77474 7.07186 7.04443C6.81746 7.31527 6.67586 7.67285 6.67586 8.04443C6.67586 8.41602 6.81746 8.7736 7.07186 9.04443C7.32625 9.3151 7.67432 9.47884 8.04517 9.50195C8.41602 9.47884 8.76408 9.3151 9.01847 9.04443C9.27295 8.7736 9.41455 8.41602 9.41455 8.04443C9.41455 7.67285 9.27295 7.31527 9.01847 7.04443C8.76522 6.7749 8.41919 6.61133 8.05021 6.58708" fill="#73707B"/>
</g>
<defs>
<clipPath id="clip0_17791_3379">
<rect width="16" height="16" fill="white"/>
</clipPath>
</defs>
</svg>
