<svg width="24" height="24" viewBox="0 0 24 24" fill="none" xmlns="http://www.w3.org/2000/svg">
<path d="M1.74992 17.5505C1.53325 17.4005 1.40408 17.1963 1.36242 16.938C1.32075 16.6797 1.36658 16.4338 1.49992 16.2005L5.27492 10.1505C5.45825 9.86716 5.71242 9.713 6.03742 9.688C6.36242 9.663 6.64158 9.7755 6.87492 10.0255L8.99992 12.5005L12.1749 7.32549C12.3582 7.00883 12.6374 6.85049 13.0124 6.85049C13.3874 6.85049 13.6749 7.00049 13.8749 7.30049L14.8999 8.8505C15.0832 9.13383 15.1374 9.40466 15.0624 9.663C14.9874 9.92133 14.8416 10.1172 14.6249 10.2505C14.4082 10.3838 14.1707 10.438 13.9124 10.413C13.6541 10.388 13.4332 10.2338 13.2499 9.9505L13.0749 9.7005L9.99992 14.7005C9.81658 14.9838 9.55825 15.1422 9.22492 15.1755C8.89158 15.2088 8.60825 15.0922 8.37492 14.8255L6.24992 12.3505L3.19992 17.2755C3.04992 17.5255 2.82908 17.6797 2.53742 17.738C2.24575 17.7963 1.98325 17.7338 1.74992 17.5505ZM16.0749 20.5755C14.8249 20.5755 13.7624 20.138 12.8874 19.263C12.0124 18.388 11.5749 17.3255 11.5749 16.0755C11.5749 14.8255 12.0124 13.763 12.8874 12.888C13.7624 12.013 14.8249 11.5755 16.0749 11.5755C17.3249 11.5755 18.3874 12.013 19.2624 12.888C20.1374 13.763 20.5749 14.8255 20.5749 16.0755C20.5749 16.5088 20.5166 16.9297 20.3999 17.338C20.2832 17.7463 20.1082 18.1255 19.8749 18.4755L22.2749 20.8755C22.4749 21.0755 22.5791 21.3088 22.5874 21.5755C22.5957 21.8422 22.4999 22.0755 22.2999 22.2755C22.0999 22.4755 21.8624 22.5755 21.5874 22.5755C21.3124 22.5755 21.0749 22.4755 20.8749 22.2755L18.4499 19.8755C18.1166 20.1088 17.7457 20.2838 17.3374 20.4005C16.9291 20.5172 16.5082 20.5755 16.0749 20.5755ZM16.0749 18.5755C16.7749 18.5755 17.3666 18.3338 17.8499 17.8505C18.3332 17.3672 18.5749 16.7755 18.5749 16.0755C18.5749 15.3755 18.3332 14.7838 17.8499 14.3005C17.3666 13.8172 16.7749 13.5755 16.0749 13.5755C15.3749 13.5755 14.7832 13.8172 14.2999 14.3005C13.8166 14.7838 13.5749 15.3755 13.5749 16.0755C13.5749 16.7755 13.8166 17.3672 14.2999 17.8505C14.7832 18.3338 15.3749 18.5755 16.0749 18.5755ZM17.2999 10.3005C17.0832 10.1672 16.9332 9.9755 16.8499 9.7255C16.7666 9.4755 16.8166 9.20883 16.9999 8.9255L20.7999 2.90049C20.9499 2.66716 21.1666 2.51716 21.4499 2.45049C21.7332 2.38383 21.9916 2.44216 22.2249 2.62549C22.4416 2.77549 22.5749 2.97966 22.6249 3.23799C22.6749 3.49633 22.6332 3.74216 22.4999 3.97549L18.6749 9.9755C18.4916 10.2588 18.2707 10.4172 18.0124 10.4505C17.7541 10.4838 17.5166 10.4338 17.2999 10.3005Z" fill="#151A16"/>
</svg>
