<svg width="25" height="24" viewBox="0 0 25 24" fill="none" xmlns="http://www.w3.org/2000/svg">
<path d="M15.8 13.2999L12.2 9.6999C12.1 9.5999 12.0293 9.49157 11.988 9.3749C11.946 9.25824 11.925 9.13324 11.925 8.9999C11.925 8.86657 11.946 8.74157 11.988 8.6249C12.0293 8.50824 12.1 8.3999 12.2 8.2999L15.8 4.6999C16 4.4999 16.2333 4.3999 16.5 4.3999C16.7667 4.3999 17 4.4999 17.2 4.6999C17.4 4.8999 17.5 5.13724 17.5 5.4119C17.5 5.68724 17.4 5.9249 17.2 6.1249L15.325 7.9999H21.5C21.7833 7.9999 22.0207 8.09557 22.212 8.2869C22.404 8.4789 22.5 8.71657 22.5 8.9999C22.5 9.28324 22.404 9.52057 22.212 9.7119C22.0207 9.9039 21.7833 9.9999 21.5 9.9999H15.325L17.2 11.8749C17.4 12.0749 17.5 12.3082 17.5 12.5749C17.5 12.8416 17.4 13.0749 17.2 13.2749C17 13.4749 16.771 13.5832 16.513 13.5999C16.2543 13.6166 16.0167 13.5166 15.8 13.2999ZM7.8 19.2749C8 19.4749 8.23333 19.5789 8.5 19.5869C8.76667 19.5956 9 19.4999 9.2 19.2999L12.8 15.6999C12.9 15.5999 12.971 15.4916 13.013 15.3749C13.0543 15.2582 13.075 15.1332 13.075 14.9999C13.075 14.8666 13.0543 14.7416 13.013 14.6249C12.971 14.5082 12.9 14.3999 12.8 14.2999L9.2 10.6999C9 10.4999 8.76667 10.3999 8.5 10.3999C8.23333 10.3999 8 10.4999 7.8 10.6999C7.6 10.8999 7.5 11.1372 7.5 11.4119C7.5 11.6872 7.6 11.9249 7.8 12.1249L9.675 13.9999H3.5C3.21667 13.9999 2.97933 14.0956 2.788 14.2869C2.596 14.4789 2.5 14.7166 2.5 14.9999C2.5 15.2832 2.596 15.5206 2.788 15.7119C2.97933 15.9039 3.21667 15.9999 3.5 15.9999H9.675L7.8 17.8749C7.6 18.0749 7.5 18.3082 7.5 18.5749C7.5 18.8416 7.6 19.0749 7.8 19.2749Z" fill="#73707B" fill-opacity="0.5"/>
</svg>
