<svg width="16" height="16" viewBox="0 0 16 16" fill="none" xmlns="http://www.w3.org/2000/svg">
<path d="M3.50016 4.6665H6.66683C7.03502 4.6665 7.3335 4.96498 7.3335 5.33317C7.3335 5.70136 7.03502 5.99984 6.66683 5.99984H3.50132C3.28254 6.00072 3.07154 6.08888 2.91468 6.24739C2.75758 6.40614 2.66772 6.62264 2.66683 6.85009V9.14971C2.66762 9.37716 2.75744 9.59368 2.91453 9.75243C3.07138 9.91093 3.28239 9.99904 3.50115 9.99984H6.66683C7.03502 9.99984 7.3335 10.2983 7.3335 10.6665C7.3335 11.0347 7.03502 11.3332 6.66683 11.3332H3.50016L3.49837 11.3332C2.92242 11.3316 2.37192 11.0997 1.9668 10.6903C1.56192 10.2811 1.33501 9.72812 1.3335 9.15247L1.3335 9.15071V6.84699C1.3352 6.27145 1.56214 5.7186 1.96695 5.30953C2.37198 4.90023 2.92232 4.66824 3.49815 4.66651L3.50016 4.6665Z" fill="#151A16"/>
<path d="M8.66683 5.33317C8.66683 4.96498 8.96531 4.6665 9.3335 4.6665H12.5022C13.078 4.66824 13.6283 4.90023 14.0334 5.30953C14.4382 5.7186 14.6651 6.27145 14.6668 6.84699L14.6668 6.84896L14.6668 9.15071L14.6668 9.15247C14.6653 9.72812 14.4384 10.2811 14.0335 10.6903C13.6284 11.0997 13.0779 11.3316 12.502 11.3332L12.5002 11.3332H9.3335C8.96531 11.3332 8.66683 11.0347 8.66683 10.6665C8.66683 10.2983 8.96531 9.99984 9.3335 9.99984H12.4992C12.7179 9.99904 12.9289 9.91093 13.0858 9.75243C13.2429 9.59368 13.3327 9.37714 13.3335 9.14969V6.8501C13.3326 6.62265 13.2427 6.40614 13.0856 6.24739C12.9288 6.08888 12.7178 6.00072 12.499 5.99984H9.3335C8.96531 5.99984 8.66683 5.70136 8.66683 5.33317Z" fill="#151A16"/>
<path d="M5.13062 7.33317C4.76243 7.33317 4.46395 7.63165 4.46395 7.99984C4.46395 8.36803 4.76243 8.6665 5.13062 8.6665H10.8697C11.2379 8.6665 11.5364 8.36803 11.5364 7.99984C11.5364 7.63165 11.2379 7.33317 10.8697 7.33317H5.13062Z" fill="#151A16"/>
</svg>
