<svg width="28" height="33" viewBox="0 0 28 33" xmlns="http://www.w3.org/2000/svg">
    <path
        d="M14.1096 12.9998L14.1096 12.9998L14.1141 12.9997C20.798 12.94 26.2292 7.63432 26.4902 1L27.5 1L27.5 32L26.4902 32C26.2278 25.3304 20.74 20.0035 14.0071 19.9998L14.0068 19.9998L13.9902 19.9998L13.9898 19.9998C7.25847 20.0051 1.77211 25.3313 1.50981 31.9998L0.499999 31.9999L0.5 1.00006L1.50982 1.00018C1.77075 7.6343 7.20195 12.94 13.8859 12.9997L13.8859 12.9998L13.8904 12.9998L14.1096 12.9998Z"
        stroke="#EFF4F1" />
    <rect x="28" y="0.5" width="32" height="1" transform="rotate(90 28 0.5)"
    />
    <rect x="1" y="0.5" width="32" height="1" transform="rotate(90 1 0.5)"
    />
</svg>
