<svg width="24" height="20" viewBox="0 0 24 20" xmlns="http://www.w3.org/2000/svg">
    <path
        d="M15.0002 10.073L15.0002 10.073L15.0002 10.0775C15.0403 14.5689 18.5636 18.2282 23 18.4855L23 19.5L1 19.5L1 18.4855C5.46009 18.2268 8.99744 14.5291 9 10.0049L9 10.0046L9 9.99341L9 9.99301C8.99643 5.46971 5.45946 1.77313 1 1.51439L1 0.499998L23 0.5L23 1.51439C18.5637 1.77177 15.0403 5.43121 15.0002 9.92253L15.0002 9.92253L15.0002 9.927L15.0002 10.073Z"
        stroke="#EFF4F1" />
    <rect x="23.5" y="20" width="23" height="1" transform="rotate(-180 23.5 20)" />
    <rect x="23.5" y="1" width="23" height="1" transform="rotate(-180 23.5 1)" />
</svg>
