<svg width="24" height="24" viewBox="0 0 24 24" fill="none" xmlns="http://www.w3.org/2000/svg">
<path d="M20 9C20 8.44772 19.5523 8 19 8H17.19C16.74 7.22 16.12 6.55 15.37 6.04L16.295 5.115C16.6844 4.72564 16.6844 4.09436 16.295 3.705C15.9056 3.31564 15.2744 3.31564 14.885 3.705L13.42 5.17C12.96 5.06 12.49 5 12 5C11.51 5 11.04 5.06 10.59 5.17L9.11689 3.70365C8.72622 3.31477 8.0945 3.3155 7.70473 3.70527C7.31517 4.09483 7.31419 4.72613 7.70255 5.11689L8.62 6.04C7.88 6.55 7.26 7.22 6.81 8H5C4.44772 8 4 8.44772 4 9C4 9.55228 4.44772 10 5 10H6.09C6.04 10.33 6 10.66 6 11V12H5C4.44772 12 4 12.4477 4 13C4 13.5523 4.44772 14 5 14H6V15C6 15.34 6.04 15.67 6.09 16H5C4.44772 16 4 16.4477 4 17C4 17.5523 4.44772 18 5 18H6.81C7.85 19.79 9.78 21 12 21C14.22 21 16.15 19.79 17.19 18H19C19.5523 18 20 17.5523 20 17C20 16.4477 19.5523 16 19 16H17.91C17.96 15.67 18 15.34 18 15V14H19C19.5523 14 20 13.5523 20 13C20 12.4477 19.5523 12 19 12H18V11C18 10.66 17.96 10.33 17.91 10H19C19.5523 10 20 9.55228 20 9ZM14 15C14 15.5523 13.5523 16 13 16H11C10.4477 16 10 15.5523 10 15C10 14.4477 10.4477 14 11 14H13C13.5523 14 14 14.4477 14 15ZM14 11C14 11.5523 13.5523 12 13 12H11C10.4477 12 10 11.5523 10 11C10 10.4477 10.4477 10 11 10H13C13.5523 10 14 10.4477 14 11Z" fill="#151A16"/>
</svg>
