<svg width="24" height="24" viewBox="0 0 24 24" fill="none" xmlns="http://www.w3.org/2000/svg">
<path d="M19.0605 10.2301C20.0157 9.67775 20.3424 8.45565 19.7902 7.50033C19.2378 6.54475 18.0153 6.21798 17.0599 6.77052L14 8.54V5C14 3.89543 13.1046 3 12 3C10.8954 3 9.99999 3.89543 9.99999 5V8.54L6.94013 6.77052C5.98465 6.21798 4.76216 6.54475 4.2098 7.50033C3.65759 8.45565 3.98425 9.67775 4.93947 10.2301L7.99999 12L4.93947 13.7699C3.98425 14.3223 3.65759 15.5443 4.2098 16.4997C4.76216 17.4553 5.98465 17.782 6.94013 17.2295L9.99999 15.46V19C9.99999 20.1046 10.8954 21 12 21C13.1046 21 14 20.1046 14 19V15.46L17.0599 17.2295C18.0153 17.782 19.2378 17.4553 19.7902 16.4997C20.3424 15.5443 20.0157 14.3223 19.0605 13.7699L16 12L19.0605 10.2301Z" fill="#151A16"/>
</svg>
