<svg width="12" height="14" viewBox="0 0 12 14" xmlns="http://www.w3.org/2000/svg">
<path d="M7.06667 1.20008C6.81486 0.86434 6.41968 0.666748 6 0.666748C5.58032 0.666748 5.18514 0.86434 4.93333 1.20008L4.33333 2.00008H0.666667C0.298477 2.00008 0 2.29856 0 2.66675C0 3.03494 0.298477 3.33341 0.666667 3.33341H11.3333C11.7015 3.33341 12 3.03494 12 2.66675C12 2.29856 11.7015 2.00008 11.3333 2.00008H7.66667L7.06667 1.20008Z" />
<path fill-rule="evenodd" clip-rule="evenodd" d="M4.3278 14.0001C3.0162 14.0001 1.9276 12.9865 1.83415 11.6782L1.33333 4.66675H10.6667L10.1658 11.6782C10.0724 12.9865 8.9838 14.0001 7.6722 14.0001H4.3278ZM3.70705 12.6667C3.44473 12.6667 3.22701 12.464 3.20832 12.2024L2.7653 6.00008H9.2347L8.79168 12.2024C8.77299 12.464 8.55527 12.6667 8.29295 12.6667H3.70705Z" />
</svg>
