<svg width="16" height="16" viewBox="0 0 16 16" fill="none" xmlns="http://www.w3.org/2000/svg">
<g id="Icon">
<path id="Subtract" d="M2.33301 13.3332C2.05523 13.3332 1.81912 13.2359 1.62467 13.0415C1.43023 12.8471 1.33301 12.6109 1.33301 12.3332C1.33301 12.0554 1.43023 11.8193 1.62467 11.6248C1.81912 11.4304 2.05523 11.3332 2.33301 11.3332H2.66634V3.99984C2.66634 3.63317 2.7969 3.31928 3.05801 3.05817C3.31912 2.79706 3.63301 2.6665 3.99967 2.6665H13.333C13.5219 2.6665 13.6802 2.73039 13.808 2.85817C13.9358 2.98595 13.9997 3.14428 13.9997 3.33317C13.9997 3.52206 13.9358 3.68039 13.808 3.80817C13.6802 3.93595 13.5219 3.99984 13.333 3.99984H3.99967V11.3332H6.99967C7.27745 11.3332 7.51356 11.4304 7.70801 11.6248C7.90245 11.8193 7.99967 12.0554 7.99967 12.3332C7.99967 12.6109 7.90245 12.8471 7.70801 13.0415C7.51356 13.2359 7.27745 13.3332 6.99967 13.3332H2.33301ZM9.99967 13.3332C9.81079 13.3332 9.65245 13.2693 9.52468 13.1415C9.3969 13.0137 9.33301 12.8554 9.33301 12.6665V5.99984C9.33301 5.81095 9.3969 5.65261 9.52468 5.52484C9.65245 5.39706 9.81079 5.33317 9.99967 5.33317H13.9997C14.1886 5.33317 14.3469 5.39706 14.4747 5.52484C14.6025 5.65261 14.6663 5.81095 14.6663 5.99984V12.6665C14.6663 12.8554 14.6025 13.0137 14.4747 13.1415C14.3469 13.2693 14.1886 13.3332 13.9997 13.3332H9.99967ZM10.6663 11.3332H13.333V6.6665H10.6663V11.3332Z" fill="#73707B"/>
</g>
</svg>
