<svg xmlns="http://www.w3.org/2000/svg" width="20" height="20" fill="none">
    <path fill="#19181B"
        d="M8.333 6.667c0-.46.374-.834.834-.834h5a.833.833 0 1 1 0 1.667h-5a.833.833 0 0 1-.834-.833ZM5.833 5.417a1.25 1.25 0 1 0 0 2.5 1.25 1.25 0 0 0 0-2.5ZM9.167 12.5a.833.833 0 1 0 0 1.667h5a.833.833 0 1 0 0-1.667h-5ZM4.583 13.333a1.25 1.25 0 1 1 2.5 0 1.25 1.25 0 0 1-2.5 0Z" />
    <path fill="#19181B" fill-rule="evenodd"
        d="M3.199 10a3.943 3.943 0 0 1-.44-.419c-.708-.786-1.092-1.836-1.092-2.914 0-1.079.384-2.128 1.092-2.915C3.47 2.962 4.453 2.5 5.5 2.5h9c1.047 0 2.03.463 2.74 1.252.709.787 1.093 1.836 1.093 2.915 0 1.078-.384 2.128-1.092 2.914a3.94 3.94 0 0 1-.44.419c.156.127.303.267.44.419.708.786 1.092 1.836 1.092 2.914 0 1.079-.384 2.128-1.092 2.915-.71.79-1.694 1.252-2.74 1.252h-9c-1.048 0-2.031-.463-2.742-1.252-.708-.787-1.092-1.836-1.092-2.915 0-1.078.384-2.128 1.092-2.914.137-.152.284-.292.44-.419Zm.8-5.133c.414-.46.956-.7 1.501-.7h9c.545 0 1.087.24 1.502.7.417.464.665 1.11.665 1.8s-.248 1.335-.665 1.8c-.415.46-.957.7-1.502.7h-9c-.545 0-1.087-.24-1.502-.7-.417-.464-.665-1.11-.665-1.8s.248-1.336.665-1.8ZM5.5 10.833c-.545 0-1.087.24-1.502.7-.417.465-.665 1.11-.665 1.8s.248 1.336.665 1.8c.415.46.957.7 1.502.7h9c.545 0 1.087-.24 1.502-.7.417-.464.665-1.11.665-1.8s-.248-1.335-.665-1.8c-.415-.46-.957-.7-1.502-.7h-9Z"
        clip-rule="evenodd" />
</svg>
