<svg width="24" height="24" viewBox="0 0 24 24" fill="none" xmlns="http://www.w3.org/2000/svg">
<path fill-rule="evenodd" clip-rule="evenodd" d="M12 22C17.52 22 22 17.52 22 12C22 6.48 17.52 2 12 2C6.48 2 2 6.48 2 12C2 17.52 6.48 22 12 22ZM11 8C11 7.44772 10.5523 7 10 7C9.44772 7 9 7.44772 9 8L9 12C9 12.5523 9.44771 13 10 13C10.5523 13 11 12.5523 11 12L11 8ZM8.75 16C8.75 15.3096 9.30964 14.75 10 14.75C10.6904 14.75 11.25 15.3096 11.25 16C11.25 16.6904 10.6904 17.25 10 17.25C9.30964 17.25 8.75 16.6904 8.75 16ZM14 7C14.5523 7 15 7.44772 15 8L15 12C15 12.5523 14.5523 13 14 13C13.4477 13 13 12.5523 13 12L13 8C13 7.44772 13.4477 7 14 7ZM14 14.75C13.3096 14.75 12.75 15.3096 12.75 16C12.75 16.6904 13.3096 17.25 14 17.25C14.6904 17.25 15.25 16.6904 15.25 16C15.25 15.3096 14.6904 14.75 14 14.75Z" fill="#151A16"/>
</svg>
