<svg width="24" height="24" viewBox="0 0 24 24" fill="none" xmlns="http://www.w3.org/2000/svg">
    <path d="M12.0001 2.23328C9.6194 2.23257 7.31657 3.08121 5.50568 4.6266C3.69478 6.17199 2.49462 8.31274 2.12101 10.6639C1.74739 13.0151 2.22483 15.4224 3.46748 17.453C4.71012 19.4836 6.63645 21.0043 8.90006 21.7416H9.14173C9.25963 21.7489 9.37775 21.7311 9.48823 21.6893C9.59872 21.6475 9.69905 21.5827 9.78259 21.4991C9.86612 21.4156 9.93093 21.3153 9.97274 21.2048C10.0145 21.0943 10.0324 20.9762 10.0251 20.8583V20.6833C10.0251 20.5416 10.0251 20.3499 10.0251 19.7749C10.0169 19.7204 9.99794 19.6679 9.96933 19.6207C9.94072 19.5735 9.90301 19.5325 9.8584 19.4999C9.80999 19.4608 9.75342 19.433 9.69286 19.4186C9.63229 19.4041 9.56926 19.4035 9.5084 19.4166C7.27506 19.8999 6.80006 18.4999 6.76673 18.4083C6.48707 17.6675 5.98676 17.0305 5.3334 16.5833C5.29425 16.5494 5.25245 16.5188 5.2084 16.4916C5.30524 16.4395 5.416 16.4191 5.52506 16.4333C5.73451 16.4624 5.93286 16.5452 6.10079 16.6738C6.26873 16.8023 6.40054 16.9721 6.4834 17.1666C6.80577 17.7279 7.3333 18.1423 7.95499 18.3226C8.57668 18.5029 9.24406 18.435 9.81673 18.1333C9.87818 18.1064 9.93224 18.0651 9.97432 18.0129C10.0164 17.9607 10.0452 17.899 10.0584 17.8333C10.0903 17.4478 10.2553 17.0854 10.5251 16.8083C10.585 16.7551 10.6282 16.6858 10.6498 16.6086C10.6713 16.5315 10.6701 16.4497 10.6463 16.3732C10.6226 16.2967 10.5773 16.2287 10.5159 16.1773C10.4545 16.1258 10.3795 16.0932 10.3001 16.0833C8.32506 15.8583 6.3084 15.1666 6.3084 11.7583C6.29175 10.9023 6.60506 10.0728 7.1834 9.44161C7.23666 9.38278 7.27202 9.30996 7.28531 9.23171C7.29859 9.15347 7.28926 9.07306 7.2584 8.99994C7.0268 8.35288 7.02975 7.64505 7.26673 6.99994C8.03659 7.13641 8.75917 7.46616 9.36673 7.95828C9.41692 7.9937 9.47446 8.01735 9.53506 8.02745C9.59566 8.03755 9.65776 8.03384 9.71673 8.01661C10.4611 7.81468 11.2288 7.71102 12.0001 7.70828C12.7743 7.70893 13.5449 7.81262 14.2917 8.01661C14.3495 8.03254 14.41 8.03558 14.4691 8.02549C14.5281 8.01541 14.5842 7.99247 14.6334 7.95828C15.2419 7.46771 15.9641 7.13815 16.7334 6.99994C16.9603 7.64159 16.9603 8.34163 16.7334 8.98328C16.7025 9.05639 16.6932 9.1368 16.7065 9.21505C16.7198 9.29329 16.7551 9.36611 16.8084 9.42494C17.3808 10.0498 17.6936 10.8693 17.6834 11.7166C17.6834 15.1249 15.6584 15.8083 13.6751 16.0333C13.5937 16.0417 13.5167 16.074 13.4535 16.1259C13.3903 16.1779 13.3439 16.2473 13.3199 16.3255C13.2959 16.4037 13.2954 16.4872 13.3186 16.5656C13.3417 16.6441 13.3875 16.714 13.4501 16.7666C13.6347 16.9571 13.7757 17.1854 13.8635 17.4358C13.9512 17.6861 13.9836 17.9525 13.9584 18.2166V20.8666C13.9543 20.9969 13.979 21.1265 14.0309 21.2461C14.0828 21.3656 14.1605 21.4723 14.2584 21.5583C14.3831 21.6517 14.5279 21.7146 14.6813 21.7421C14.8347 21.7696 14.9923 21.7609 15.1417 21.7166C17.3902 20.9644 19.2982 19.4378 20.5254 17.4092C21.7525 15.3806 22.219 12.982 21.8416 10.6413C21.4642 8.30063 20.2674 6.1702 18.4647 4.63015C16.6621 3.0901 14.371 2.24061 12.0001 2.23328Z" fill="#19181B"/>
</svg>
