<svg width="20" height="20" viewBox="0 0 20 20" fill="none" xmlns="http://www.w3.org/2000/svg">
<path d="M15.0001 16.1858V17.2066C15.0001 17.4428 14.9202 17.6407 14.7605 17.8004C14.6008 17.9601 14.4029 18.04 14.1667 18.04C13.9306 18.04 13.7327 17.9601 13.573 17.8004C13.4133 17.6407 13.3334 17.4428 13.3334 17.2066V14.5816C13.3334 14.2344 13.4549 13.9393 13.698 13.6962C13.9411 13.4532 14.2362 13.3316 14.5834 13.3316H17.2084C17.4445 13.3316 17.6424 13.4115 17.8022 13.5712C17.9619 13.731 18.0417 13.9289 18.0417 14.165C18.0417 14.4011 17.9619 14.599 17.8022 14.7587C17.6424 14.9185 17.4445 14.9983 17.2084 14.9983H16.1667L18.0417 16.8733C18.1945 17.0261 18.2709 17.2171 18.2709 17.4462C18.2709 17.6754 18.1945 17.8733 18.0417 18.04C17.8751 18.2066 17.6772 18.29 17.448 18.29C17.2188 18.29 17.0209 18.2066 16.8542 18.04L15.0001 16.1858ZM10.0001 18.3316C8.8473 18.3316 7.76397 18.1129 6.75008 17.6754C5.73619 17.2379 4.85425 16.6441 4.10425 15.8941C3.35425 15.1441 2.7605 14.2622 2.323 13.2483C1.8855 12.2344 1.66675 11.1511 1.66675 9.99831C1.66675 8.84553 1.8855 7.7622 2.323 6.74831C2.7605 5.73442 3.35425 4.85248 4.10425 4.10248C4.85425 3.35248 5.73619 2.75873 6.75008 2.32123C7.76397 1.88373 8.8473 1.66498 10.0001 1.66498C11.1529 1.66498 12.2362 1.88373 13.2501 2.32123C14.264 2.75873 15.1459 3.35248 15.8959 4.10248C16.6459 4.85248 17.2397 5.73442 17.6772 6.74831C18.1147 7.7622 18.3334 8.84553 18.3334 9.99831C18.3334 10.1372 18.3299 10.29 18.323 10.4566C18.3161 10.6233 18.3056 10.7761 18.2917 10.915C18.264 11.1511 18.1667 11.3351 18.0001 11.4671C17.8334 11.599 17.6251 11.665 17.3751 11.665C17.1529 11.665 16.9654 11.5678 16.8126 11.3733C16.6598 11.1789 16.5973 10.9705 16.6251 10.7483C16.6529 10.6094 16.6667 10.4844 16.6667 10.3733V9.99831C16.6667 9.72053 16.6494 9.44276 16.6147 9.16498C16.5799 8.8872 16.5279 8.60942 16.4584 8.33165H13.6251C13.6667 8.60942 13.698 8.8872 13.7188 9.16498C13.7397 9.44276 13.7501 9.72053 13.7501 9.99831V10.4462C13.7501 10.606 13.7431 10.7553 13.7292 10.8941C13.7015 11.1303 13.6042 11.3178 13.4376 11.4566C13.2709 11.5955 13.0695 11.665 12.8334 11.665C12.6112 11.665 12.4202 11.5747 12.2605 11.3941C12.1008 11.2136 12.0348 11.0122 12.0626 10.79C12.0765 10.6511 12.0834 10.5191 12.0834 10.3941V9.99831C12.0834 9.72053 12.073 9.44276 12.0522 9.16498C12.0313 8.8872 12.0001 8.60942 11.9584 8.33165H8.04175C8.00008 8.60942 7.96883 8.8872 7.948 9.16498C7.92717 9.44276 7.91675 9.72053 7.91675 9.99831C7.91675 10.2761 7.92717 10.5539 7.948 10.8316C7.96883 11.1094 8.00008 11.3872 8.04175 11.665H10.0001C10.2362 11.665 10.4341 11.7448 10.5938 11.9046C10.7536 12.0643 10.8334 12.2622 10.8334 12.4983C10.8334 12.7344 10.7536 12.9323 10.5938 13.0921C10.4341 13.2518 10.2362 13.3316 10.0001 13.3316H8.41675C8.58342 13.9289 8.79869 14.5018 9.06258 15.0504C9.32647 15.599 9.63897 16.1233 10.0001 16.6233C10.139 16.6233 10.2779 16.6268 10.4167 16.6337C10.5556 16.6407 10.6945 16.6372 10.8334 16.6233C11.0695 16.5955 11.264 16.6546 11.4167 16.8004C11.5695 16.9462 11.6459 17.1372 11.6459 17.3733C11.6459 17.6233 11.5834 17.8316 11.4584 17.9983C11.3334 18.165 11.1529 18.2622 10.9167 18.29C10.7779 18.3039 10.6251 18.3143 10.4584 18.3212C10.2917 18.3282 10.139 18.3316 10.0001 18.3316ZM3.54175 11.665H6.37508C6.33342 11.3872 6.30217 11.1094 6.28133 10.8316C6.2605 10.5539 6.25008 10.2761 6.25008 9.99831C6.25008 9.72053 6.2605 9.44276 6.28133 9.16498C6.30217 8.8872 6.33342 8.60942 6.37508 8.33165H3.54175C3.4723 8.60942 3.42022 8.8872 3.3855 9.16498C3.35078 9.44276 3.33341 9.72053 3.33341 9.99831C3.33341 10.2761 3.35078 10.5539 3.3855 10.8316C3.42022 11.1094 3.4723 11.3872 3.54175 11.665ZM7.83342 16.29C7.58342 15.8178 7.36467 15.3351 7.17717 14.8421C6.98967 14.349 6.83342 13.8455 6.70842 13.3316H4.25008C4.65286 14.04 5.1598 14.6476 5.77092 15.1546C6.38203 15.6615 7.06953 16.04 7.83342 16.29ZM4.25008 6.66498H6.70842C6.83342 6.15109 6.98967 5.64762 7.17717 5.15456C7.36467 4.66151 7.58342 4.17887 7.83342 3.70664C7.06953 3.95664 6.38203 4.33512 5.77092 4.84206C5.1598 5.34901 4.65286 5.95665 4.25008 6.66498ZM8.41675 6.66498H11.5834C11.4167 6.06776 11.2015 5.49484 10.9376 4.94623C10.6737 4.39762 10.3612 3.87331 10.0001 3.37331C9.63897 3.87331 9.32647 4.39762 9.06258 4.94623C8.79869 5.49484 8.58342 6.06776 8.41675 6.66498ZM13.2917 6.66498H15.7501C15.3473 5.95665 14.8404 5.34901 14.2292 4.84206C13.6181 4.33512 12.9306 3.95664 12.1667 3.70664C12.4167 4.17887 12.6355 4.66151 12.823 5.15456C13.0105 5.64762 13.1667 6.15109 13.2917 6.66498Z" fill="#646F68"/>
</svg>
