<svg width="24" height="24" viewBox="0 0 24 24" fill="none" xmlns="http://www.w3.org/2000/svg">
<path d="M14.859 20.0464C14.8722 20.0086 14.8762 19.9682 14.8707 19.9286C14.8651 19.8889 14.8502 19.8512 14.8271 19.8185C14.804 19.7858 14.7734 19.7591 14.7379 19.7407C14.7024 19.7222 14.663 19.7125 14.623 19.7123L12.5 19.7123C12.3674 19.7123 12.2402 19.6597 12.1464 19.5659C12.0527 19.4721 12 19.345 12 19.2123C12 19.0797 12.0527 18.9526 12.1464 18.8588C12.2402 18.765 12.3674 18.7123 12.5 18.7123L15 18.7123C15.2968 18.5898 15.5503 18.3818 15.7284 18.1146C15.9065 17.8475 16.0011 17.5334 16 17.2123L16 16.9623C16 16.896 15.9737 16.8325 15.9268 16.7856C15.8799 16.7387 15.8163 16.7123 15.75 16.7123L13.5 16.7123C13.3674 16.7123 13.2402 16.6597 13.1464 16.5659C13.0527 16.4721 13 16.345 13 16.2123C13 16.0797 13.0527 15.9526 13.1464 15.8588C13.2402 15.765 13.3674 15.7123 13.5 15.7123L16 15.7123C16.2968 15.5898 16.5503 15.3818 16.7284 15.1146C16.9065 14.8475 17.0011 14.5334 17 14.2123L17 13.9623C17 13.896 16.9737 13.8325 16.9268 13.7856C16.8799 13.7387 16.8163 13.7123 16.75 13.7123L13.5 13.7123C13.3674 13.7123 13.2402 13.6597 13.1464 13.5659C13.0527 13.4721 13 13.345 13 13.2123C13 13.0797 13.0527 12.9526 13.1464 12.8588C13.2402 12.765 13.3674 12.7123 13.5 12.7123L21 12.7123C21.5304 12.7123 22.0391 12.5016 22.4142 12.1266C22.7893 11.7515 23 11.2428 23 10.7124C23 10.1819 22.7893 9.67321 22.4142 9.29814C22.0391 8.92306 21.5304 8.71235 21 8.71235L9.922 8.71235C9.86891 8.71245 9.81716 8.69565 9.77426 8.66438C9.73135 8.63311 9.69952 8.58899 9.68336 8.53841C9.66721 8.48784 9.66758 8.43343 9.68441 8.38308C9.70125 8.33272 9.73368 8.28904 9.777 8.25835L12.125 6.58535C12.546 6.27737 12.8289 5.81596 12.9122 5.301C12.9956 4.78604 12.8727 4.25898 12.5703 3.83391C12.2679 3.40884 11.8103 3.11997 11.2965 3.02984C10.7827 2.93971 10.254 3.05558 9.825 3.35235L1.425 9.30335C1.29401 9.39541 1.18704 9.51757 1.11308 9.65957C1.03913 9.80157 1.00034 9.95925 1 10.1193L0.999999 18.8333C0.999879 19.0507 1.07058 19.2622 1.2014 19.4358C1.33221 19.6093 1.51602 19.7356 1.725 19.7953L7.017 21.3123C7.95539 21.5759 8.9253 21.7105 9.9 21.7123L12.5 21.7123C13.0172 21.7128 13.5219 21.5528 13.9444 21.2544C14.3669 20.9561 14.6864 20.534 14.859 20.0464Z" fill="#151A16"/>
</svg>
