<svg width="16" height="16" viewBox="0 0 16 16" xmlns="http://www.w3.org/2000/svg">
    <path fill-rule="evenodd" clip-rule="evenodd"
        d="M7.99992 14.6666C7.08881 14.6666 6.2277 14.4915 5.41659 14.1413C4.60547 13.7915 3.89725 13.3166 3.29192 12.7166C2.68614 12.1166 2.20836 11.411 1.85859 10.5999C1.50836 9.78881 1.33325 8.92214 1.33325 7.99992C1.33325 7.0777 1.50836 6.21103 1.85859 5.39992C2.20836 4.58881 2.68614 3.88325 3.29192 3.28325C3.89725 2.68325 4.60547 2.20814 5.41659 1.85792C6.2277 1.50814 7.08881 1.33325 7.99992 1.33325C8.93325 1.33325 9.80548 1.50814 10.6166 1.85792C11.4277 2.20814 12.1333 2.68325 12.7333 3.28325C13.3333 3.88325 13.8055 4.58881 14.1499 5.39992C14.4944 6.21103 14.6666 7.0777 14.6666 7.99992C14.6666 8.92214 14.4944 9.78881 14.1499 10.5999C13.8055 11.411 13.3333 12.1166 12.7333 12.7166C12.1333 13.3166 11.4277 13.7915 10.6166 14.1413C9.80548 14.4915 8.93325 14.6666 7.99992 14.6666ZM7.96659 11.9999C8.19992 11.9999 8.39725 11.9193 8.55859 11.7579C8.71947 11.597 8.79992 11.3999 8.79992 11.1666C8.79992 10.9333 8.71947 10.7361 8.55859 10.5753C8.39725 10.4139 8.19992 10.3333 7.96659 10.3333C7.73325 10.3333 7.53592 10.4139 7.37459 10.5753C7.2137 10.7361 7.13325 10.9333 7.13325 11.1666C7.13325 11.3999 7.2137 11.597 7.37459 11.7579C7.53592 11.9193 7.73325 11.9999 7.96659 11.9999ZM8.06659 5.13325C8.3777 5.13325 8.6277 5.21925 8.81659 5.39125C9.00548 5.5637 9.09992 5.78881 9.09992 6.06659C9.09992 6.25547 9.03614 6.44703 8.90859 6.64125C8.78059 6.83592 8.59992 7.03881 8.36659 7.24992C8.03325 7.53881 7.78881 7.81659 7.63325 8.08325C7.4777 8.34992 7.39992 8.61659 7.39992 8.88325C7.39992 9.03881 7.45836 9.16925 7.57525 9.27459C7.6917 9.38036 7.8277 9.43325 7.98325 9.43325C8.13881 9.43325 8.2777 9.3777 8.39992 9.26659C8.52214 9.15547 8.59992 9.01659 8.63325 8.84992C8.66659 8.66103 8.7417 8.48614 8.85859 8.32525C8.97503 8.16392 9.16659 7.95547 9.43325 7.69992C9.7777 7.3777 10.0195 7.08325 10.1586 6.81659C10.2973 6.54992 10.3666 6.25547 10.3666 5.93325C10.3666 5.36659 10.1528 4.90259 9.72525 4.54125C9.29725 4.18036 8.74436 3.99992 8.06659 3.99992C7.59992 3.99992 7.18614 4.08881 6.82525 4.26659C6.46392 4.44436 6.18325 4.71659 5.98325 5.08325C5.90547 5.2277 5.8777 5.36925 5.89992 5.50792C5.92214 5.64703 5.99992 5.76103 6.13325 5.84992C6.2777 5.93881 6.43614 5.96659 6.60859 5.93325C6.78059 5.89992 6.92214 5.80547 7.03325 5.64992C7.15547 5.48325 7.30281 5.35547 7.47525 5.26659C7.64725 5.1777 7.84436 5.13325 8.06659 5.13325Z" />
</svg>
