<svg width="20" height="20" viewBox="0 0 20 20" xmlns="http://www.w3.org/2000/svg">
    <path id="Vector"
        d="M8.33332 15C7.87499 15 7.48263 14.8368 7.15624 14.5104C6.82985 14.184 6.66666 13.7916 6.66666 13.3333V12.2916C5.87499 11.75 5.26041 11.0555 4.82291 10.2083C4.38541 9.36107 4.16666 8.45829 4.16666 7.49996C4.16666 5.87496 4.73263 4.49649 5.86457 3.36454C6.99652 2.2326 8.37499 1.66663 9.99999 1.66663C11.625 1.66663 13.0035 2.2326 14.1354 3.36454C15.2674 4.49649 15.8333 5.87496 15.8333 7.49996C15.8333 8.45829 15.6146 9.3576 15.1771 10.1979C14.7396 11.0382 14.125 11.7361 13.3333 12.2916V13.3333C13.3333 13.7916 13.1701 14.184 12.8437 14.5104C12.5174 14.8368 12.125 15 11.6667 15H8.33332ZM8.33332 18.3333C8.09721 18.3333 7.8993 18.2534 7.73957 18.0937C7.57985 17.934 7.49999 17.7361 7.49999 17.5C7.49999 17.2638 7.57985 17.0659 7.73957 16.9062C7.8993 16.7465 8.09721 16.6666 8.33332 16.6666H11.6667C11.9028 16.6666 12.1007 16.7465 12.2604 16.9062C12.4201 17.0659 12.5 17.2638 12.5 17.5C12.5 17.7361 12.4201 17.934 12.2604 18.0937C12.1007 18.2534 11.9028 18.3333 11.6667 18.3333H8.33332Z" />
</svg>
