<svg width="20" height="20" viewBox="0 0 20 20" xmlns="http://www.w3.org/2000/svg">
    <path
        d="M9.99998 11.6672C9.54165 11.6672 9.14929 11.504 8.8229 11.1776C8.49651 10.8512 8.33332 10.4588 8.33332 10.0005C8.33332 9.54215 8.49651 9.14979 8.8229 8.8234C9.14929 8.49702 9.54165 8.33382 9.99998 8.33382C10.4583 8.33382 10.8507 8.49702 11.1771 8.8234C11.5035 9.14979 11.6667 9.54215 11.6667 10.0005C11.6667 10.4588 11.5035 10.8512 11.1771 11.1776C10.8507 11.504 10.4583 11.6672 9.99998 11.6672ZM5.83332 15.3338L3.83332 17.3338C3.68054 17.4866 3.4861 17.563 3.24998 17.563C3.01387 17.563 2.81943 17.4866 2.66665 17.3338C2.51387 17.181 2.43748 16.9866 2.43748 16.7505C2.43748 16.5144 2.51387 16.3199 2.66665 16.1672L4.66665 14.1672H3.33332C3.09721 14.1672 2.89929 14.0873 2.73957 13.9276C2.57985 13.7678 2.49998 13.5699 2.49998 13.3338C2.49998 13.0977 2.57985 12.8998 2.73957 12.7401C2.89929 12.5803 3.09721 12.5005 3.33332 12.5005H6.66665C6.90276 12.5005 7.10068 12.5803 7.2604 12.7401C7.42012 12.8998 7.49998 13.0977 7.49998 13.3338V16.6672C7.49998 16.9033 7.42012 17.1012 7.2604 17.2609C7.10068 17.4206 6.90276 17.5005 6.66665 17.5005C6.43054 17.5005 6.23262 17.4206 6.0729 17.2609C5.91318 17.1012 5.83332 16.9033 5.83332 16.6672V15.3338ZM14.1667 15.3338V16.6672C14.1667 16.9033 14.0868 17.1012 13.9271 17.2609C13.7673 17.4206 13.5694 17.5005 13.3333 17.5005C13.0972 17.5005 12.8993 17.4206 12.7396 17.2609C12.5798 17.1012 12.5 16.9033 12.5 16.6672V13.3338C12.5 13.0977 12.5798 12.8998 12.7396 12.7401C12.8993 12.5803 13.0972 12.5005 13.3333 12.5005H16.6667C16.9028 12.5005 17.1007 12.5803 17.2604 12.7401C17.4201 12.8998 17.5 13.0977 17.5 13.3338C17.5 13.5699 17.4201 13.7678 17.2604 13.9276C17.1007 14.0873 16.9028 14.1672 16.6667 14.1672H15.3333L17.3333 16.1672C17.4861 16.3199 17.5625 16.5144 17.5625 16.7505C17.5625 16.9866 17.4861 17.181 17.3333 17.3338C17.1805 17.4866 16.9861 17.563 16.75 17.563C16.5139 17.563 16.3194 17.4866 16.1667 17.3338L14.1667 15.3338ZM4.66665 5.83382L2.66665 3.83382C2.51387 3.68104 2.43748 3.4866 2.43748 3.25049C2.43748 3.01438 2.51387 2.81993 2.66665 2.66715C2.81943 2.51438 3.01387 2.43799 3.24998 2.43799C3.4861 2.43799 3.68054 2.51438 3.83332 2.66715L5.83332 4.66715V3.33382C5.83332 3.09771 5.91318 2.89979 6.0729 2.74007C6.23262 2.58035 6.43054 2.50049 6.66665 2.50049C6.90276 2.50049 7.10068 2.58035 7.2604 2.74007C7.42012 2.89979 7.49998 3.09771 7.49998 3.33382V6.66716C7.49998 6.90327 7.42012 7.10118 7.2604 7.2609C7.10068 7.42063 6.90276 7.50049 6.66665 7.50049H3.33332C3.09721 7.50049 2.89929 7.42063 2.73957 7.2609C2.57985 7.10118 2.49998 6.90327 2.49998 6.66716C2.49998 6.43104 2.57985 6.23313 2.73957 6.07341C2.89929 5.91368 3.09721 5.83382 3.33332 5.83382H4.66665ZM15.3333 5.83382H16.6667C16.9028 5.83382 17.1007 5.91368 17.2604 6.07341C17.4201 6.23313 17.5 6.43104 17.5 6.66716C17.5 6.90327 17.4201 7.10118 17.2604 7.2609C17.1007 7.42063 16.9028 7.50049 16.6667 7.50049H13.3333C13.0972 7.50049 12.8993 7.42063 12.7396 7.2609C12.5798 7.10118 12.5 6.90327 12.5 6.66716V3.33382C12.5 3.09771 12.5798 2.89979 12.7396 2.74007C12.8993 2.58035 13.0972 2.50049 13.3333 2.50049C13.5694 2.50049 13.7673 2.58035 13.9271 2.74007C14.0868 2.89979 14.1667 3.09771 14.1667 3.33382V4.66715L16.1667 2.66715C16.3194 2.51438 16.5139 2.43799 16.75 2.43799C16.9861 2.43799 17.1805 2.51438 17.3333 2.66715C17.4861 2.81993 17.5625 3.01438 17.5625 3.25049C17.5625 3.4866 17.4861 3.68104 17.3333 3.83382L15.3333 5.83382Z" />
</svg>
