<svg xmlns="http://www.w3.org/2000/svg" width="20" height="20" viewBox="0 0 20 20">
    <path fill-rule="evenodd" clip-rule="evenodd"
        d="M8.33317 1.6665C6.49222 1.6665 4.99984 3.15889 4.99984 4.99984H4.1665C2.78579 4.99984 1.6665 6.11913 1.6665 7.49984V15.8332C1.6665 17.2139 2.78579 18.3332 4.1665 18.3332H12.4998C13.8806 18.3332 14.9998 17.2139 14.9998 15.8332V14.9998C16.8408 14.9998 18.3332 13.5075 18.3332 11.6665V4.99984C18.3332 3.15889 16.8408 1.6665 14.9998 1.6665H8.33317ZM14.9998 13.3332C15.9203 13.3332 16.6665 12.587 16.6665 11.6665V4.99984C16.6665 4.07936 15.9203 3.33317 14.9998 3.33317H8.33317C7.4127 3.33317 6.6665 4.07936 6.6665 4.99984H12.4998C13.8806 4.99984 14.9998 6.11913 14.9998 7.49984V13.3332Z"
    />
</svg>
