<svg width="16" height="16" viewBox="0 0 16 16" fill="none" xmlns="http://www.w3.org/2000/svg">
<g id="link">
<g id="Vector">
<path d="M3.4987 4.66663H6.66536C7.03355 4.66663 7.33203 4.9651 7.33203 5.33329C7.33203 5.70148 7.03355 5.99996 6.66536 5.99996H3.49986C3.28107 6.00085 3.07007 6.089 2.91322 6.24751C2.75612 6.40626 2.66626 6.62277 2.66536 6.85021V9.14984C2.66616 9.37728 2.75598 9.59381 2.91307 9.75255C3.06991 9.91105 3.28092 9.99916 3.49969 9.99996H6.66536C7.03355 9.99996 7.33203 10.2984 7.33203 10.6666C7.33203 11.0348 7.03355 11.3333 6.66536 11.3333H3.4987L3.49691 11.3333C2.92096 11.3317 2.37045 11.0998 1.96534 10.6904C1.56045 10.2813 1.33355 9.72824 1.33203 9.15259L1.33203 9.15084V6.84711C1.33373 6.27157 1.56068 5.71872 1.96548 5.30965C2.37052 4.90035 2.92085 4.66837 3.49669 4.66663L3.4987 4.66663Z" fill="#151A16"/>
<path d="M8.66536 5.33329C8.66536 4.9651 8.96384 4.66663 9.33203 4.66663H12.5007C13.0765 4.66836 13.6269 4.90035 14.0319 5.30965C14.4367 5.71872 14.6637 6.27158 14.6654 6.84711L14.6654 6.84908L14.6654 9.15084L14.6654 9.15259C14.6638 9.72824 14.4369 10.2813 14.0321 10.6904C13.6269 11.0998 13.0764 11.3317 12.5005 11.3333L12.4987 11.3333H9.33203C8.96384 11.3333 8.66536 11.0348 8.66536 10.6666C8.66536 10.2984 8.96384 9.99996 9.33203 9.99996H12.4977C12.7165 9.99916 12.9275 9.91105 13.0843 9.75255C13.2414 9.5938 13.3312 9.37726 13.332 9.14981V6.85022C13.3311 6.62277 13.2413 6.40626 13.0842 6.24751C12.9273 6.089 12.7163 6.00085 12.4975 5.99996H9.33203C8.96384 5.99996 8.66536 5.70148 8.66536 5.33329Z" fill="#151A16"/>
<path d="M5.12915 7.33329C4.76096 7.33329 4.46248 7.63177 4.46248 7.99996C4.46248 8.36815 4.76096 8.66663 5.12915 8.66663H10.8683C11.2365 8.66663 11.5349 8.36815 11.5349 7.99996C11.5349 7.63177 11.2365 7.33329 10.8683 7.33329H5.12915Z" fill="#151A16"/>
</g>
</g>
</svg>
