<svg width="14" height="14" viewBox="0 0 14 14" fill="none" xmlns="http://www.w3.org/2000/svg">
<path d="M1.80163 8.27811C1.86829 8.53366 1.94885 8.77811 2.04329 9.01144C2.13774 9.24477 2.24607 9.467 2.36829 9.67811C2.46829 9.84477 2.50718 10.0226 2.48496 10.2114C2.46274 10.4003 2.39052 10.5559 2.26829 10.6781C2.14607 10.8003 1.99329 10.8587 1.80996 10.8531C1.62663 10.8476 1.48496 10.767 1.38496 10.6114C1.15163 10.2559 0.954404 9.88922 0.793293 9.51144C0.632182 9.13366 0.507182 8.73366 0.418293 8.31144C0.373849 8.13366 0.40996 7.97255 0.526626 7.82811C0.643293 7.68366 0.796071 7.61144 0.98496 7.61144C1.17385 7.61144 1.34329 7.67255 1.49329 7.79477C1.64329 7.917 1.74607 8.07811 1.80163 8.27811ZM2.36829 4.21144C2.24607 4.42255 2.13774 4.64477 2.04329 4.87811C1.94885 5.11144 1.86829 5.35589 1.80163 5.61144C1.74607 5.81144 1.64329 5.97255 1.49329 6.09477C1.34329 6.217 1.17385 6.27811 0.98496 6.27811C0.796071 6.27811 0.643293 6.21144 0.526626 6.07811C0.40996 5.94477 0.373849 5.78922 0.418293 5.61144C0.507182 5.17811 0.63496 4.76144 0.801627 4.36144C0.968293 3.96144 1.16829 3.59477 1.40163 3.26144C1.50163 3.117 1.64052 3.042 1.81829 3.03644C1.99607 3.03089 2.14607 3.08922 2.26829 3.21144C2.39052 3.33366 2.46274 3.48922 2.48496 3.67811C2.50718 3.867 2.46829 4.04477 2.36829 4.21144ZM4.21829 11.5114C4.44052 11.6448 4.66829 11.7614 4.90163 11.8614C5.13496 11.9614 5.37385 12.0448 5.61829 12.1114C5.80718 12.167 5.96274 12.267 6.08496 12.4114C6.20718 12.5559 6.26829 12.7226 6.26829 12.9114C6.26829 13.1003 6.20163 13.2503 6.06829 13.3614C5.93496 13.4726 5.7794 13.5114 5.60163 13.4781C5.19052 13.3892 4.79329 13.267 4.40996 13.1114C4.02663 12.9559 3.65718 12.7614 3.30163 12.5281C3.14607 12.4281 3.05996 12.2864 3.04329 12.1031C3.02663 11.9198 3.0794 11.7614 3.20163 11.6281C3.33496 11.4948 3.49607 11.417 3.68496 11.3948C3.87385 11.3726 4.05163 11.4114 4.21829 11.5114ZM5.65163 1.77811C5.40718 1.84477 5.17107 1.92533 4.94329 2.01977C4.71552 2.11422 4.49052 2.22811 4.26829 2.36144C4.09052 2.46144 3.9044 2.50311 3.70996 2.48644C3.51552 2.46977 3.35163 2.39477 3.21829 2.26144C3.08496 2.12811 3.02385 1.97255 3.03496 1.79477C3.04607 1.617 3.1294 1.47811 3.28496 1.37811C3.65163 1.14477 4.03218 0.947552 4.42663 0.786441C4.82107 0.62533 5.2294 0.50033 5.65163 0.411441C5.81829 0.378107 5.96829 0.416996 6.10163 0.528107C6.23496 0.639219 6.30163 0.789219 6.30163 0.978107C6.30163 1.167 6.24052 1.33366 6.11829 1.47811C5.99607 1.62255 5.84052 1.72255 5.65163 1.77811ZM6.96829 8.94477C6.41274 8.94477 5.94052 8.75033 5.55163 8.36144C5.16274 7.97255 4.96829 7.50033 4.96829 6.94477C4.96829 6.38922 5.16274 5.917 5.55163 5.52811C5.94052 5.13922 6.41274 4.94477 6.96829 4.94477C7.52385 4.94477 7.99607 5.13922 8.38496 5.52811C8.77385 5.917 8.96829 6.38922 8.96829 6.94477C8.96829 7.50033 8.77385 7.97255 8.38496 8.36144C7.99607 8.75033 7.52385 8.94477 6.96829 8.94477ZM9.68496 11.5281C9.85163 11.4281 10.0322 11.3864 10.2266 11.4031C10.4211 11.4198 10.585 11.4948 10.7183 11.6281C10.8516 11.7614 10.9127 11.9198 10.9016 12.1031C10.8905 12.2864 10.8072 12.4226 10.6516 12.5114C10.2961 12.7448 9.91829 12.942 9.51829 13.1031C9.11829 13.2642 8.70718 13.3892 8.28496 13.4781C8.10718 13.5114 7.94885 13.4726 7.80996 13.3614C7.67107 13.2503 7.60163 13.1003 7.60163 12.9114C7.60163 12.7226 7.66552 12.5559 7.79329 12.4114C7.92107 12.267 8.0794 12.167 8.26829 12.1114C8.52385 12.0448 8.76829 11.9642 9.00163 11.8698C9.23496 11.7753 9.46274 11.6614 9.68496 11.5281ZM8.28496 1.77811C8.09607 1.72255 7.94052 1.62255 7.81829 1.47811C7.69607 1.33366 7.63496 1.167 7.63496 0.978107C7.63496 0.789219 7.70163 0.639219 7.83496 0.528107C7.96829 0.416996 8.11829 0.378107 8.28496 0.411441C8.70718 0.50033 9.11829 0.62533 9.51829 0.786441C9.91829 0.947552 10.2961 1.14477 10.6516 1.37811C10.8072 1.47811 10.8905 1.617 10.9016 1.79477C10.9127 1.97255 10.8572 2.12811 10.735 2.26144C10.6016 2.39477 10.4405 2.47255 10.2516 2.49477C10.0627 2.517 9.8794 2.47811 9.70163 2.37811C9.46829 2.24477 9.23496 2.12811 9.00163 2.02811C8.76829 1.92811 8.5294 1.84477 8.28496 1.77811ZM12.135 8.26144C12.1905 8.07255 12.2933 7.917 12.4433 7.79477C12.5933 7.67255 12.7627 7.61144 12.9516 7.61144C13.1405 7.61144 13.2933 7.68366 13.41 7.82811C13.5266 7.97255 13.5627 8.13366 13.5183 8.31144C13.4294 8.73366 13.2988 9.13922 13.1266 9.52811C12.9544 9.917 12.7572 10.2781 12.535 10.6114C12.435 10.7559 12.2961 10.8337 12.1183 10.8448C11.9405 10.8559 11.7905 10.8003 11.6683 10.6781C11.5461 10.5559 11.4738 10.3976 11.4516 10.2031C11.4294 10.0087 11.4683 9.82811 11.5683 9.66144C11.6905 9.43922 11.7989 9.21422 11.8933 8.98644C11.9877 8.75866 12.0683 8.517 12.135 8.26144ZM11.5683 4.21144C11.4683 4.04477 11.4294 3.867 11.4516 3.67811C11.4738 3.48922 11.5461 3.33366 11.6683 3.21144C11.7905 3.08922 11.9405 3.03366 12.1183 3.04477C12.2961 3.05589 12.435 3.13366 12.535 3.27811C12.7794 3.63366 12.985 4.00589 13.1516 4.39477C13.3183 4.78366 13.4461 5.18922 13.535 5.61144C13.5683 5.78922 13.5266 5.94477 13.41 6.07811C13.2933 6.21144 13.1405 6.27811 12.9516 6.27811C12.7627 6.27811 12.5933 6.217 12.4433 6.09477C12.2933 5.97255 12.1905 5.81144 12.135 5.61144C12.0683 5.35589 11.9877 5.11144 11.8933 4.87811C11.7989 4.64477 11.6905 4.42255 11.5683 4.21144Z" fill="#6D3F09"/>
</svg>
