<svg width="56" height="56" viewBox="0 0 56 56" fill="none" xmlns="http://www.w3.org/2000/svg">
<path d="M28 4.66663C21.8116 4.66663 15.8766 7.12495 11.5008 11.5008C7.12495 15.8766 4.66663 21.8116 4.66663 28C4.66663 34.1883 7.12495 40.1233 11.5008 44.4991C15.8766 48.875 21.8116 51.3333 28 51.3333C34.1883 51.3333 40.1233 48.875 44.4991 44.4991C48.875 40.1233 51.3333 34.1883 51.3333 28C51.3333 21.8116 48.875 15.8766 44.4991 11.5008C40.1233 7.12495 34.1883 4.66663 28 4.66663ZM34.65 15.0461C35.1827 15.0461 35.7213 15.2502 36.1452 15.6586L41.7102 21.2236C45.7041 25.1883 45.7625 31.6263 41.9144 35.7077C41.8925 35.7516 41.8628 35.7911 41.8269 35.8244L41.7686 35.8827L41.7102 35.9411C41.6811 35.9702 41.6227 35.9994 41.5936 36.0286C37.5141 39.8747 31.0741 39.8163 27.0822 35.8244L21.5152 30.2575C21.3215 30.0674 21.1676 29.8406 21.0626 29.5904C20.9575 29.3402 20.9034 29.0715 20.9034 28.8001C20.9034 28.5287 20.9575 28.26 21.0626 28.0098C21.1676 27.7596 21.3215 27.5328 21.5152 27.3427C21.7053 27.1487 21.9322 26.9946 22.1826 26.8894C22.4331 26.7841 22.7019 26.7299 22.9736 26.7299C23.2452 26.7299 23.5141 26.7841 23.7645 26.8894C24.0149 26.9946 24.2418 27.1487 24.4319 27.3427L29.995 32.9097C31.163 34.08 32.7454 34.7425 34.3988 34.7534C36.0522 34.7643 37.6432 34.1228 38.8266 32.968C39.9743 31.7813 40.611 30.192 40.6001 28.5412C40.5892 26.8904 39.9315 25.3097 38.7683 24.1383L33.2013 18.5733C33.0073 18.3832 32.8532 18.1563 32.748 17.9059C32.6427 17.6555 32.5885 17.3866 32.5885 17.115C32.5885 16.8433 32.6427 16.5744 32.748 16.324C32.8532 16.0736 33.0073 15.8467 33.2013 15.6566C33.5961 15.2502 34.1172 15.0461 34.65 15.0461ZM21.6961 17.1052C24.4092 17.1343 27.0027 18.2262 28.9197 20.1463L34.4866 25.7113C35.3033 26.528 35.3033 27.8113 34.4866 28.628C33.67 29.4427 32.3866 29.4427 31.57 28.628L26.0069 23.0611C24.829 21.8941 23.2395 21.2371 21.5815 21.2316C19.9234 21.2261 18.3297 21.8727 17.1441 23.0319C15.9966 24.2182 15.36 25.8072 15.3709 27.4577C15.3818 29.1082 16.0394 30.6886 17.2025 31.8597L22.7694 37.4266C23.5861 38.2433 23.5861 39.5266 22.7694 40.3413C22.5793 40.5351 22.3526 40.6889 22.1023 40.794C21.8521 40.899 21.5834 40.9532 21.312 40.9532C21.0407 40.9532 20.772 40.899 20.5218 40.794C20.2715 40.6889 20.0447 40.5351 19.8547 40.3413L14.2916 34.7744C10.2977 30.7825 10.2394 24.3425 14.0875 20.263C14.1166 20.2047 14.1458 20.1755 14.175 20.1463L14.2333 20.088L14.2916 20.0297C14.3208 20.0005 14.3791 19.9713 14.4083 19.9422C16.3764 18.0848 18.9902 17.0686 21.6961 17.1052Z" fill="#646F68"/>
</svg>
