<svg width="56" height="56" viewBox="0 0 56 56" fill="none" xmlns="http://www.w3.org/2000/svg">
<path d="M27.999 4.66663C26.2664 4.66663 24.5395 4.89996 22.8654 5.35692L13.0324 8.06557C11.9728 8.3566 11.0359 8.99968 10.3671 9.89511C9.69828 10.7905 9.33488 11.8883 9.33325 13.0182V30.7421C9.33226 33.2874 9.94416 35.7932 11.1141 38.035C12.2841 40.2768 13.9756 42.1845 16.0371 43.5873L26.7892 50.9083C27.2004 51.1881 27.683 51.336 28.1758 51.3333C28.6687 51.3305 29.1497 51.1772 29.5579 50.8927L40.0741 43.597C42.1033 42.1855 43.7654 40.2827 44.9148 38.0554C46.0641 35.8281 46.6656 33.3443 46.6666 30.8218V13.0182C46.6655 11.8879 46.3021 10.7896 45.6328 9.89401C44.9635 8.99841 44.0259 8.35564 42.9655 8.06557L33.1325 5.35692C31.4576 4.89858 29.732 4.66654 27.999 4.66663ZM19.2852 15.1668H36.7015C38.0717 15.1668 39.1927 16.3218 39.1927 17.7335C39.1927 19.1608 38.0849 20.3002 36.7015 20.3002H19.2852C17.9131 20.3002 16.7939 19.1472 16.7939 17.7335C16.7939 16.3218 17.9131 15.1668 19.2852 15.1668ZM19.2795 22.8611H25.5058C26.8779 22.8611 27.9971 24.0181 27.9971 25.4278C27.9971 26.1079 27.7351 26.7601 27.2687 27.2414C26.8024 27.7226 26.1697 27.9935 25.5096 27.9945H19.2795C17.9093 27.9945 16.7882 26.8434 16.7882 25.4278C16.7882 24.0181 17.9093 22.8611 19.2795 22.8611ZM19.2795 30.5612C20.6516 30.5612 21.7708 31.7143 21.7708 33.128C21.7708 34.5416 20.6648 35.6908 19.2795 35.6908C17.9093 35.6908 16.7882 34.5396 16.7882 33.128C16.7882 31.7143 17.9093 30.5612 19.2795 30.5612Z" fill="#646F68"/>
</svg>
