<svg width="56" height="56" viewBox="0 0 56 56" fill="none" xmlns="http://www.w3.org/2000/svg">
<path fill-rule="evenodd" clip-rule="evenodd" d="M28 21.5833C31.2354 21.5833 33.8583 24.1949 33.8584 27.4166C33.8584 30.6382 31.2355 33.25 28 33.25C24.7645 33.2499 22.1416 30.6382 22.1416 27.4166C22.1417 24.195 24.7645 21.5833 28 21.5833ZM28 25.0833C26.7058 25.0833 25.6567 26.128 25.6567 27.4166C25.6567 28.7052 26.7058 29.7499 28 29.75C29.2942 29.75 30.3434 28.7052 30.3434 27.4166C30.3433 26.1279 29.2941 25.0833 28 25.0833Z" fill="#646F68"/>
<path fill-rule="evenodd" clip-rule="evenodd" d="M28 4.66663C34.4709 4.66664 39.7167 9.89006 39.7167 16.3333C39.7167 16.5244 39.712 16.7144 39.7029 16.9032C44.1419 18.3833 47.4222 22.5911 46.5153 27.682C45.1802 35.1742 42.339 41.0181 38.9784 45.0255C35.6648 48.9768 31.6654 51.3333 28 51.3333C24.3347 51.3333 20.3353 48.9768 17.0217 45.0255C13.661 41.0181 10.8199 35.1743 9.4848 27.6821C8.57784 22.5911 11.8581 18.3833 16.2971 16.9032C16.288 16.7144 16.2833 16.5244 16.2833 16.3333C16.2833 9.89005 21.5292 4.66663 28 4.66663ZM28 38.5C24.5754 38.5 21.6241 40.518 20.28 43.4248C23.0717 46.5027 25.9283 47.8333 28 47.8333C30.0718 47.8333 32.9283 46.5026 35.72 43.4247C34.376 40.5179 31.4247 38.5 28 38.5ZM19.7983 19.8333C15.4821 19.8333 12.2712 23.2839 12.9458 27.0706L12.9752 27.2337C13.9677 32.6888 15.8011 37.0872 17.9585 40.3963C20.1053 37.1457 23.8011 35 28 35C32.1991 35 35.8948 37.1457 38.0415 40.3963C40.2204 37.0542 42.0688 32.6012 43.0543 27.0706C43.7288 23.2839 40.518 19.8333 36.2018 19.8333H19.7983ZM28 8.16663C23.4704 8.16663 19.7983 11.8229 19.7983 16.3333H36.2017C36.2017 11.8229 32.5297 8.16664 28 8.16663Z" fill="#646F68"/>
</svg>
