<svg width="56" height="56" viewBox="0 0 56 56" fill="none" xmlns="http://www.w3.org/2000/svg">
<path d="M18.1941 7.00313C17.5398 7.01971 16.9 7.20218 16.3333 7.53385C14.453 8.63331 13.8084 11.0681 14.894 12.9724L21.1905 24.019H8.59732C6.42615 24.019 4.66663 25.8012 4.66663 27.9999C4.66663 30.1988 6.42635 31.9808 8.59732 31.9808H21.1905L14.894 43.0274C13.8084 44.9317 14.453 47.3665 16.3333 48.4659C18.2136 49.5652 20.6177 48.9124 21.7033 47.0081L28 35.9657L34.2967 47.0083C35.3822 48.9126 37.7863 49.5654 39.6666 48.4661C41.5469 47.3667 42.1915 44.9319 41.1059 43.0276L34.8094 31.981H47.4026C49.5738 31.9808 51.3333 30.1986 51.3333 27.9999C51.3333 25.801 49.5736 24.019 47.4026 24.019H34.8094L41.1059 12.9724C42.1915 11.0681 41.5469 8.63331 39.6666 7.53385C37.7863 6.4346 35.3822 7.08742 34.2967 8.99172L28 20.0341L21.7033 8.99172C20.9572 7.68254 19.5883 6.9665 18.1941 7.00313ZM37.5588 8.98384C37.9345 8.95883 38.3226 9.04627 38.6829 9.25698C39.6443 9.81902 39.9595 11.003 39.4045 11.9764L31.4066 26.0076H47.4026C48.5127 26.0076 49.3698 26.8756 49.3698 27.9999C49.3698 29.1242 48.5127 29.9922 47.4026 29.9922H33.6777L31.4066 26.0076L29.1355 22.0227L35.9982 9.98779C36.3449 9.37947 36.9329 9.02579 37.5588 8.98384ZM18.2435 8.99172C18.941 8.97341 19.6204 9.31862 20.0019 9.98779L26.8644 22.0227L24.5933 26.0076L22.3222 29.9922H8.59751C7.48743 29.9922 6.63032 29.1242 6.63032 27.9999C6.63032 26.8756 7.48743 26.0076 8.59751 26.0076H24.5933L16.5956 11.9764C16.0407 11.003 16.3558 9.81902 17.317 9.25698C17.5987 9.0904 17.9174 8.99912 18.2435 8.99172ZM23.4616 31.9808H32.5383L39.4045 44.0234C39.9595 44.9968 39.6443 46.1808 38.6831 46.7428C37.7222 47.3045 36.5528 46.9852 35.9978 46.012L28 31.9885L20.0019 46.0118C19.4471 46.9852 18.2777 47.3045 17.317 46.7428C16.3557 46.1808 16.0405 44.9968 16.5954 44.0234L23.4616 31.9808Z" fill="#646F68"/>
</svg>
