<svg width="56" height="56" viewBox="0 0 56 56" fill="none" xmlns="http://www.w3.org/2000/svg">
<path d="M28.0001 4.66663C15.1142 4.66663 4.66675 15.1124 4.66675 27.998C4.66675 40.8855 15.1142 51.3333 28.0001 51.3333C40.8859 51.3333 51.3334 40.8855 51.3334 28C51.3334 15.1124 40.8859 4.66663 28.0001 4.66663ZM26.2598 14.1163H29.7365C30.6776 14.1163 31.154 14.1202 31.5137 14.3031C31.8295 14.4637 32.0862 14.7205 32.2467 15.0366C32.4295 15.3965 32.4315 15.8693 32.4315 16.8109V28.5155C32.4315 28.749 32.4315 28.8696 32.4023 28.9786C32.3752 29.0745 32.3311 29.1648 32.272 29.2451C32.1733 29.3643 32.0596 29.4703 31.9337 29.5603L30.5823 30.6576C30.3626 30.8366 30.2517 30.9261 30.2109 31.0351C30.1761 31.1292 30.1761 31.2327 30.2109 31.3269C30.2498 31.4339 30.3626 31.5234 30.5823 31.7024L31.9337 32.8016C32.1165 32.9495 32.2059 33.0254 32.272 33.1168C32.3304 33.1985 32.3751 33.2861 32.4023 33.3834C32.4317 33.5359 32.4415 33.6915 32.4315 33.8464V39.189C32.4315 40.1306 32.4295 40.6034 32.2467 40.9634C32.0862 41.2794 31.8295 41.5362 31.5137 41.6968C31.154 41.8797 30.6776 41.8836 29.7365 41.8836H26.2598C25.3187 41.8836 24.8481 41.8797 24.4865 41.6968C24.1706 41.5362 23.9139 41.2794 23.7534 40.9634C23.5706 40.6034 23.5687 40.1306 23.5687 39.189V27.4844C23.5687 27.2509 23.5687 27.1303 23.5979 27.0213C23.6249 26.9242 23.669 26.8326 23.7281 26.7509C23.7942 26.6595 23.8837 26.5894 24.0665 26.4396L25.4179 25.3423C25.6376 25.1633 25.7484 25.0738 25.7892 24.9649C25.8241 24.8707 25.8241 24.7672 25.7892 24.673C25.7504 24.566 25.6376 24.4765 25.4179 24.2975L24.0665 23.1983C23.9405 23.1083 23.8268 23.0023 23.7281 22.8831C23.669 22.8014 23.6249 22.7098 23.5979 22.6126C23.5684 22.4615 23.5586 22.3072 23.5687 22.1535V16.8129C23.5687 15.8712 23.5706 15.3984 23.7534 15.0385C23.9139 14.7225 24.1706 14.4656 24.4865 14.305C24.8481 14.1221 25.3187 14.1163 26.2598 14.1163Z" fill="#646F68"/>
</svg>
