<svg width="24" height="24" viewBox="0 0 24 24" fill="none" xmlns="http://www.w3.org/2000/svg">
<path fill-rule="evenodd" clip-rule="evenodd" d="M5 13H19C19.5523 13 20 12.5523 20 12C20 11.4477 19.5523 11 19 11H5C4.44772 11 4 11.4477 4 12C4 12.5523 4.44772 13 5 13Z" fill="#151A16"/>
<mask id="mask0_4909_22609" style="mask-type:luminance" maskUnits="userSpaceOnUse" x="4" y="11" width="16" height="2">
<path fill-rule="evenodd" clip-rule="evenodd" d="M5 13H19C19.5523 13 20 12.5523 20 12C20 11.4477 19.5523 11 19 11H5C4.44772 11 4 11.4477 4 12C4 12.5523 4.44772 13 5 13Z" fill="white"/>
</mask>
<g mask="url(#mask0_4909_22609)">
</g>
</svg>
