<svg width="24" height="24" viewBox="0 0 24 24" fill="none" xmlns="http://www.w3.org/2000/svg">
<path d="M21.44 2.08155C21.06 1.92155 20.62 2.00155 20.32 2.28155L15.84 6.55155C15.68 6.70155 15.49 6.81155 15.28 6.87155C15.08 6.92155 14.87 6.93155 14.67 6.88155L11.3 6.08155C10.52 5.89155 9.69 6.00155 8.98 6.38155L2.55 9.84155C2.21 10.0215 2 10.3715 2 10.7515V21.0415C2 21.6115 2.46 22.0815 3.04 22.0815H21.03C21.6 22.0815 22.07 21.6215 22.07 21.0415V3.03155C22.07 2.62155 21.82 2.24155 21.44 2.08155ZM4.07 16.1815L8.98 13.2315C9.2 13.1015 9.45 13.0315 9.7 13.0315H13.92C14.41 13.0315 14.88 12.9315 15.33 12.7215L20 10.6015V14.2715L14.61 15.7415C14.44 15.7915 14.27 15.8015 14.09 15.7815L10.13 15.3415C9.23 15.2415 8.34 15.5015 7.64 16.0615L4.08 18.9115V16.1715L4.07 16.1815ZM9.96 8.21155C10.23 8.07155 10.54 8.03155 10.83 8.09155L14.2 8.89155C14.74 9.02155 15.31 9.01155 15.84 8.86155C16.37 8.71155 16.86 8.43155 17.27 8.05155L20 5.45155V8.41155L14.5 10.9115C14.32 10.9915 14.12 11.0415 13.92 11.0415H9.7C9.09 11.0415 8.48 11.2115 7.95 11.5215L4.07 13.8515V11.3715L9.96 8.21155ZM5.93 20.0015L8.88 17.6415C9.17 17.4115 9.54 17.3015 9.9 17.3415L13.85 17.7815C14.28 17.8315 14.71 17.8015 15.12 17.6815L19.98 16.3615V20.0115H5.93V20.0015Z" fill="#02BB4D"/>
</svg>
