<svg width="16" height="16" viewBox="0 0 16 16" fill="none" xmlns="http://www.w3.org/2000/svg">
<g id="Icon">
<path id="Subtract" d="M7.53295 13.2332C7.19962 13.1109 6.95239 12.8859 6.79128 12.5582C6.63017 12.2304 6.61073 11.8887 6.73295 11.5332C6.7885 11.3776 6.99684 10.9359 7.35795 10.2082C7.71906 9.48039 8.11906 8.67206 8.55795 7.78317C8.99684 6.89428 9.42462 6.03039 9.84128 5.1915C10.2579 4.35261 10.5552 3.75539 10.7329 3.39984C10.7885 3.31095 10.8552 3.25262 10.9329 3.22484C11.0107 3.19706 11.0996 3.19984 11.1996 3.23317C11.2885 3.2665 11.3552 3.32206 11.3996 3.39984C11.4441 3.47761 11.4552 3.5665 11.4329 3.6665C11.3441 4.05539 11.1885 4.70817 10.9663 5.62484C10.7441 6.5415 10.5135 7.48317 10.2746 8.44984C10.0357 9.4165 9.81906 10.2915 9.62462 11.0748C9.43017 11.8582 9.31073 12.3109 9.26628 12.4332C9.13295 12.7887 8.89962 13.0443 8.56628 13.1998C8.23295 13.3554 7.8885 13.3665 7.53295 13.2332ZM15.2496 6.73317C15.0607 6.92206 14.8385 7.01928 14.5829 7.02484C14.3274 7.03039 14.0996 6.95539 13.8996 6.79984C13.6552 6.61095 13.3996 6.42206 13.1329 6.23317C12.8663 6.04428 12.5885 5.87761 12.2996 5.73317L12.7663 3.7165C13.2218 3.93873 13.6441 4.17206 14.0329 4.4165C14.4218 4.66095 14.8107 4.94428 15.1996 5.2665C15.4329 5.45539 15.5496 5.69706 15.5496 5.9915C15.5496 6.28595 15.4496 6.53317 15.2496 6.73317ZM0.732949 6.73317C0.521838 6.52206 0.424616 6.27206 0.441282 5.98317C0.457949 5.69428 0.577394 5.45539 0.799616 5.2665C1.76628 4.45539 2.86628 3.81928 4.09962 3.35817C5.33295 2.89706 6.63295 2.6665 7.99962 2.6665C8.26628 2.6665 8.52739 2.67762 8.78295 2.69984C9.0385 2.72206 9.29962 2.74984 9.56628 2.78317L8.59962 4.69984C8.46628 4.67761 8.35795 4.6665 8.27462 4.6665H7.99962C6.8885 4.6665 5.83295 4.84984 4.83295 5.2165C3.83295 5.58317 2.91628 6.11095 2.08295 6.79984C1.87184 6.9665 1.64128 7.04428 1.39128 7.03317C1.14128 7.02206 0.921838 6.92206 0.732949 6.73317ZM12.4163 9.58317C12.2607 9.74984 12.0774 9.83873 11.8663 9.84984C11.6552 9.86095 11.4718 9.83317 11.3163 9.7665L11.8163 7.74984C11.9163 7.80539 12.0052 7.86095 12.0829 7.9165C12.1607 7.97206 12.2441 8.02761 12.3329 8.08317C12.5774 8.24984 12.7052 8.48595 12.7163 8.7915C12.7274 9.09706 12.6274 9.36095 12.4163 9.58317ZM3.58295 9.58317C3.36073 9.36095 3.2635 9.09984 3.29128 8.79984C3.31906 8.49984 3.44406 8.26095 3.66628 8.08317C4.23295 7.66095 4.84128 7.33317 5.49128 7.09984C6.14128 6.8665 6.84962 6.72761 7.61628 6.68317L6.53295 8.88317C6.25517 8.97206 5.97184 9.08595 5.68295 9.22484C5.39406 9.36373 5.13295 9.51095 4.89962 9.6665C4.66628 9.82206 4.43295 9.8915 4.19962 9.87484C3.96628 9.85817 3.76073 9.76095 3.58295 9.58317Z" fill="#73707B"/>
</g>
</svg>
