<svg xmlns="http://www.w3.org/2000/svg" width="20" height="20" viewBox="0 0 20 20" fill="none">
    <path d="M15.8333 15.8333H4.16667V4.16667H9.16667C9.6269 4.16667 10 3.79357 10 3.33333C10 2.8731 9.6269 2.5 9.16667 2.5H4.16667C3.24167 2.5 2.5 3.25 2.5 4.16667V15.8333C2.5 16.75 3.24167 17.5 4.16667 17.5H15.8333C16.75 17.5 17.5 16.75 17.5 15.8333V10.8333C17.5 10.3731 17.1269 10 16.6667 10C16.2064 10 15.8333 10.3731 15.8333 10.8333V15.8333ZM12.5 2.5C12.0398 2.5 11.6667 2.8731 11.6667 3.33333C11.6667 3.79357 12.0398 4.16667 12.5 4.16667H14.6583L7.05417 11.7708C6.7297 12.0953 6.7297 12.6214 7.05417 12.9458C7.37863 13.2703 7.9047 13.2703 8.22917 12.9458L15.8333 5.34167V7.5C15.8333 7.96024 16.2064 8.33333 16.6667 8.33333C17.1269 8.33333 17.5 7.96024 17.5 7.5V2.5H12.5Z" fill="#0AAB45"/>
</svg>
