<svg width="24" height="24" viewBox="0 0 24 24" xmlns="http://www.w3.org/2000/svg">
<path fill-rule="evenodd" clip-rule="evenodd" d="M8 2C6.34315 2 5 3.34315 5 5C5 6.65685 6.34315 8 8 8H11V12H7C5.34315 12 4 13.3431 4 15V16.1707C2.83481 16.5825 2 17.6938 2 19C2 20.6569 3.34315 22 5 22C6.65685 22 8 20.6569 8 19C8 17.6938 7.16519 16.5825 6 16.1707V15C6 14.4477 6.44772 14 7 14H11V16.1707C9.83481 16.5825 9 17.6938 9 19C9 20.6569 10.3431 22 12 22C13.6569 22 15 20.6569 15 19C15 17.6938 14.1652 16.5825 13 16.1707V14H17C17.5523 14 18 14.4477 18 15V16.1707C16.8348 16.5825 16 17.6938 16 19C16 20.6569 17.3431 22 19 22C20.6569 22 22 20.6569 22 19C22 17.6938 21.1652 16.5825 20 16.1707V15C20 13.3431 18.6569 12 17 12H13V8H16C17.6569 8 19 6.65685 19 5C19 3.34315 17.6569 2 16 2H8ZM4 19C4 18.4477 4.44772 18 5 18C5.55228 18 6 18.4477 6 19C6 19.5523 5.55228 20 5 20C4.44772 20 4 19.5523 4 19ZM18 19C18 18.4477 18.4477 18 19 18C19.5523 18 20 18.4477 20 19C20 19.5523 19.5523 20 19 20C18.4477 20 18 19.5523 18 19ZM7 5C7 5.55228 7.44772 6 8 6H16C16.5523 6 17 5.55228 17 5C17 4.44772 16.5523 4 16 4H8C7.44772 4 7 4.44772 7 5ZM11 19C11 18.4477 11.4477 18 12 18C12.5523 18 13 18.4477 13 19C13 19.5523 12.5523 20 12 20C11.4477 20 11 19.5523 11 19Z"/>
</svg>
