<svg width="24" height="24" fill="none" xmlns="http://www.w3.org/2000/svg">
  <path fill-rule="evenodd" clip-rule="evenodd" d="M4.5 2A2.5 2.5 0 0 0 2 4.5v3A2.5 2.5 0 0 0 4.5 10h3A2.5 2.5 0 0 0 10 7.5v-3A2.5 2.5 0 0 0 7.5 2h-3ZM4 4.5a.5.5 0 0 1 .5-.5h3a.5.5 0 0 1 .5.5v3a.5.5 0 0 1-.5.5h-3a.5.5 0 0 1-.5-.5v-3ZM14.175 19.825C14.958 20.608 15.9 21 17 21c.367 0 .72-.046 1.063-.137.341-.092.662-.23.962-.413L21.4 22.8c.1.083.208.15.325.2.117.05.242.075.375.075a1.034 1.034 0 0 0 .7-.275c.1-.1.175-.208.225-.325a.942.942 0 0 0 .075-.375c0-.133-.025-.263-.075-.388a.773.773 0 0 0-.225-.312l-2.375-2.35A3.853 3.853 0 0 0 21 17c0-1.1-.392-2.042-1.175-2.825C19.042 13.392 18.1 13 17 13s-2.042.392-2.825 1.175C13.392 14.958 13 15.9 13 17s.392 2.042 1.175 2.825Zm4.238-1.412A1.926 1.926 0 0 1 17 19c-.55 0-1.02-.196-1.412-.587A1.926 1.926 0 0 1 15 17c0-.55.196-1.02.588-1.412A1.926 1.926 0 0 1 17 15c.55 0 1.02.196 1.413.588.391.391.587.862.587 1.412 0 .55-.196 1.02-.587 1.413ZM2 15.5A2.5 2.5 0 0 1 4.5 13h3a2.5 2.5 0 0 1 2.5 2.5v3A2.5 2.5 0 0 1 7.5 21h-3A2.5 2.5 0 0 1 2 18.5v-3Zm2.5-.5a.5.5 0 0 0-.5.5v3a.5.5 0 0 0 .5.5h3a.5.5 0 0 0 .5-.5v-3a.5.5 0 0 0-.5-.5h-3ZM15.5 2A2.5 2.5 0 0 0 13 4.5v3a2.5 2.5 0 0 0 2.5 2.5h3A2.5 2.5 0 0 0 21 7.5v-3A2.5 2.5 0 0 0 18.5 2h-3ZM15 4.5a.5.5 0 0 1 .5-.5h3a.5.5 0 0 1 .5.5v3a.5.5 0 0 1-.5.5h-3a.5.5 0 0 1-.5-.5v-3Z" fill="#151A16"/>
</svg>