<svg width="24" height="24" viewBox="0 0 24 24" fill="none" xmlns="http://www.w3.org/2000/svg">
<path d="M16.9521 7.5089C17.0426 7.52001 17.1267 7.56104 17.1912 7.62547C17.2558 7.68997 17.2969 7.77427 17.308 7.8649C17.3192 7.95553 17.2996 8.04727 17.2524 8.12547C16.9142 8.68756 13.9305 13.6418 13.3113 14.2611C12.9419 14.6191 12.4478 14.8193 11.9334 14.8193C11.419 14.8193 10.9249 14.6191 10.5555 14.2611C10.1909 13.8952 9.98615 13.3998 9.98615 12.8832C9.98615 12.3667 10.1909 11.8712 10.5555 11.5054C11.1748 10.8861 16.1291 7.90243 16.692 7.56419C16.7701 7.51726 16.8617 7.4978 16.9521 7.5089Z" fill="#0AAB45"/>
<path fill-rule="evenodd" clip-rule="evenodd" d="M12.1961 2V2.00213C14.7764 2.05536 17.2395 3.10355 19.068 4.93204C20.9427 6.80674 21.9971 9.34877 22 12C22 13.9778 21.4135 15.9112 20.3147 17.5557C19.2159 19.2002 17.6541 20.4819 15.8268 21.2388C13.9996 21.9957 11.9889 22.1937 10.0491 21.8078C8.10929 21.422 6.32746 20.4696 4.92894 19.0711C3.53041 17.6725 2.578 15.8907 2.19215 13.9509C1.8063 12.0111 2.00433 10.0004 2.76121 8.17316C3.51809 6.3459 4.79981 4.78412 6.4443 3.6853C8.08879 2.58649 10.0222 2 12 2H12.1961ZM6.05685 17.3125C7.89787 16.3786 9.9338 15.8913 11.9996 15.8913C14.0654 15.8913 16.1013 16.3786 17.9423 17.3125C18.9428 16.1942 19.6082 14.8154 19.8603 13.3342C20.1208 11.8042 19.9291 10.2315 19.3088 8.80887C18.6885 7.38624 17.6665 6.17555 16.3682 5.32527C15.0698 4.47499 13.5516 4.02208 11.9996 4.02208C10.4476 4.02208 8.92935 4.47499 7.631 5.32527C6.33266 6.17555 5.31067 7.38624 4.69035 8.80887C4.07004 10.2315 3.87837 11.8042 4.13885 13.3342C4.39102 14.8154 5.05637 16.1942 6.05685 17.3125Z" fill="#0AAB45"/>
</svg>
