<svg width="16" height="16" viewBox="0 0 16 16" fill="none" xmlns="http://www.w3.org/2000/svg">
<g id="Icon">
<path id="Union" d="M7.96659 12C8.19992 12 8.39725 11.9193 8.55859 11.758C8.71947 11.5971 8.79992 11.4 8.79992 11.1667C8.79992 10.9333 8.71947 10.7362 8.55859 10.5753C8.39725 10.414 8.19992 10.3333 7.96659 10.3333C7.73325 10.3333 7.53592 10.414 7.37459 10.5753C7.2137 10.7362 7.13325 10.9333 7.13325 11.1667C7.13325 11.4 7.2137 11.5971 7.37459 11.758C7.53592 11.9193 7.73325 12 7.96659 12ZM8.06659 5.13334C8.3777 5.13334 8.6277 5.21934 8.81659 5.39134C9.00547 5.56378 9.09992 5.78889 9.09992 6.06667C9.09992 6.25556 9.03614 6.44711 8.90859 6.64134C8.78059 6.836 8.59992 7.03889 8.36659 7.25C8.03325 7.53889 7.78881 7.81667 7.63325 8.08334C7.4777 8.35 7.39992 8.61667 7.39992 8.88334C7.39992 9.03889 7.45836 9.16934 7.57525 9.27467C7.6917 9.38045 7.8277 9.43334 7.98325 9.43334C8.13881 9.43334 8.2777 9.37778 8.39992 9.26667C8.52214 9.15556 8.59992 9.01667 8.63325 8.85C8.66659 8.66111 8.7417 8.48623 8.85859 8.32534C8.97503 8.164 9.16659 7.95556 9.43325 7.7C9.7777 7.37778 10.0195 7.08334 10.1586 6.81667C10.2973 6.55 10.3666 6.25556 10.3666 5.93334C10.3666 5.36667 10.1528 4.90267 9.72525 4.54134C9.29725 4.18045 8.74436 4 8.06659 4C7.59992 4 7.18614 4.08889 6.82525 4.26667C6.46392 4.44445 6.18325 4.71667 5.98325 5.08334C5.90547 5.22778 5.8777 5.36934 5.89992 5.508C5.92214 5.64711 5.99992 5.76111 6.13325 5.85C6.2777 5.93889 6.43614 5.96667 6.60859 5.93334C6.78059 5.9 6.92214 5.80556 7.03325 5.65C7.15547 5.48334 7.30281 5.35556 7.47525 5.26667C7.64725 5.17778 7.84436 5.13334 8.06659 5.13334ZM7.99992 14.6667C7.08881 14.6667 6.2277 14.4916 5.41659 14.1413C4.60547 13.7916 3.89725 13.3167 3.29192 12.7167C2.68614 12.1167 2.20836 11.4111 1.85859 10.6C1.50836 9.78889 1.33325 8.92222 1.33325 8C1.33325 7.07778 1.50836 6.21111 1.85859 5.4C2.20836 4.58889 2.68614 3.88334 3.29192 3.28334C3.89725 2.68334 4.60547 2.20822 5.41659 1.858C6.2277 1.50822 7.08881 1.33334 7.99992 1.33334C8.93325 1.33334 9.80547 1.50822 10.6166 1.858C11.4277 2.20822 12.1333 2.68334 12.7333 3.28334C13.3333 3.88334 13.8055 4.58889 14.1499 5.4C14.4944 6.21111 14.6666 7.07778 14.6666 8C14.6666 8.92222 14.4944 9.78889 14.1499 10.6C13.8055 11.4111 13.3333 12.1167 12.7333 12.7167C12.1333 13.3167 11.4277 13.7916 10.6166 14.1413C9.80547 14.4916 8.93325 14.6667 7.99992 14.6667Z" fill="#4D564F"/>
</g>
</svg>
