<svg width="14" height="18" viewBox="0 0 14 18" fill="none" xmlns="http://www.w3.org/2000/svg">
<path d="M5.33325 7.33268C5.33325 8.24935 6.08325 8.99935 6.99992 8.99935C7.91659 8.99935 8.66658 8.24935 8.66658 7.33268C8.66658 6.41602 7.91659 5.66602 6.99992 5.66602C6.08325 5.66602 5.33325 6.41602 5.33325 7.33268Z" fill="#19181B"/>
<path fill-rule="evenodd" clip-rule="evenodd" d="M0.333252 7.49935C0.333252 10.1493 2.37492 13.266 6.44992 16.8577C6.76659 17.1327 7.24159 17.1327 7.55825 16.8577C11.6249 13.266 13.6666 10.1493 13.6666 7.49935C13.6666 3.34935 10.4999 0.666016 6.99992 0.666016C3.49992 0.666016 0.333252 3.34935 0.333252 7.49935ZM1.99992 7.49935C1.99992 4.32083 4.36855 2.33268 6.99992 2.33268C9.63129 2.33268 11.9999 4.32083 11.9999 7.49935C11.9999 8.39338 11.6533 9.5191 10.7421 10.9138C9.92008 12.1721 8.68766 13.573 7.00351 15.1153C5.31558 13.5727 4.08125 12.1715 3.25833 10.9132C2.34643 9.51878 1.99992 8.39324 1.99992 7.49935Z" fill="#19181B"/>
</svg>
