<svg width="14" height="14" viewBox="0 0 14 14" fill="none" xmlns="http://www.w3.org/2000/svg">
<path d="M11.7085 2.29159C10.5001 1.08325 8.8418 0.333252 7.00013 0.333252C3.3168 0.333252 0.341797 3.31659 0.341797 6.99992C0.341797 10.6833 3.3168 13.6666 7.00013 13.6666C9.71405 13.6666 12.0341 12.0467 13.0728 9.72197C13.3041 9.20446 12.8894 8.66658 12.3226 8.66658C11.9546 8.66658 11.6333 8.90251 11.4693 9.23184C10.6518 10.8727 8.95759 11.9999 7.00013 11.9999C4.2418 11.9999 2.00013 9.75825 2.00013 6.99992C2.00013 4.24159 4.2418 1.99992 7.00013 1.99992C8.38346 1.99992 9.6168 2.57492 10.5168 3.48325L9.11379 4.88626C8.64132 5.35873 8.97595 6.16658 9.64412 6.16658H12.9168C13.331 6.16658 13.6668 5.8308 13.6668 5.41659V2.14391C13.6668 1.47573 12.8589 1.14111 12.3865 1.61358L11.7085 2.29159Z" fill="#0AAB45"/>
</svg>
