<svg width="32" height="32" viewBox="0 0 32 32" fill="none" xmlns="http://www.w3.org/2000/svg">
<path fill-rule="evenodd" clip-rule="evenodd" d="M9.5 7.5C11.0855 7.5 12.4248 8.55426 12.8551 10H20C23.3137 10 26 12.6863 26 16C26 19.3137 23.3137 22 20 22H18.0938L18.9179 22.8241C19.3084 23.2147 19.3084 23.8478 18.9179 24.2383C18.5274 24.6289 17.8942 24.6289 17.5037 24.2383L14.2653 21L17.5037 17.7616C17.8942 17.3711 18.5274 17.3711 18.9179 17.7616C19.3084 18.1522 19.3084 18.7853 18.9179 19.1759L18.0938 20H20C22.2091 20 24 18.2091 24 16C24 13.7909 22.2091 12 20 12H12.8551C12.4248 13.4457 11.0855 14.5 9.5 14.5C7.567 14.5 6 12.933 6 11C6 9.067 7.567 7.5 9.5 7.5ZM11 11C11 11.8284 10.3284 12.5 9.5 12.5C8.67157 12.5 8 11.8284 8 11C8 10.1716 8.67157 9.5 9.5 9.5C10.3284 9.5 11 10.1716 11 11Z" fill="#0AAB45"/>
<path fill-rule="evenodd" clip-rule="evenodd" d="M13 21C13 22.933 11.433 24.5 9.5 24.5C7.567 24.5 6 22.933 6 21C6 19.067 7.567 17.5 9.5 17.5C11.433 17.5 13 19.067 13 21ZM11 21C11 21.8284 10.3284 22.5 9.5 22.5C8.67157 22.5 8 21.8284 8 21C8 20.1716 8.67157 19.5 9.5 19.5C10.3284 19.5 11 20.1716 11 21Z" fill="#0AAB45"/>
</svg>
