<svg width="16" height="16" viewBox="0 0 16 16" fill="none" xmlns="http://www.w3.org/2000/svg">
<g id="Icon">
<path id="Subtract" d="M4.66667 12.0002C3.95942 12.0002 3.28115 11.7192 2.78105 11.2191C2.28095 10.719 2 10.0407 2 9.3335C2 8.62625 2.28095 7.94798 2.78105 7.44788C3.28115 6.94778 3.95942 6.66683 4.66667 6.66683C5.37391 6.66683 6.05219 6.94778 6.55229 7.44788C7.05238 7.94798 7.33333 8.62625 7.33333 9.3335C7.33333 10.0407 7.05238 10.719 6.55229 11.2191C6.05219 11.7192 5.37391 12.0002 4.66667 12.0002ZM7.33333 6.66683C6.62609 6.66683 5.94781 6.38588 5.44772 5.88578C4.94762 5.38568 4.66667 4.70741 4.66667 4.00016C4.66667 3.29292 4.94762 2.61464 5.44772 2.11454C5.94781 1.61445 6.62609 1.3335 7.33333 1.3335C8.04058 1.3335 8.71885 1.61445 9.21895 2.11454C9.71905 2.61464 10 3.29292 10 4.00016C10 4.70741 9.71905 5.38568 9.21895 5.88578C8.71885 6.38588 8.04058 6.66683 7.33333 6.66683ZM7.33333 2.66683C6.6 2.66683 6 3.26683 6 4.00016C6 4.7335 6.6 5.3335 7.33333 5.3335C8.06667 5.3335 8.66667 4.7335 8.66667 4.00016C8.66667 3.26683 8.06667 2.66683 7.33333 2.66683ZM11.0667 14.4002C10.3594 14.4002 9.68115 14.1192 9.18105 13.6191C8.68095 13.119 8.4 12.4407 8.4 11.7335C8.4 11.0263 8.68095 10.348 9.18105 9.84788C9.68115 9.34778 10.3594 9.06683 11.0667 9.06683C11.7739 9.06683 12.4522 9.34778 12.9523 9.84788C13.4524 10.348 13.7333 11.0263 13.7333 11.7335C13.7333 12.4407 13.4524 13.119 12.9523 13.6191C12.4522 14.1192 11.7739 14.4002 11.0667 14.4002ZM11.0667 10.4002C10.3333 10.4002 9.73333 11.0002 9.73333 11.7335C9.73333 12.4668 10.3333 13.0668 11.0667 13.0668C11.8 13.0668 12.4 12.4668 12.4 11.7335C12.4 11.0002 11.8 10.4002 11.0667 10.4002Z" fill="#73707B"/>
</g>
</svg>
