<svg width="24" height="24" viewBox="0 0 24 24" fill="none" xmlns="http://www.w3.org/2000/svg">
<path d="M10.2998 18.4998C7.09977 18.4998 3.99977 16.5998 2.69977 13.4998C1.79977 11.4998 1.79977 9.19977 2.59977 7.19977C3.39977 5.09977 4.99977 3.49977 6.99977 2.69977C8.99977 1.79977 11.2998 1.79977 13.2998 2.59977C15.3998 3.39977 16.9998 4.99977 17.7998 6.99977C19.5998 11.1998 17.5998 15.9998 13.3998 17.7998C12.3998 18.2998 11.2998 18.4998 10.2998 18.4998ZM10.2998 3.99977C9.39977 3.99977 8.59977 4.19977 7.79977 4.49977C4.59977 5.79977 3.09977 9.49977 4.49977 12.6998C5.79977 15.8998 9.49977 17.3998 12.6998 15.9998C15.8998 14.6998 17.3998 10.9998 15.9998 7.79977C15.2998 6.29977 14.0998 5.09977 12.5998 4.39977C11.7998 4.19977 10.9998 3.99977 10.2998 3.99977Z" fill="#73707B"/>
<path d="M21.0004 21.9997C20.7004 21.9997 20.5004 21.8997 20.3004 21.6997L14.7004 16.0997C14.3004 15.6997 14.3004 15.0997 14.7004 14.6997C15.1004 14.2997 15.7004 14.2997 16.1004 14.6997L21.7004 20.2997C22.1004 20.6997 22.1004 21.2997 21.7004 21.6997C21.5004 21.8997 21.3004 21.9997 21.0004 21.9997Z" fill="#73707B"/>
</svg>
