<svg xmlns="http://www.w3.org/2000/svg" width="20" height="20" fill="none">
    <path fill="#BEE4D2"
        d="M12.5 3.333a.833.833 0 0 1 1.667 0v13.334a.833.833 0 0 1-1.667 0V3.333ZM7.435 11.927 5.977 10.4h4.041a.815.815 0 0 0 0-1.63H5.977l1.458-1.53a.813.813 0 0 0 .233-.58.813.813 0 0 0-.233-.581.73.73 0 0 0-.545-.245.73.73 0 0 0-.544.245L3.547 9.013a.72.72 0 0 0-.165.265.942.942 0 0 0-.049.305c0 .109.017.21.05.306a.72.72 0 0 0 .164.265l2.8 2.935a.73.73 0 0 0 .543.244.73.73 0 0 0 .545-.244.778.778 0 0 0 .223-.581.895.895 0 0 0-.223-.58Z" />
</svg>
