<svg width="24" height="24" viewBox="0 0 24 24" fill="none" xmlns="http://www.w3.org/2000/svg">
<path d="M15.5355 9.87838L9.87867 15.5352C9.67833 15.7356 9.44263 15.8358 9.17157 15.8358C8.90051 15.8358 8.66481 15.7356 8.46446 15.5352C8.26411 15.3349 8.16394 15.0992 8.16394 14.8281C8.16394 14.5571 8.26411 14.3214 8.46446 14.121L14.1213 8.46416C14.3217 8.26382 14.5574 8.16364 14.8284 8.16364C15.0995 8.16364 15.3352 8.26382 15.5355 8.46416C15.7359 8.66451 15.8361 8.90021 15.8361 9.17127C15.8361 9.44233 15.7359 9.67803 15.5355 9.87838Z" fill="#151A16"/>
<path fill-rule="evenodd" clip-rule="evenodd" d="M8.1 21.2125C9.31667 21.7375 10.6167 22 12 22C13.3833 22 14.6833 21.7375 15.9 21.2125C17.1167 20.6875 18.175 19.975 19.075 19.075C19.975 18.175 20.6875 17.1167 21.2125 15.9C21.7375 14.6833 22 13.3833 22 12C22 10.6167 21.7375 9.31667 21.2125 8.1C20.6875 6.88333 19.975 5.825 19.075 4.925C18.175 4.025 17.1167 3.3125 15.9 2.7875C14.6833 2.2625 13.3833 2 12 2C10.6167 2 9.31667 2.2625 8.1 2.7875C6.88333 3.3125 5.825 4.025 4.925 4.925C4.025 5.825 3.3125 6.88333 2.7875 8.1C2.2625 9.31667 2 10.6167 2 12C2 13.3833 2.2625 14.6833 2.7875 15.9C3.3125 17.1167 4.025 18.175 4.925 19.075C5.825 19.975 6.88333 20.6875 8.1 21.2125ZM17.675 17.675C16.125 19.225 14.2333 20 12 20C9.76667 20 7.875 19.225 6.325 17.675C4.775 16.125 4 14.2333 4 12C4 9.76667 4.775 7.875 6.325 6.325C7.875 4.775 9.76667 4 12 4C14.2333 4 16.125 4.775 17.675 6.325C19.225 7.875 20 9.76667 20 12C20 14.2333 19.225 16.125 17.675 17.675Z" fill="#151A16"/>
</svg>
