<svg width="20" height="20" viewBox="0 0 20 20" xmlns="http://www.w3.org/2000/svg">
    <path
        d="M5.37437 4.18211C6.99349 2.56299 7.80306 1.75343 8.73658 1.45011C9.55773 1.1833 10.4423 1.1833 11.2634 1.45011C12.1969 1.75343 13.0065 2.56299 14.6256 4.18211L15.8179 5.37437C17.437 6.99349 18.2466 7.80306 18.5499 8.73658C18.8167 9.55773 18.8167 10.4423 18.5499 11.2634C18.2466 12.1969 17.437 13.0065 15.8179 14.6256L14.6256 15.8179C13.0065 17.437 12.1969 18.2466 11.2634 18.5499C10.4423 18.8167 9.55773 18.8167 8.73658 18.5499C7.80306 18.2466 6.99349 17.437 5.37437 15.8179L4.18211 14.6256C2.56299 13.0065 1.75343 12.1969 1.45011 11.2634C1.1833 10.4423 1.1833 9.55773 1.45011 8.73658C1.75343 7.80306 2.56299 6.99349 4.18211 5.37437L5.37437 4.18211ZM10 11.5909C10.8786 11.5909 11.5909 10.8786 11.5909 10C11.5909 9.12137 10.8786 8.40909 10 8.40909C9.12137 8.40909 8.40909 9.12137 8.40909 10C8.40909 10.8786 9.12137 11.5909 10 11.5909Z" />
</svg>
