<svg xmlns="http://www.w3.org/2000/svg" width="20" height="20" viewBox="0 0 20 20" fill="none">
  <path d="M11.6666 9.99992C11.6666 10.9204 10.9205 11.6666 9.99998 11.6666C9.0795 11.6666 8.33331 10.9204 8.33331 9.99992C8.33331 9.07944 9.0795 8.33325 9.99998 8.33325C10.9205 8.33325 11.6666 9.07944 11.6666 9.99992Z" fill="#646F68"/>
  <path fill-rule="evenodd" clip-rule="evenodd" d="M5.15408 3.90499C6.85031 2.20876 7.69842 1.36065 8.6764 1.04289C9.53665 0.763374 10.4633 0.763374 11.3236 1.04289C12.3015 1.36065 13.1497 2.20876 14.8459 3.90498L16.0949 5.15402C17.7911 6.85025 18.6392 7.69836 18.957 8.67633C19.2365 9.53659 19.2365 10.4632 18.957 11.3235C18.6392 12.3015 17.7911 13.1496 16.0949 14.8458L14.8459 16.0948C13.1497 17.7911 12.3015 18.6392 11.3236 18.9569C10.4633 19.2365 9.53665 19.2365 8.6764 18.9569C7.69842 18.6392 6.85031 17.7911 5.15408 16.0949L3.90505 14.8458C2.20882 13.1496 1.36071 12.3015 1.04295 11.3235C0.763435 10.4632 0.763435 9.53659 1.04295 8.67633C1.36071 7.69836 2.20882 6.85025 3.90505 5.15402L5.15408 3.90499ZM6.33259 5.0835C7.20015 4.21594 7.78086 3.63706 8.26321 3.22758C8.73068 2.83073 8.99502 2.6918 9.19142 2.62798C9.71694 2.45723 10.283 2.45723 10.8085 2.62798C11.0049 2.6918 11.2693 2.83073 11.7367 3.22758C12.2191 3.63706 12.7998 4.21594 13.6674 5.0835L14.9164 6.33253C15.784 7.20009 16.3628 7.7808 16.7723 8.26315C17.1692 8.73062 17.3081 8.99496 17.3719 9.19136C17.5427 9.71688 17.5427 10.283 17.3719 10.8085C17.3081 11.0049 17.1692 11.2692 16.7723 11.7367C16.3628 12.219 15.784 12.7997 14.9164 13.6673L13.6674 14.9163C12.7998 15.7839 12.2191 16.3628 11.7367 16.7723C11.2693 17.1691 11.0049 17.308 10.8085 17.3719C10.283 17.5426 9.71694 17.5426 9.19142 17.3719C8.99502 17.308 8.73068 17.1691 8.26321 16.7723C7.78086 16.3628 7.20015 15.7839 6.3326 14.9163L5.08356 13.6673C4.216 12.7997 3.63713 12.219 3.22764 11.7367C2.83079 11.2692 2.69186 11.0049 2.62804 10.8085C2.45729 10.283 2.45729 9.71688 2.62804 9.19136C2.69186 8.99496 2.83079 8.73062 3.22764 8.26315C3.63713 7.7808 4.216 7.20009 5.08356 6.33253L6.33259 5.0835Z" fill="#646F68"/>
</svg>