<svg width="24" height="24" viewBox="0 0 24 24" fill="none" xmlns="http://www.w3.org/2000/svg">
<path d="M2.275 7.70039L5.875 11.3004C6.09167 11.5171 6.32933 11.6171 6.588 11.6004C6.846 11.5837 7.075 11.4754 7.275 11.2754C7.475 11.0754 7.575 10.8421 7.575 10.5754C7.575 10.3087 7.475 10.0754 7.275 9.87539L5.4 8.00039H20.9844C21.2677 8.00039 21.505 7.90439 21.6964 7.71239C21.8884 7.52106 21.9844 7.28372 21.9844 7.00039C21.9844 6.71706 21.8884 6.47939 21.6964 6.28739C21.505 6.09606 21.2677 6.00039 20.9844 6.00039H5.4L7.275 4.12539C7.475 3.92539 7.575 3.68772 7.575 3.41239C7.575 3.13772 7.475 2.90039 7.275 2.70039C7.075 2.50039 6.84167 2.40039 6.575 2.40039C6.30833 2.40039 6.075 2.50039 5.875 2.70039L2.275 6.30039C2.175 6.40039 2.10433 6.50872 2.063 6.62539C2.021 6.74206 2 6.86706 2 7.00039C2 7.13372 2.021 7.25872 2.063 7.37539C2.10433 7.49206 2.175 7.60039 2.275 7.70039Z" fill="#73707B"/>
<path d="M21.7094 17.7004L18.1094 21.3004C17.8927 21.5171 17.655 21.6171 17.3964 21.6004C17.1384 21.5837 16.9094 21.4754 16.7094 21.2754C16.5094 21.0754 16.4094 20.8421 16.4094 20.5754C16.4094 20.3087 16.5094 20.0754 16.7094 19.8754L18.5844 18.0004H3C2.71667 18.0004 2.47934 17.9044 2.288 17.7124C2.096 17.5211 2 17.2837 2 17.0004C2 16.7171 2.096 16.4794 2.288 16.2874C2.47934 16.0961 2.71667 16.0004 3 16.0004H18.5844L16.7094 14.1254C16.5094 13.9254 16.4094 13.6877 16.4094 13.4124C16.4094 13.1377 16.5094 12.9004 16.7094 12.7004C16.9094 12.5004 17.1427 12.4004 17.4094 12.4004C17.676 12.4004 17.9094 12.5004 18.1094 12.7004L21.7094 16.3004C21.8094 16.4004 21.88 16.5087 21.9214 16.6254C21.9634 16.7421 21.9844 16.8671 21.9844 17.0004C21.9844 17.1337 21.9634 17.2587 21.9214 17.3754C21.88 17.4921 21.8094 17.6004 21.7094 17.7004Z" fill="#73707B"/>
</svg>
