<svg width="16" height="16" viewBox="0 0 16 16" fill="none" xmlns="http://www.w3.org/2000/svg">
<path d="M7.3335 8.13325L6.7335 7.53325C6.61127 7.41103 6.45572 7.34992 6.26683 7.34992C6.07794 7.34992 5.92239 7.41103 5.80016 7.53325C5.67794 7.65547 5.61683 7.81103 5.61683 7.99992C5.61683 8.18881 5.67794 8.34436 5.80016 8.46659L7.5335 10.1999C7.66683 10.3333 7.82239 10.3999 8.00016 10.3999C8.17794 10.3999 8.3335 10.3333 8.46683 10.1999L10.2002 8.46659C10.3224 8.34436 10.3835 8.18881 10.3835 7.99992C10.3835 7.81103 10.3224 7.65547 10.2002 7.53325C10.0779 7.41103 9.92239 7.34992 9.7335 7.34992C9.54461 7.34992 9.38905 7.41103 9.26683 7.53325L8.66683 8.13325V5.99992C8.66683 5.81103 8.60294 5.6527 8.47516 5.52492C8.34739 5.39714 8.18905 5.33325 8.00016 5.33325C7.81127 5.33325 7.65294 5.39714 7.52516 5.52492C7.39739 5.6527 7.3335 5.81103 7.3335 5.99992V8.13325ZM8.00016 14.6666C7.07794 14.6666 6.21127 14.4916 5.40016 14.1416C4.58905 13.7916 3.8835 13.3166 3.2835 12.7166C2.6835 12.1166 2.2085 11.411 1.8585 10.5999C1.5085 9.78881 1.3335 8.92214 1.3335 7.99992C1.3335 7.0777 1.5085 6.21103 1.8585 5.39992C2.2085 4.58881 2.6835 3.88325 3.2835 3.28325C3.8835 2.68325 4.58905 2.20825 5.40016 1.85825C6.21127 1.50825 7.07794 1.33325 8.00016 1.33325C8.92239 1.33325 9.78905 1.50825 10.6002 1.85825C11.4113 2.20825 12.1168 2.68325 12.7168 3.28325C13.3168 3.88325 13.7918 4.58881 14.1418 5.39992C14.4918 6.21103 14.6668 7.0777 14.6668 7.99992C14.6668 8.92214 14.4918 9.78881 14.1418 10.5999C13.7918 11.411 13.3168 12.1166 12.7168 12.7166C12.1168 13.3166 11.4113 13.7916 10.6002 14.1416C9.78905 14.4916 8.92239 14.6666 8.00016 14.6666Z" fill="#DD1D4D"/>
</svg>
