<svg width="14" height="14" viewBox="0 0 14 14" fill="none" xmlns="http://www.w3.org/2000/svg">
<path d="M5.66683 9.66659C5.85572 9.66659 6.01405 9.6027 6.14183 9.47492C6.26961 9.34714 6.3335 9.18881 6.3335 8.99992V4.99992C6.3335 4.81103 6.26961 4.6527 6.14183 4.52492C6.01405 4.39714 5.85572 4.33325 5.66683 4.33325C5.47794 4.33325 5.31961 4.39714 5.19183 4.52492C5.06405 4.6527 5.00016 4.81103 5.00016 4.99992V8.99992C5.00016 9.18881 5.06405 9.34714 5.19183 9.47492C5.31961 9.6027 5.47794 9.66659 5.66683 9.66659ZM8.3335 9.66659C8.52239 9.66659 8.68072 9.6027 8.8085 9.47492C8.93627 9.34714 9.00016 9.18881 9.00016 8.99992V4.99992C9.00016 4.81103 8.93627 4.6527 8.8085 4.52492C8.68072 4.39714 8.52239 4.33325 8.3335 4.33325C8.14461 4.33325 7.98627 4.39714 7.8585 4.52492C7.73072 4.6527 7.66683 4.81103 7.66683 4.99992V8.99992C7.66683 9.18881 7.73072 9.34714 7.8585 9.47492C7.98627 9.6027 8.14461 9.66659 8.3335 9.66659ZM7.00016 13.6666C6.07794 13.6666 5.21127 13.4916 4.40016 13.1416C3.58905 12.7916 2.8835 12.3166 2.2835 11.7166C1.6835 11.1166 1.2085 10.411 0.858496 9.59992C0.508496 8.78881 0.333496 7.92214 0.333496 6.99992C0.333496 6.0777 0.508496 5.21103 0.858496 4.39992C1.2085 3.58881 1.6835 2.88325 2.2835 2.28325C2.8835 1.68325 3.58905 1.20825 4.40016 0.858252C5.21127 0.508252 6.07794 0.333252 7.00016 0.333252C7.92239 0.333252 8.78905 0.508252 9.60016 0.858252C10.4113 1.20825 11.1168 1.68325 11.7168 2.28325C12.3168 2.88325 12.7918 3.58881 13.1418 4.39992C13.4918 5.21103 13.6668 6.0777 13.6668 6.99992C13.6668 7.92214 13.4918 8.78881 13.1418 9.59992C12.7918 10.411 12.3168 11.1166 11.7168 11.7166C11.1168 12.3166 10.4113 12.7916 9.60016 13.1416C8.78905 13.4916 7.92239 13.6666 7.00016 13.6666Z" fill="#73707B"/>
</svg>
