<svg width="24" height="24" viewBox="0 0 24 24" fill="none" xmlns="http://www.w3.org/2000/svg">
<path d="M19.3541 5.04617L20.917 6.60907C21.3298 7.0218 21.9989 7.02181 22.4117 6.60907C22.8244 6.19633 22.8244 5.52716 22.4117 5.11442L18.2973 1L14.1828 5.11442C13.7701 5.52716 13.7701 6.19633 14.1828 6.60907C14.5956 7.02181 15.2648 7.02181 15.6775 6.60907L17.2404 5.04617V13.3093C17.2404 16.9416 14.2958 19.8862 10.6634 19.8862C7.43987 19.8862 4.75719 17.5667 4.1949 14.5056L4.13158 14.1609H2L2.07488 14.6458C2.71805 18.8111 6.31795 22 10.6634 22C15.4632 22 19.3541 18.109 19.3541 13.3093V5.04617Z" fill="#02BB4D"/>
<path d="M10.0899 17.0286L7.17267 14.3483C6.74285 13.9534 6.71455 13.2848 7.10946 12.855C7.50438 12.4252 8.17295 12.3969 8.60277 12.7918L9.96459 14.043L13.2085 10.5172C13.6037 10.0877 14.2723 10.0598 14.7018 10.455C15.1314 10.8502 15.1592 11.5188 14.764 11.9484L10.0899 17.0286Z" fill="#02BB4D"/>
<path d="M5.4113 9.35133L5.62242 9.07175L4.18197 7.50036L3.87515 7.88366C2.94858 9.04118 2.31155 10.4415 2.07488 11.9743L2 12.4592H4.13158L4.1949 12.1145C4.38287 11.0911 4.80784 10.1505 5.4113 9.35133Z" fill="#02BB4D"/>
<path d="M6.8776 7.92053L5.43718 6.34916L5.84546 6.07672C7.05051 5.27262 8.46824 4.76141 9.99596 4.64531C10.6118 4.5985 11.0841 5.10254 11.0841 5.67691C11.0841 6.26925 10.6086 6.7117 10.0658 6.76055C9.01021 6.85555 8.02686 7.19987 7.17447 7.73437L6.8776 7.92053Z" fill="#02BB4D"/>
</svg>
