<svg width="16" height="16" viewBox="0 0 16 16" fill="none" xmlns="http://www.w3.org/2000/svg">
<path d="M7.3335 7.86659V9.99992C7.3335 10.1888 7.39739 10.3471 7.52516 10.4749C7.65294 10.6027 7.81127 10.6666 8.00016 10.6666C8.18905 10.6666 8.34739 10.6027 8.47516 10.4749C8.60294 10.3471 8.66683 10.1888 8.66683 9.99992V7.86659L9.26683 8.46659C9.38905 8.58881 9.54461 8.64992 9.7335 8.64992C9.92239 8.64992 10.0779 8.58881 10.2002 8.46659C10.3224 8.34436 10.3835 8.18881 10.3835 7.99992C10.3835 7.81103 10.3224 7.65547 10.2002 7.53325L8.46683 5.79992C8.3335 5.66659 8.17794 5.59992 8.00016 5.59992C7.82239 5.59992 7.66683 5.66659 7.5335 5.79992L5.80016 7.53325C5.67794 7.65547 5.61683 7.81103 5.61683 7.99992C5.61683 8.18881 5.67794 8.34436 5.80016 8.46659C5.92239 8.58881 6.07794 8.64992 6.26683 8.64992C6.45572 8.64992 6.61127 8.58881 6.7335 8.46659L7.3335 7.86659ZM8.00016 14.6666C7.07794 14.6666 6.21127 14.4916 5.40016 14.1416C4.58905 13.7916 3.8835 13.3166 3.2835 12.7166C2.6835 12.1166 2.2085 11.411 1.8585 10.5999C1.5085 9.78881 1.3335 8.92214 1.3335 7.99992C1.3335 7.0777 1.5085 6.21103 1.8585 5.39992C2.2085 4.58881 2.6835 3.88325 3.2835 3.28325C3.8835 2.68325 4.58905 2.20825 5.40016 1.85825C6.21127 1.50825 7.07794 1.33325 8.00016 1.33325C8.92239 1.33325 9.78905 1.50825 10.6002 1.85825C11.4113 2.20825 12.1168 2.68325 12.7168 3.28325C13.3168 3.88325 13.7918 4.58881 14.1418 5.39992C14.4918 6.21103 14.6668 7.0777 14.6668 7.99992C14.6668 8.92214 14.4918 9.78881 14.1418 10.5999C13.7918 11.411 13.3168 12.1166 12.7168 12.7166C12.1168 13.3166 11.4113 13.7916 10.6002 14.1416C9.78905 14.4916 8.92239 14.6666 8.00016 14.6666Z" fill="#0AAB45"/>
</svg>
