<svg width="24" height="24" viewBox="0 0 24 24" fill="none" xmlns="http://www.w3.org/2000/svg">
<path d="M12 22.0008C10.6167 22.0008 9.31667 21.7383 8.1 21.2133C6.88333 20.6883 5.825 19.9758 4.925 19.0758C4.025 18.1758 3.3125 17.1174 2.7875 15.9008C2.2625 14.6841 2 13.3841 2 12.0008C2 9.41745 2.85833 7.17578 4.575 5.27578C6.29167 3.37578 8.43333 2.30078 11 2.05078V5.05078C9.26667 5.28411 7.83333 6.05911 6.7 7.37578C5.56667 8.69245 5 10.2341 5 12.0008C5 13.9508 5.67917 15.6049 7.0375 16.9633C8.39583 18.3216 10.05 19.0008 12 19.0008C13.0667 19.0008 14.0792 18.7758 15.0375 18.3258C15.9958 17.8758 16.8167 17.2341 17.5 16.4008L20.1 17.9008C19.15 19.2008 17.9667 20.2091 16.55 20.9258C15.1333 21.6424 13.6167 22.0008 12 22.0008ZM21.15 16.0508L18.55 14.5508C18.7 14.1341 18.8125 13.7133 18.8875 13.2883C18.9625 12.8633 19 12.4341 19 12.0008C19 10.2341 18.4333 8.69245 17.3 7.37578C16.1667 6.05911 14.7333 5.28411 13 5.05078V2.05078C15.5667 2.30078 17.7083 3.37578 19.425 5.27578C21.1417 7.17578 22 9.41745 22 12.0008C22 12.7008 21.9375 13.3924 21.8125 14.0758C21.6875 14.7591 21.4667 15.4174 21.15 16.0508Z" fill="#0AAB45"/>
</svg>
