<svg width="24" height="24" viewBox="0 0 24 24" fill="none" xmlns="http://www.w3.org/2000/svg">
<path d="M16.9999 14.5834C16.2433 14.5835 15.4967 14.7568 14.8174 15.09C14.7652 15.1156 14.719 15.1518 14.6816 15.1962C14.6443 15.2407 14.6166 15.2925 14.6004 15.3483C14.5843 15.4041 14.58 15.4626 14.5878 15.5202C14.5956 15.5778 14.6153 15.6331 14.6457 15.6825C15.3676 16.8556 15.7498 18.206 15.7499 19.5834C15.7499 19.6939 15.7938 19.7999 15.8719 19.878C15.9501 19.9561 16.0561 20 16.1666 20H21.5832C21.6937 20 21.7997 19.9561 21.8779 19.878C21.956 19.7999 21.9999 19.6939 21.9999 19.5834C21.9999 18.2573 21.4731 16.9855 20.5354 16.0478C19.5978 15.1102 18.326 14.5834 16.9999 14.5834Z" fill="black"/>
<path d="M16.9534 13.1666C18.6793 13.1666 20.0784 11.7675 20.0784 10.0416C20.0784 8.31574 18.6793 6.91663 16.9534 6.91663C15.2275 6.91663 13.8284 8.31574 13.8284 10.0416C13.8284 11.7675 15.2275 13.1666 16.9534 13.1666Z" fill="black"/>
<path d="M8.25008 11.9167C10.4362 11.9167 12.2084 10.1445 12.2084 7.95833C12.2084 5.77221 10.4362 4 8.25008 4C6.06395 4 4.29175 5.77221 4.29175 7.95833C4.29175 10.1445 6.06395 11.9167 8.25008 11.9167Z" fill="black"/>
<path d="M14.5 19.5834C14.5 17.9258 13.8415 16.3361 12.6694 15.164C11.4973 13.9919 9.9076 13.3334 8.25 13.3334C6.5924 13.3334 5.00269 13.9919 3.83058 15.164C2.65848 16.3361 2 17.9258 2 19.5834C2 19.6939 2.0439 19.7999 2.12204 19.878C2.20018 19.9561 2.30616 20 2.41667 20H14.0833C14.1938 20 14.2998 19.9561 14.378 19.878C14.4561 19.7999 14.5 19.6939 14.5 19.5834Z" fill="black"/>
</svg>
