<svg width="24" height="24" fill="none" xmlns="http://www.w3.org/2000/svg">
  <path d="M12 23c-3.1 0-5.708-.58-7.825-1.738S1 18.683 1 17c0-.483.1-.954.3-1.412.2-.459.492-.905.875-1.338a6.16 6.16 0 0 1 1.413-1.162 12.843 12.843 0 0 1 1.887-.938.85.85 0 0 1 .738.037c.241.126.404.321.487.588a.916.916 0 0 1-.063.737c-.124.242-.312.421-.562.538a8.47 8.47 0 0 0-1.263.612c-.375.225-.695.471-.962.738a3.061 3.061 0 0 0-.638.812A1.722 1.722 0 0 0 3 17c0 1.067.9 2 2.7 2.8 1.8.8 3.9 1.2 6.3 1.2s4.5-.4 6.3-1.2C20.1 19 21 18.067 21 17c0-.25-.07-.512-.212-.788a3.062 3.062 0 0 0-.638-.812 4.964 4.964 0 0 0-.962-.738 8.469 8.469 0 0 0-1.263-.612 1.175 1.175 0 0 1-.563-.538.916.916 0 0 1-.062-.737.954.954 0 0 1 .488-.588.85.85 0 0 1 .737-.037c.617.25 1.18.53 1.688.838.508.308.954.645 1.337 1.012.483.45.846.93 1.087 1.438.242.508.363 1.029.363 1.562 0 1.683-1.058 3.104-3.175 4.262C17.708 22.421 15.1 23 12 23Zm-2-4a.967.967 0 0 1-.713-.288A.968.968 0 0 1 9 18V8H5a.968.968 0 0 1-.713-.287A.968.968 0 0 1 4 7c0-.283.096-.52.287-.713A.968.968 0 0 1 5 6h14c.283 0 .52.096.712.287.192.192.288.43.288.713s-.096.52-.288.713A.968.968 0 0 1 19 8h-4v10c0 .283-.096.52-.287.712A.968.968 0 0 1 14 19a.968.968 0 0 1-.713-.288A.968.968 0 0 1 13 18v-4h-2v4c0 .283-.096.52-.287.712A.968.968 0 0 1 10 19Zm2-14c-.55 0-1.02-.196-1.412-.588A1.926 1.926 0 0 1 10 3c0-.55.196-1.02.588-1.413A1.926 1.926 0 0 1 12 1c.55 0 1.02.196 1.412.587C13.804 1.98 14 2.45 14 3s-.196 1.02-.588 1.412A1.926 1.926 0 0 1 12 5Z" fill="#151A16"/>
</svg>