<svg xmlns="http://www.w3.org/2000/svg" width="20" height="20" fill="none">
    <path fill="#646F68"
        d="M2.5 14.167V5.833c0-.458.163-.85.49-1.176.326-.327.718-.49 1.177-.49h11.666c.459 0 .851.163 1.178.49.326.326.489.718.489 1.176v8.334c0 .458-.163.85-.49 1.177-.326.326-.718.49-1.177.49H4.167c-.459 0-.851-.164-1.178-.49a1.607 1.607 0 0 1-.489-1.177ZM4.167 7.5h1.666V5.833H4.167V7.5Zm3.333 0h8.333V5.833H7.5V7.5Zm0 3.333h8.333V9.167H7.5v1.666Zm0 3.334h8.333V12.5H7.5v1.667Zm-3.333 0h1.666V12.5H4.167v1.667Zm0-3.334h1.666V9.167H4.167v1.666Z" />
</svg>
