<svg width="20" height="20" viewBox="0 0 20 20"  xmlns="http://www.w3.org/2000/svg">
<path id="Vector" d="M4.16667 9.16667C3.70833 9.16667 3.31583 9.00333 2.98917 8.67667C2.66306 8.35055 2.5 7.95833 2.5 7.5V4.16667C2.5 3.70833 2.66306 3.31583 2.98917 2.98917C3.31583 2.66306 3.70833 2.5 4.16667 2.5H7.5C7.95833 2.5 8.35083 2.66306 8.6775 2.98917C9.00361 3.31583 9.16667 3.70833 9.16667 4.16667V7.5C9.16667 7.95833 9.00361 8.35055 8.6775 8.67667C8.35083 9.00333 7.95833 9.16667 7.5 9.16667H4.16667ZM4.16667 17.5C3.70833 17.5 3.31583 17.3369 2.98917 17.0108C2.66306 16.6842 2.5 16.2917 2.5 15.8333V12.5C2.5 12.0417 2.66306 11.6492 2.98917 11.3225C3.31583 10.9964 3.70833 10.8333 4.16667 10.8333H7.5C7.95833 10.8333 8.35083 10.9964 8.6775 11.3225C9.00361 11.6492 9.16667 12.0417 9.16667 12.5V15.8333C9.16667 16.2917 9.00361 16.6842 8.6775 17.0108C8.35083 17.3369 7.95833 17.5 7.5 17.5H4.16667ZM12.5 9.16667C12.0417 9.16667 11.6494 9.00333 11.3233 8.67667C10.9967 8.35055 10.8333 7.95833 10.8333 7.5V4.16667C10.8333 3.70833 10.9967 3.31583 11.3233 2.98917C11.6494 2.66306 12.0417 2.5 12.5 2.5H15.8333C16.2917 2.5 16.6842 2.66306 17.0108 2.98917C17.3369 3.31583 17.5 3.70833 17.5 4.16667V7.5C17.5 7.95833 17.3369 8.35055 17.0108 8.67667C16.6842 9.00333 16.2917 9.16667 15.8333 9.16667H12.5ZM12.5 17.5C12.0417 17.5 11.6494 17.3369 11.3233 17.0108C10.9967 16.6842 10.8333 16.2917 10.8333 15.8333V12.5C10.8333 12.0417 10.9967 11.6492 11.3233 11.3225C11.6494 10.9964 12.0417 10.8333 12.5 10.8333H15.8333C16.2917 10.8333 16.6842 10.9964 17.0108 11.3225C17.3369 11.6492 17.5 12.0417 17.5 12.5V15.8333C17.5 16.2917 17.3369 16.6842 17.0108 17.0108C16.6842 17.3369 16.2917 17.5 15.8333 17.5H12.5ZM4.16667 7.5H7.5V4.16667H4.16667V7.5ZM12.5 7.5H15.8333V4.16667H12.5V7.5ZM12.5 15.8333H15.8333V12.5H12.5V15.8333ZM4.16667 15.8333H7.5V12.5H4.16667V15.8333Z"/>
</svg>
