<svg width="24" height="24" viewBox="0 0 24 24" fill="none" xmlns="http://www.w3.org/2000/svg">
<path d="M12.0024 8.99976C12.5547 8.99976 13.0024 9.44747 13.0024 9.99976V12.4998C13.0024 13.052 12.5547 13.4998 12.0024 13.4998C11.4502 13.4998 11.0024 13.052 11.0024 12.4998V9.99976C11.0024 9.44747 11.4502 8.99976 12.0024 8.99976Z" fill="black"/>
<path d="M13.3064 16.4147C13.3064 17.136 12.7216 17.7207 12.0004 17.7207C11.2791 17.7207 10.6943 17.136 10.6943 16.4147C10.6943 15.6934 11.2791 15.1086 12.0004 15.1086C12.7216 15.1086 13.3064 15.6934 13.3064 16.4147Z" fill="black"/>
<path fill-rule="evenodd" clip-rule="evenodd" d="M10.2578 4.06701C11.0217 2.70423 12.9832 2.70422 13.7471 4.06701L21.5664 18.0168C22.3137 19.35 21.3501 20.9948 19.8218 20.9948H4.18308C2.65475 20.9948 1.69117 19.35 2.43846 18.0168L10.2578 4.06701ZM19.3951 18.9948C19.5861 18.9948 19.7066 18.7892 19.6131 18.6225L12.2205 5.43397C12.125 5.26363 11.8798 5.26363 11.7844 5.43397L4.39173 18.6225C4.29832 18.7892 4.41877 18.9948 4.60981 18.9948L19.3951 18.9948Z" fill="black"/>
</svg>
