<svg width="18" height="16" viewBox="0 0 18 16" fill="none" xmlns="http://www.w3.org/2000/svg">
<path fill-rule="evenodd" clip-rule="evenodd" d="M1.27371 15.5C1.12094 15.5 0.982048 15.4618 0.857048 15.3854C0.732048 15.309 0.634826 15.2083 0.565382 15.0833C0.495937 14.9583 0.457743 14.8229 0.450798 14.6771C0.443854 14.5313 0.482048 14.3889 0.565382 14.25L8.27371 0.916667C8.35705 0.777778 8.46469 0.673611 8.59663 0.604167C8.72858 0.534722 8.86399 0.5 9.00288 0.5C9.14177 0.5 9.27719 0.534722 9.40913 0.604167C9.54108 0.673611 9.64871 0.777778 9.73205 0.916667L17.4404 14.25C17.5237 14.3889 17.5619 14.5313 17.555 14.6771C17.548 14.8229 17.5098 14.9583 17.4404 15.0833C17.3709 15.2083 17.2737 15.309 17.1487 15.3854C17.0237 15.4618 16.8848 15.5 16.732 15.5H1.27371ZM9.00288 13C9.23899 13 9.43691 12.9201 9.59663 12.7604C9.75635 12.6007 9.83621 12.4028 9.83621 12.1667C9.83621 11.9306 9.75635 11.7326 9.59663 11.5729C9.43691 11.4132 9.23899 11.3333 9.00288 11.3333C8.76677 11.3333 8.56885 11.4132 8.40913 11.5729C8.24941 11.7326 8.16955 11.9306 8.16955 12.1667C8.16955 12.4028 8.24941 12.6007 8.40913 12.7604C8.56885 12.9201 8.76677 13 9.00288 13ZM9.00288 10.5C9.23899 10.5 9.43691 10.4201 9.59663 10.2604C9.75635 10.1007 9.83621 9.90278 9.83621 9.66667V7.16667C9.83621 6.93056 9.75635 6.73264 9.59663 6.57292C9.43691 6.41319 9.23899 6.33333 9.00288 6.33333C8.76677 6.33333 8.56885 6.41319 8.40913 6.57292C8.24941 6.73264 8.16955 6.93056 8.16955 7.16667V9.66667C8.16955 9.90278 8.24941 10.1007 8.40913 10.2604C8.56885 10.4201 8.76677 10.5 9.00288 10.5Z" fill="#9D5D03"/>
</svg>
