<svg width="186" height="177" viewBox="0 0 186 177" fill="none" xmlns="http://www.w3.org/2000/svg">
<path d="M91.1 159.11C91.1 159.11 91.14 159.08 91.16 159.07C91.18 159.06 91.21 159.07 91.23 159.05L139.66 136.46C139.66 136.46 139.66 136.46 139.68 136.45C139.68 136.45 139.69 136.45 139.7 136.45L172.06 121.36L166.38 109.18L53.1 162L58.79 174.2L91.11 159.12L91.1 159.11Z" fill="#D9E2DC"/>
<path d="M79.0701 23.86C76.8201 30.05 76.45 36.71 78.02 43.12C79.59 49.52 82.99 55.26 87.85 59.71C92.71 64.16 98.72 67.04 105.24 68.05C111.76 69.05 118.36 68.11 124.33 65.32C128.31 63.47 131.82 60.89 134.79 57.66C137.75 54.43 140.02 50.7 141.51 46.58C143.01 42.46 143.67 38.15 143.48 33.77C143.29 29.39 142.25 25.15 140.39 21.18C137.6 15.21 133.15 10.24 127.52 6.82C122.3 3.66 116.38 2 110.31 2C109.82 2 109.33 2.01 108.84 2.03C102.25 2.32 95.9601 4.53 90.6501 8.43C85.3301 12.33 81.3301 17.66 79.0801 23.86H79.0701ZM95.24 41.11L108.97 34.73L102.58 20.99C102.35 20.49 102.56 19.89 103.06 19.66C103.56 19.43 104.16 19.64 104.39 20.14L110.78 33.88L124.51 27.5C125.01 27.27 125.61 27.48 125.84 27.99C126.07 28.49 125.85 29.09 125.35 29.32L111.62 35.7L118.01 49.44C118.24 49.94 118.03 50.54 117.53 50.77C117.39 50.83 117.25 50.86 117.11 50.86C116.73 50.86 116.37 50.65 116.2 50.28L109.81 36.54L96.0801 42.92C95.9401 42.98 95.8001 43.01 95.6601 43.01C95.2801 43.01 94.9201 42.8 94.7501 42.43C94.5201 41.93 94.74 41.33 95.24 41.1V41.11Z" fill="#D9E2DC"/>
<path d="M57.52 30.6096C56.83 31.3596 56.31 32.2296 55.96 33.1796C55.61 34.1396 55.46 35.1396 55.5 36.1596C55.53 36.7496 55.63 37.3296 55.78 37.8996C57.14 36.8596 58.56 35.8996 60.05 35.0696C63.02 33.4096 66.24 32.1996 69.55 31.4596C69.22 30.9796 68.84 30.5296 68.41 30.1396C67.66 29.4496 66.79 28.9296 65.84 28.5796C64.88 28.2296 63.89 28.0796 62.86 28.1196C61.84 28.1596 60.86 28.4096 59.94 28.8396C59.02 29.2696 58.2 29.8696 57.51 30.6196L57.52 30.6096Z" fill="#D9E2DC"/>
<path d="M95.66 43.0196C95.8 43.0196 95.94 42.9896 96.08 42.9296L109.81 36.5496L116.2 50.2896C116.37 50.6496 116.73 50.8696 117.11 50.8696C117.25 50.8696 117.39 50.8396 117.53 50.7796C118.03 50.5496 118.25 49.9496 118.01 49.4496L111.62 35.7096L125.35 29.3296C125.85 29.0996 126.07 28.4996 125.84 27.9996C125.61 27.4996 125.01 27.2796 124.51 27.5096L110.78 33.8896L104.39 20.1496C104.16 19.6496 103.56 19.4296 103.06 19.6696C102.56 19.8996 102.34 20.4996 102.58 20.9996L108.97 34.7396L95.24 41.1196C94.74 41.3496 94.52 41.9496 94.75 42.4496C94.92 42.8096 95.2801 43.0296 95.66 43.0296V43.0196Z" fill="#151A16"/>
<path fill-rule="evenodd" clip-rule="evenodd" d="M167.76 107.419C167.76 107.419 167.74 107.399 167.73 107.379C167.69 107.309 167.64 107.239 167.58 107.179C167.575 107.172 167.57 107.166 167.565 107.159C167.556 107.149 167.547 107.138 167.538 107.128C167.52 107.109 167.502 107.091 167.48 107.069C167.42 107.019 167.36 106.989 167.3 106.959C167.25 106.929 167.2 106.899 167.14 106.889C167.127 106.889 167.113 106.88 167.1 106.871C167.093 106.867 167.087 106.862 167.08 106.859C157.57 104.719 149.61 100.559 142.86 95.3591C148.95 92.3891 154.53 89.2091 159.43 85.9191C159.45 86.0291 159.49 86.1391 159.55 86.2391C160.429 87.6517 161.315 89.0569 162.208 90.4739L162.209 90.4753L162.64 91.1591C162.82 91.4391 163.06 91.6791 163.35 91.8491C163.63 92.0191 163.96 92.1291 164.29 92.1591H164.49C164.75 92.1591 165.02 92.1091 165.26 92.0191C165.58 91.8991 165.86 91.7091 166.11 91.4591C172.54 84.4191 177.17 75.8191 179.49 66.5791C179.61 66.1091 179.58 65.6091 179.39 65.1591C179.2 64.7091 178.86 64.3391 178.45 64.0991C178.03 63.8591 177.53 63.7691 177.05 63.8291C176.57 63.8991 176.12 64.1191 175.78 64.4691L175.77 64.4791C170.92 69.6191 164.35 73.3891 156.25 75.6791C155.93 75.7691 155.63 75.9391 155.37 76.1691C155.12 76.3991 154.93 76.6791 154.8 76.9991C154.68 77.3091 154.63 77.6591 154.66 77.9991C154.69 78.3391 154.8 78.6691 154.98 78.9491L158.03 83.7991C158.13 83.9591 158.28 84.0691 158.43 84.1491C153.34 87.5691 147.5 90.8791 141.11 93.9491C132.13 86.5791 125.38 77.4191 120 69.0091C121.76 68.4991 123.49 67.8591 125.17 67.0791C129.38 65.1191 133.11 62.3791 136.26 58.9591C139.4 55.5291 141.8 51.5791 143.39 47.2091C144.98 42.8391 145.68 38.2691 145.48 33.6291C145.27 28.9791 144.17 24.4891 142.2 20.2791C139.25 13.9491 134.53 8.67906 128.55 5.05906C122.58 1.47906 115.73 -0.280935 108.75 0.0290652C101.77 0.339065 95.1 2.67907 89.46 6.81907C83.82 10.9491 79.58 16.6091 77.19 23.1791C76.3 25.6191 75.7 28.1191 75.36 30.6591C74.12 30.7291 72.89 30.8491 71.66 31.0491C71.16 30.1591 70.53 29.3491 69.77 28.6591C68.82 27.7891 67.73 27.1291 66.53 26.6891C65.32 26.2491 64.06 26.0591 62.78 26.1091C61.5 26.1691 60.26 26.4691 59.1 27.0091C57.94 27.5491 56.91 28.3091 56.04 29.2491C55.17 30.1991 54.51 31.2891 54.08 32.4891C53.64 33.6891 53.45 34.9491 53.5 36.2391C53.55 37.2791 53.76 38.2791 54.12 39.2391C51.69 41.3491 49.53 43.7891 47.76 46.4791C44.65 51.1991 42.71 56.6691 42.13 62.2891C41.57 67.7991 42.33 73.4291 44.32 78.5791C34.56 87.0691 30.48 95.0791 32.56 101.749C34.73 108.719 43.31 112.949 55.89 114.299C58.92 129.289 58.93 145.439 50.87 161.029C50.87 161.049 50.87 161.069 50.85 161.089C50.8289 161.138 50.8177 161.182 50.806 161.228C50.8011 161.248 50.7959 161.268 50.79 161.289C50.788 161.301 50.7856 161.313 50.7831 161.325L50.7777 161.349C50.7689 161.389 50.76 161.429 50.76 161.469C50.76 161.529 50.77 161.589 50.78 161.649C50.79 161.719 50.8 161.789 50.83 161.849C50.83 161.869 50.83 161.889 50.84 161.909L57.37 175.919C57.48 176.159 57.68 176.349 57.93 176.439C58.04 176.479 58.16 176.499 58.27 176.499C58.41 176.499 58.56 176.469 58.69 176.409L91.1 161.299C92.6 164.259 94.59 166.899 97.04 169.159C99.74 171.649 102.86 173.549 106.31 174.809C109.38 175.929 112.58 176.499 115.84 176.499C116.24 176.499 116.64 176.499 117.04 176.469C120.71 176.309 124.26 175.449 127.59 173.889C130.92 172.339 133.87 170.179 136.34 167.469C138.82 164.759 140.71 161.629 141.96 158.179C143.21 154.729 143.76 151.119 143.59 147.449C143.44 144.119 142.69 140.889 141.39 137.829L173.79 122.719C174.03 122.609 174.22 122.399 174.31 122.159C174.4 121.919 174.39 121.639 174.28 121.399L167.75 107.409L167.76 107.419ZM156.69 77.9291C156.69 77.9291 156.66 77.8691 156.68 77.7491L155.75 77.3891L156.81 77.6291C165.26 75.2391 172.12 71.2891 177.23 65.8891C177.26 65.8591 177.3 65.8391 177.35 65.8291C177.39 65.8291 177.44 65.8291 177.48 65.8591C177.52 65.8791 177.55 65.9191 177.57 65.9591C177.59 65.9991 177.59 66.0491 177.57 66.0991C175.33 75.0291 170.86 83.3391 164.58 90.1591C164.55 90.1691 164.52 90.1691 164.48 90.1691L164.39 91.1691L164.33 90.0791C163.45 88.6991 162.59 87.3291 161.73 85.9491C165.76 82.8091 169.4 79.1891 172.56 75.1891C172.88 74.7791 172.84 74.1991 172.46 73.8391C172.26 73.6591 172.01 73.5691 171.76 73.5691C171.69 73.5691 171.61 73.5891 171.54 73.6091C171.5 73.6091 171.46 73.6191 171.41 73.6391C171.31 73.6791 171.22 73.7291 171.14 73.7991C171.13 73.7991 171.12 73.8091 171.11 73.8191C171.11 73.8191 171.103 73.8224 171.098 73.8271C171.094 73.8306 171.09 73.8348 171.09 73.8391C171.081 73.8478 171.072 73.8527 171.064 73.8572C171.054 73.8629 171.046 73.8678 171.04 73.8791L171 73.9191C167.41 77.0591 163.46 79.7791 159.24 81.9991L156.69 77.9291ZM90.64 8.42907C95.95 4.52907 102.24 2.31907 108.83 2.02907C109.32 2.00907 109.81 1.99907 110.3 1.99907C116.37 1.99907 122.3 3.64907 127.51 6.81907C133.15 10.2391 137.6 15.1991 140.38 21.1791C142.24 25.1491 143.28 29.3891 143.47 33.7691C143.66 38.1491 143 42.4591 141.5 46.5791C140 50.6991 137.74 54.4291 134.78 57.6591C131.82 60.8891 128.3 63.4691 124.32 65.3191C118.35 68.1091 111.75 69.0491 105.23 68.0491C98.71 67.0491 92.7 64.1691 87.84 59.7091C82.98 55.2491 79.58 49.5191 78.01 43.1191C76.44 36.7191 76.8 30.0591 79.06 23.8591C81.32 17.6591 85.31 12.3291 90.63 8.42907H90.64ZM55.5 36.1491C55.46 35.1291 55.61 34.1291 55.96 33.1691C56.31 32.2091 56.83 31.3491 57.52 30.5991C58.21 29.8491 59.03 29.2491 59.95 28.8191C60.87 28.3891 61.86 28.1491 62.87 28.0991C63.89 28.0591 64.89 28.2091 65.85 28.5591C66.81 28.9091 67.67 29.4291 68.42 30.1191C68.85 30.5191 69.23 30.9591 69.56 31.4391C66.24 32.1791 63.03 33.3891 60.06 35.0491C58.57 35.8791 57.14 36.8391 55.79 37.8791C55.63 37.3191 55.53 36.7391 55.51 36.1391L55.5 36.1491ZM44.12 62.4991C44.66 57.1991 46.5 52.0391 49.43 47.5791C52.36 43.1191 56.37 39.3991 61.03 36.7991C65.36 34.3891 70.23 32.9691 75.17 32.6591C74.91 36.2991 75.19 39.9791 76.08 43.5791C77.74 50.3691 81.35 56.4491 86.5 61.1691C91.65 65.8891 98.03 68.9491 104.94 70.0091C106.73 70.2891 108.53 70.4191 110.32 70.4191C112.9 70.4191 115.47 70.1291 117.98 69.5691C123.37 78.0491 130.12 87.3391 139.12 94.9291C131.48 98.4791 123.12 101.709 114.34 104.439C92.81 111.119 72.42 113.729 57.56 112.469C55.1007 101.083 51.0025 90.4157 47.4533 81.1777L46.3 78.1791C44.33 73.2191 43.58 67.7991 44.12 62.4991ZM34.47 101.169C32.71 95.5091 36.48 88.2391 45.08 80.5891L45.58 81.8991C49.03 90.8791 53 101.239 55.45 112.269C44.1 110.969 36.36 107.249 34.47 101.169ZM57.98 114.509C60.33 114.699 62.8 114.799 65.39 114.799C79.38 114.799 96.65 112.029 114.93 106.359C124.13 103.509 132.88 100.099 140.84 96.3491C147.31 101.469 154.89 105.689 163.89 108.139L53.91 159.419C60.89 144.309 60.83 128.879 57.99 114.519L57.98 114.509ZM139.67 136.449C139.67 136.449 139.66 136.449 139.65 136.459L91.22 159.049C91.22 159.049 91.17 159.049 91.15 159.069C91.1487 159.07 91.1474 159.07 91.1461 159.071C91.1451 159.072 91.144 159.072 91.1429 159.073C91.1395 159.075 91.1362 159.077 91.1328 159.08C91.1285 159.083 91.1242 159.086 91.12 159.089C91.11 159.097 91.1 159.104 91.09 159.109L58.77 174.189L53.08 161.989L166.36 109.169L172.04 121.349L139.68 136.439L139.69 136.449H139.67Z" fill="#151A16"/>
<path fill-rule="evenodd" clip-rule="evenodd" d="M14.26 43.8794C13.67 43.7694 13.13 43.4794 12.7 43.0494C12.27 42.6194 11.99 42.0794 11.87 41.4894C11.76 40.8994 11.82 40.2894 12.05 39.7294C12.28 39.1794 12.67 38.6994 13.17 38.3694C13.67 38.0394 14.26 37.8894 14.86 37.8594C15.26 37.8594 15.65 37.9394 16.02 38.0894C16.4 38.2394 16.73 38.4694 17.01 38.7494C17.3 39.0394 17.52 39.3694 17.67 39.7394C17.82 40.1094 17.9 40.4994 17.9 40.8994C17.9 41.4994 17.73 42.0894 17.39 42.5894C17.05 43.0894 16.58 43.4794 16.02 43.7094C15.65 43.8594 15.26 43.9394 14.86 43.9394C14.66 43.9394 14.46 43.9194 14.26 43.8794ZM14.28 40.0294C14.1 40.1494 13.97 40.3094 13.89 40.4994L13.9 40.5094C13.82 40.6994 13.8 40.9094 13.84 41.1094C13.88 41.3094 13.98 41.4894 14.13 41.6394C14.27 41.7894 14.46 41.8894 14.66 41.9294C14.86 41.9694 15.07 41.9494 15.26 41.8694C15.45 41.7894 15.62 41.6594 15.73 41.4894C15.85 41.3194 15.91 41.1194 15.91 40.9094C15.91 40.7694 15.88 40.6394 15.83 40.5094C15.77 40.3794 15.7 40.2694 15.6 40.1694C15.5 40.0694 15.39 39.9894 15.26 39.9394C15.13 39.8894 15 39.8594 14.86 39.8594C14.65 39.8594 14.45 39.9194 14.28 40.0294Z" fill="#151A16"/>
<path d="M19.14 143.709L11.26 147.369L7.6 139.499C7.37 138.999 6.77 138.779 6.27 139.009C5.77 139.239 5.55 139.839 5.78 140.339L9.44 148.209L1.57 151.869C1.07 152.099 0.850001 152.699 1.08 153.199C1.25 153.569 1.61 153.779 1.99 153.779C2.13 153.779 2.27 153.749 2.41 153.689L10.29 150.029L13.95 157.909C14.12 158.279 14.48 158.489 14.86 158.489C15 158.489 15.14 158.459 15.28 158.399C15.78 158.169 16 157.569 15.77 157.069L12.11 149.189L19.99 145.529C20.49 145.299 20.71 144.699 20.48 144.199C20.25 143.699 19.65 143.479 19.15 143.709H19.14Z" fill="#151A16"/>
<path d="M184.78 161.28C185.07 161.46 185.25 161.77 185.25 162.11L185.4 170.44C185.41 170.99 184.97 171.46 184.42 171.46H184.4C183.86 171.46 183.4 171.03 183.4 170.48L183.28 163.68L179.02 165.66C178.72 165.8 178.36 165.78 178.07 165.6C177.78 165.42 177.6 165.11 177.6 164.77L177.45 156.42C177.44 155.86 177.88 155.4 178.43 155.4C178.97 155.42 179.45 155.83 179.45 156.38L179.57 163.2L183.83 161.22C184.13 161.08 184.49 161.1 184.78 161.28Z" fill="#151A16"/>
</svg>
