<svg xmlns="http://www.w3.org/2000/svg" width="160" height="160" fill="none">
    <path fill="#709482"
        d="M116.364 155.987a4.013 4.013 0 0 1-4.013 4.013H47.649a4.012 4.012 0 0 1-4.013-4.013v-10.532h68.214a4.013 4.013 0 0 0 4.012-4.013v-7.022a4.013 4.013 0 0 1 4.013-4.012h6.52a4.013 4.013 0 0 0 4.013-4.013v-6.52a4.013 4.013 0 0 1 4.012-4.013h7.022a4.013 4.013 0 0 0 4.013-4.012V43.636h10.532A4.012 4.012 0 0 1 160 47.65v64.702a4.013 4.013 0 0 1-4.013 4.013h-6.018a4.013 4.013 0 0 0-4.013 4.012v7.022a4.013 4.013 0 0 1-4.012 4.013h-6.521a4.012 4.012 0 0 0-4.012 4.012v6.521a4.013 4.013 0 0 1-4.013 4.012h-7.022a4.013 4.013 0 0 0-4.012 4.013v6.018Z" />
    <path fill="#709482"
        d="M116.364 14.546h10.533a4.012 4.012 0 0 1 4.012 4.012v6.52a4.013 4.013 0 0 0 4.013 4.013h6.52a4.013 4.013 0 0 1 4.013 4.012v10.533h-24.577a4.013 4.013 0 0 0-4.013 4.013v7.022a4.012 4.012 0 0 1-4.012 4.012h-6.521a4.012 4.012 0 0 0-4.012 4.013v6.52a4.013 4.013 0 0 1-4.013 4.013h-6.52a4.013 4.013 0 0 0-4.013 4.012v6.52a4.013 4.013 0 0 1-4.012 4.013h-6.52a4.013 4.013 0 0 0-4.013 4.013v6.52a4.013 4.013 0 0 1-4.013 4.013h-6.52a4.012 4.012 0 0 0-4.013 4.012v6.521a4.012 4.012 0 0 1-4.012 4.012h-7.022a4.013 4.013 0 0 0-4.013 4.013v24.577H33.103a4.013 4.013 0 0 1-4.012-4.013v-6.52a4.013 4.013 0 0 0-4.013-4.013h-6.52a4.012 4.012 0 0 1-4.012-4.012v-10.533h24.576a4.013 4.013 0 0 0 4.013-4.013v-7.022a4.012 4.012 0 0 1 4.012-4.012h6.52a4.013 4.013 0 0 0 4.013-4.013v-6.52a4.012 4.012 0 0 1 4.013-4.013h6.52a4.013 4.013 0 0 0 4.013-4.012v-6.52a4.013 4.013 0 0 1 4.012-4.013h6.52a4.013 4.013 0 0 0 4.013-4.013v-6.52a4.012 4.012 0 0 1 4.013-4.013h6.52a4.013 4.013 0 0 0 4.013-4.012v-6.52a4.012 4.012 0 0 1 4.012-4.013h7.022a4.013 4.013 0 0 0 4.013-4.013V14.546Z" />
    <path fill="#709482"
        d="M116.364 14.546H48.15a4.013 4.013 0 0 0-4.012 4.012v7.022a4.013 4.013 0 0 1-4.013 4.013h-6.52a4.013 4.013 0 0 0-4.012 4.012v6.52a4.013 4.013 0 0 1-4.013 4.013h-7.022a4.013 4.013 0 0 0-4.012 4.013v68.213H4.013A4.013 4.013 0 0 1 0 112.351V47.649a4.012 4.012 0 0 1 4.013-4.013h6.018a4.013 4.013 0 0 0 4.013-4.012v-7.022a4.013 4.013 0 0 1 4.012-4.013h6.52a4.012 4.012 0 0 0 4.013-4.012v-6.52a4.013 4.013 0 0 1 4.013-4.013h7.022a4.013 4.013 0 0 0 4.012-4.013V4.013A4.012 4.012 0 0 1 47.65 0h64.702a4.013 4.013 0 0 1 4.013 4.013v10.532Z" />
</svg>
