<svg width="192" height="192" viewBox="0 0 192 192" fill="none" xmlns="http://www.w3.org/2000/svg">
<path d="M70 6H6V84H14V92H22V100H43.3C44 94.3 45.4 88.8 47.6 83.5C52.4 71.9 60.5 62.1 70.9 55.1C75.6 52 80.7 49.5 86 47.7V22H78V14H70V6Z" fill="#D9E2DC"/>
<path d="M86 64.7998C81 67.0998 76.5 70.2998 72.5 74.1998C65.9 80.7998 61.4 89.2998 59.5 98.4998C59.4 98.9998 59.3 99.4998 59.2 99.9998H67.6C71.9 95.1998 78.3 89.1998 85.9 84.6998V64.7998H86Z" fill="#D9E2DC"/>
<path fill-rule="evenodd" clip-rule="evenodd" d="M61.4 107.7C61.4 107.7 81.4 78.7002 106 78.7002C130.6 78.7002 150.6 107.7 150.6 107.7C150.6 107.7 130.6 136.7 106 136.7C81.4 136.7 61.4 107.7 61.4 107.7ZM91.5 85.9002C95.8 83.0002 100.9 81.5002 106.1 81.5002C109.5 81.5002 113 82.2002 116.2 83.5002C119.4 84.8002 122.3 86.8002 124.7 89.2002C127.1 91.6002 129.1 94.5002 130.4 97.7002C131.7 100.9 132.4 104.3 132.4 107.8C132.4 113 130.9 118.1 128 122.4C125.1 126.7 121 130.1 116.2 132.1C111.4 134.1 106.1 134.6 101 133.6C95.9 132.6 91.2 130.1 87.5 126.4C83.8 122.7 81.3 118 80.3 112.9C79.3 107.8 79.8 102.5 81.8 97.7002C83.8 92.9002 87.1 88.8002 91.5 85.9002Z" fill="#D9E2DC"/>
<path d="M106 99.2998C104.3 99.2998 102.7 99.7998 101.3 100.7C99.9 101.6 98.8 103 98.2 104.5C97.6 106 97.4 107.7 97.7 109.4C98 111 98.8 112.6 100 113.7C101.2 114.9 102.7 115.7 104.3 116C105.9 116.3 107.6 116.2 109.2 115.5C110.7 114.9 112.1 113.8 113 112.4C113.9 111 114.4 109.4 114.4 107.7C114.4 106.6 114.2 105.5 113.8 104.5C113.4 103.5 112.8 102.5 112 101.8C111.2 101 110.3 100.4 109.3 99.9998C108.3 99.4998 107.2 99.2998 106 99.2998Z" fill="#D9E2DC"/>
<path fill-rule="evenodd" clip-rule="evenodd" d="M104.462 117.039C105.053 117.125 105.576 117.201 106.1 117.201C107.3 117.201 108.5 116.901 109.7 116.601C111.5 115.901 113 114.701 114 113.101C115 111.501 115.6 109.701 115.6 107.801C115.6 106.601 115.4 105.401 114.9 104.201C114.4 103.001 113.7 102.001 112.8 101.101C111.9 100.201 110.9 99.5008 109.7 99.0008C108.6 98.5008 107.3 98.3008 106.1 98.3008C104.2 98.3008 102.4 98.9008 100.8 99.9008C99.2001 100.901 98.0001 102.401 97.3001 104.101C96.6001 105.901 96.4001 107.801 96.8001 109.601C97.2001 111.401 98.1001 113.101 99.4001 114.401C100.7 115.701 102.4 116.601 104.2 117.001L104.28 117.012L104.462 117.039ZM101.9 101.601C103.1 100.701 104.5 100.301 106 100.301C107 100.301 108 100.401 108.9 100.901C109.8 101.301 110.6 101.801 111.3 102.501C112 103.201 112.5 104.001 112.9 104.901C113.3 105.901 113.5 106.801 113.5 107.801C113.5 109.201 113 110.701 112.2 111.901C111.3 113.201 110.2 114.101 108.8 114.701C107.4 115.201 106 115.401 104.5 115.101C103.1 114.901 101.7 114.101 100.7 113.101C99.7001 112.101 99.0001 110.801 98.7001 109.301C98.4001 107.901 98.5001 106.401 99.1001 105.001C99.7001 103.601 100.7 102.401 101.9 101.601Z" fill="#151A16"/>
<path fill-rule="evenodd" clip-rule="evenodd" d="M106.1 135C104.3 135 102.5 134.8 100.8 134.5C95.5 133.4 90.7 130.9 86.8 127C83 123.2 80.4 118.3 79.3 113C78.2 107.7 78.8 102.2 80.9 97.1996C83 92.1996 86.4 87.9996 90.9 84.9996C95.4 81.9996 100.6 80.3996 106.1 80.3996C109.7 80.3996 113.2 81.0996 116.5 82.4996C119.8 83.8996 122.8 85.8996 125.3 88.3996C127.8 90.8996 129.8 93.8996 131.2 97.1996C132.6 100.5 133.3 104 133.3 107.6C133.3 113 131.7 118.3 128.7 122.8C125.7 127.3 121.5 130.8 116.5 132.8C113.2 134.3 109.6 135 106.1 135ZM92 86.6996C87.7999 89.4996 84.6 93.3996 82.7 97.9996C80.7999 102.6 80.3 107.7 81.3 112.6C82.3 117.5 84.7 122 88.2 125.5C91.7 129 96.2 131.4 101.1 132.4C106 133.4 111.1 132.9 115.7 131C120.3 129.1 124.3 125.9 127 121.7C129.8 117.5 131.3 112.7 131.3 107.7C131.3 104.4 130.7 101.1 129.4 97.9996C128.1 94.8996 126.3 92.1996 123.9 89.7996C121.5 87.3996 118.8 85.5996 115.7 84.2996C112.6 82.9996 109.4 82.3996 106 82.3996C101 82.4996 96.2 83.8996 92 86.6996Z" fill="#151A16"/>
<path fill-rule="evenodd" clip-rule="evenodd" d="M79.1 147.9C87.1 153.3 96.4 156.1 106 156.1C119 156.1 131.2 151.1 140.3 141.8C149.5 132.7 154.5 120.5 154.5 107.6C154.5 98 151.6 88.7 146.3 80.7C141 72.7 133.5 66.6 124.6 62.9C115.7 59.2 106 58.2 96.6 60.1C87.2 62 78.6 66.6 71.8 73.4C65 80.2 60.4 88.8 58.5 98.2C56.7 107.7 57.6 117.3 61.3 126.2C64.9 135 71.1 142.6 79.1 147.9ZM73.2 74.9C76.6999 71.5002 80.6002 68.5999 85 66.4001V84.0205C81.2454 86.2519 77.4929 89.0518 73.8 92.3996C71.2931 94.6871 69.0809 96.9549 67.2186 99.0001H60.5V98.7003L60.5053 98.6733C62.3086 89.584 66.7064 81.3936 73.2 74.9ZM68.7 100.7C68.5486 100.776 68.4115 100.837 68.2834 100.884C65.4308 104.045 63.4886 106.612 62.7 107.7C65.6 111.7 84.1 135.7 106.1 135.7C128 135.7 146.5 111.7 149.5 107.7C146.6 103.7 128.1 79.6996 106.1 79.6996C99.2793 79.6996 92.7951 82.0064 87.0078 85.3089C86.9259 85.4223 86.8211 85.5193 86.7 85.6001C79 90.1001 72.7 96.3001 68.7 100.7ZM60.6 107.1C60.716 106.926 62.4476 104.463 65.4433 101H60.0996C58.8718 109.275 59.8974 117.722 63.1 125.5C66.6 134 72.5 141.2 80.2 146.3C87.8 151.4 96.7001 154.1 105.9 154.1H106C118.4 154.1 130.1 149.3 138.8 140.5C147.6 131.7 152.4 120.1 152.4 107.7C152.4 98.5 149.7 89.6 144.6 81.9C139.5 74.2 132.3 68.3 123.8 64.8C118.1 62.5 112.1 61.3 106.1 61.3C103.1 61.3 100 61.6 97 62.2C93.6148 62.877 90.3286 63.9219 87.2 65.3081V82.7782C93.588 79.3596 99.9493 77.5996 106 77.5996C116.3 77.5996 127.5 82.6996 138.2 92.3996C146.3 99.5996 151.2 106.8 151.4 107.1C151.6 107.4 151.6 107.9 151.4 108.2C151.2 108.5 146.2 115.6 138.2 122.9C127.5 132.6 116.4 137.7 106 137.7C95.7 137.7 84.5 132.6 73.8 122.9C65.7 115.7 60.7999 108.5 60.6 108.2C60.4 107.9 60.4 107.4 60.6 107.1Z" fill="#151A16"/>
<path fill-rule="evenodd" clip-rule="evenodd" d="M21 93H14C13.4 93 13 92.6 13 92V85H6C5.4 85 5 84.6 5 84V6C5 5.4 5.4 5 6 5H70C70.6 5 71 5.4 71 6V13H78C78.6 13 79 13.4 79 14V21H86C86.6 21 87 21.4 87 22V46.454C93.1127 44.5203 99.5041 43.5 106 43.5C114.5 43.5 122.8 45.1 130.6 48.4C138.4 51.6 145.4 56.3 151.4 62.3C157.4 68.3 162.1 75.3 165.3 83.1C168.5 90.9 170.2 99.2 170.2 107.7C170.2 120.5 166.5 132.8 159.4 143.4C158.866 144.197 158.316 144.981 157.75 145.75L182.5 170.5C184.5 172.5 185.5 175.1 185.5 177.8C185.5 180.5 184.4 183.2 182.5 185.1C180.6 187.1 178 188.2 175.3 188.2C172.5 188.2 169.9 187.1 168 185.2L143.017 160.218C139.161 162.947 135.001 165.257 130.6 167.1C122.8 170.3 114.5 172 106.1 172C101.9 172 97.7 171.6 93.5 170.8C81 168.3 69.6 162.2 60.6 153.2C51.6 144.2 45.5 132.8 43 120.3C41.7175 113.887 41.4351 107.395 42.1258 101H22C21.4 101 21 100.6 21 100V93ZM15 91V15H77V21H22C21.4 21 21 21.4 21 22V91H15ZM42.9514 95.5672C42.7275 96.7071 42.535 97.8517 42.374 99H23V23H85V47C79.9 48.8 75 51.3 70.4 54.3C59.8 61.3 51.6 71.3 46.7 83.1C45.0454 87.1184 43.7632 91.3231 42.9514 95.5672ZM155.86 145.146C155.805 145.195 155.753 145.248 155.7 145.3C152 150.2 147.6 154.6 142.6 158.2C142.543 158.229 142.486 158.274 142.434 158.33C138.564 161.115 134.362 163.46 129.9 165.3C118.5 170 106 171.2 93.9 168.8C81.8 166.4 70.7 160.5 62 151.8C53.3 143 47.4 132 45 119.9C42.5 107.8 43.8 95.3 48.5 83.9C53.2 72.5 61.1 62.9 71.4 56C81.7 49.1 93.6 45.5 106 45.5C114.3 45.5 122.3 47.1 129.9 50.3C137.5 53.4 144.3 58 150.1 63.8C155.9 69.6 160.5 76.4 163.6 84C166.7 91.6 168.3 99.6 168.3 107.8C168.3 120.2 164.7 132.1 157.8 142.4C157.177 143.334 156.53 144.25 155.86 145.146ZM14 13H69V7H7V83H13V14C13 13.4 13.4 13 14 13Z" fill="#151A16"/>
<path d="M141 34.5H136.6C136 34.5 135.6 34.1 135.6 33.5C135.6 32.9 136 32.5 136.6 32.5H141V28C141 27.4 141.4 27 142 27C142.6 27 143 27.4 143 28V32.5H147.5C148.1 32.5 148.5 32.9 148.5 33.5C148.5 34.1 148 34.5 147.5 34.5H143V38.9C143 39.5 142.6 39.9 142 39.9C141.4 39.9 141 39.5 141 38.9V34.5Z" fill="#151A16"/>
<path d="M32.2 184.7C31.9 184.7 31.7 184.6 31.5 184.4L28.35 181.25L25.2 184.4C25 184.6 24.8 184.7 24.5 184.7C24.2 184.7 24 184.6 23.8 184.4C23.4 184 23.4 183.4 23.8 183L26.95 179.85L23.8 176.7C23.4 176.3 23.4 175.7 23.8 175.3C24.2 174.9 24.8 174.9 25.2 175.3L28.35 178.45L31.5 175.3C31.9 174.9 32.5 174.9 32.9 175.3C33.3 175.7 33.3 176.3 32.9 176.7L29.75 179.85L32.9 183C33.3 183.4 33.3 184 32.9 184.4C32.7 184.6 32.5 184.7 32.2 184.7Z" fill="#151A16"/>
<path d="M34.2001 121.599C33.9001 121.599 33.7001 121.499 33.5 121.299L32.25 120.049L31 121.299C30.8 121.499 30.5 121.599 30.3 121.599C30 121.599 29.8 121.499 29.6 121.299C29.2 120.899 29.2 120.299 29.6 119.899L30.85 118.649L29.6 117.399C29.2 116.999 29.2 116.399 29.6 115.999C30 115.599 30.6 115.599 31 115.999L32.25 117.249L33.5 115.999C33.9 115.599 34.5 115.599 34.9001 115.999C35.3 116.399 35.3 116.999 34.9001 117.399L33.6501 118.649L34.9001 119.899C35.3 120.299 35.3 120.899 34.9001 121.299C34.7001 121.499 34.4001 121.599 34.2001 121.599Z" fill="#151A16"/>
<path d="M171.3 16.3008H169.3C168.7 16.3008 168.3 15.9008 168.3 15.3008C168.3 14.7008 168.7 14.3008 169.3 14.3008H171.3V12.4004C171.3 11.8004 171.7 11.4004 172.3 11.4004C172.9 11.4004 173.3 11.8004 173.3 12.4004V14.3008H175.2C175.8 14.3008 176.2 14.7008 176.2 15.3008C176.2 15.9008 175.8 16.3008 175.2 16.3008H173.3V18.3004C173.3 18.8004 172.8 19.3004 172.3 19.3004C171.7 19.3004 171.3 18.9004 171.3 18.3004V16.3008Z" fill="#151A16"/>
</svg>
