<svg width="192" height="192" viewBox="0 0 192 192" fill="none" xmlns="http://www.w3.org/2000/svg">
<path d="M41 17C27.7452 17 17 27.7452 17 41V151C17 164.255 27.7452 175 41 175H151C164.255 175 175 164.255 175 151V41C175 27.7452 164.255 17 151 17H41Z" fill="#EFF4F1"/>
<path d="M41 148.217C41 149.754 42.2351 151 43.7586 151H61.3448C62.8684 151 64.1034 149.754 64.1034 148.217V142.652C64.1034 141.115 65.3385 139.87 66.8621 139.87H72.7241C74.2477 139.87 75.4828 138.624 75.4828 137.087V131.174C75.4828 129.637 76.7178 128.391 78.2414 128.391H84.1035C85.627 128.391 86.8621 127.145 86.8621 125.609V119.696C86.8621 118.159 88.0971 116.913 89.6207 116.913H94.4483C95.9718 116.913 97.2069 118.159 97.2069 119.696V124.913C97.2069 126.45 98.442 127.696 99.9655 127.696H105.138C106.661 127.696 107.897 128.941 107.897 130.478V135.696C107.897 137.232 109.132 138.478 110.655 138.478H116.172C117.696 138.478 118.931 137.232 118.931 135.696V130.478C118.931 128.941 120.166 127.696 121.69 127.696H126.862C128.386 127.696 129.621 126.45 129.621 124.913V119.696C129.621 118.159 130.856 116.913 132.379 116.913H137.552C139.075 116.913 140.31 115.667 140.31 114.13V108.913C140.31 107.376 141.545 106.13 143.069 106.13H148.241C149.765 106.13 151 104.885 151 103.348V97.7826C151 96.2458 149.765 95 148.241 95H142.724C141.201 95 139.966 96.2458 139.966 97.7826V103C139.966 104.537 138.73 105.783 137.207 105.783H132.034C130.511 105.783 129.276 107.028 129.276 108.565V113.783C129.276 115.319 128.041 116.565 126.517 116.565H121.345C119.821 116.565 118.586 117.811 118.586 119.348V124.565C118.586 126.102 117.351 127.348 115.828 127.348H111C109.476 127.348 108.241 126.102 108.241 124.565V119.348C108.241 117.811 107.006 116.565 105.483 116.565H100.31C98.7868 116.565 97.5517 115.319 97.5517 113.783V108.565C97.5517 107.028 96.3167 105.783 94.7931 105.783H89.2759C87.7523 105.783 86.5172 107.028 86.5172 108.565V113.783C86.5172 115.319 85.2822 116.565 83.7586 116.565H77.8966C76.373 116.565 75.1379 117.811 75.1379 119.348V125.261C75.1379 126.798 73.9029 128.043 72.3793 128.043H66.5172C64.9937 128.043 63.7586 129.289 63.7586 130.826V136.739C63.7586 138.276 62.5235 139.522 61 139.522H43.7586C42.2351 139.522 41 140.768 41 142.304V148.217Z" fill="#709482"/>
<path d="M52.3793 104.264C52.3793 105.775 53.6144 107 55.1379 107H61.3448C62.8684 107 64.1034 105.775 64.1034 104.264V98.4508C64.1034 96.9399 65.3385 95.715 66.8621 95.715H72.7241C74.2477 95.715 75.4828 94.4902 75.4828 92.9793V87.1658C75.4828 85.6549 76.7178 84.43 78.2414 84.43H84.1035C85.627 84.43 86.8621 83.2052 86.8621 81.6943V75.8808C86.8621 74.3699 88.0971 73.1451 89.6207 73.1451H94.7931C96.3167 73.1451 97.5517 71.9202 97.5517 70.4093V65.2798C97.5517 63.7689 98.7868 62.544 100.31 62.544H105.138C106.661 62.544 107.897 63.7689 107.897 65.2798V70.4093C107.897 71.9202 109.132 73.1451 110.655 73.1451H116.172C117.696 73.1451 118.931 71.9202 118.931 70.4093V65.2798C118.931 63.7689 120.166 62.544 121.69 62.544H126.862C128.386 62.544 129.621 61.3192 129.621 59.8083V54.6788C129.621 53.1678 130.856 51.943 132.379 51.943H148.241C149.765 51.943 151 50.7182 151 49.2073V43.7358C151 42.2248 149.765 41 148.241 41H132.034C130.511 41 129.276 42.2248 129.276 43.7358V48.8653C129.276 50.3762 128.041 51.601 126.517 51.601H121.345C119.821 51.601 118.586 52.8259 118.586 54.3368V59.4663C118.586 60.9772 117.351 62.2021 115.828 62.2021H111C109.476 62.2021 108.241 60.9772 108.241 59.4663V54.3368C108.241 52.8259 107.006 51.601 105.483 51.601H99.9655C98.442 51.601 97.2069 52.8259 97.2069 54.3368V59.4663C97.2069 60.9772 95.9718 62.2021 94.4483 62.2021H89.2759C87.7523 62.2021 86.5172 63.4269 86.5172 64.9378V70.0674C86.5172 71.5783 85.2822 72.8031 83.7586 72.8031H77.8966C76.373 72.8031 75.1379 74.0279 75.1379 75.5389V81.3523C75.1379 82.8633 73.9029 84.0881 72.3793 84.0881H66.5172C64.9937 84.0881 63.7586 85.3129 63.7586 86.8238V92.6373C63.7586 94.1482 62.5235 95.3731 61 95.3731H55.4828C53.9592 95.3731 52.7241 94.1482 52.7241 92.6373V86.8238C52.7241 85.3129 51.4891 84.0881 49.9655 84.0881H43.7586C42.2351 84.0881 41 85.3129 41 86.8238V92.9793C41 94.4902 42.2351 95.715 43.7586 95.715H49.6207C51.1442 95.715 52.3793 96.9399 52.3793 98.4508V104.264Z" fill="#BEE4D2"/>
</svg>
