<svg xmlns="http://www.w3.org/2000/svg" width="160" height="160" fill="none">
    <path fill="#709482"
        d="M146.087 10.013c0 .922.366 1.807 1.019 2.46l.422.421a3.477 3.477 0 0 0 2.459 1.019h6.535A3.478 3.478 0 0 1 160 17.391v6.957a3.478 3.478 0 0 1-3.478 3.478h-6.957a3.478 3.478 0 0 1-3.478-3.478v-6.535c0-.922-.366-1.807-1.019-2.46l-.422-.421a3.477 3.477 0 0 0-2.459-1.019h-6.535a3.478 3.478 0 0 1-3.478-3.478V3.478A3.478 3.478 0 0 1 135.652 0h6.957a3.478 3.478 0 0 1 3.478 3.478v6.535Z" />
    <path fill="#BEE4D2"
        d="M146.087 149.987c0-.922-.366-1.807-1.019-2.459l-.422-.422a3.475 3.475 0 0 0-2.459-1.019h-6.535a3.478 3.478 0 0 1-3.478-3.478v-6.957a3.478 3.478 0 0 1 3.478-3.478h6.957a3.478 3.478 0 0 1 3.478 3.478v6.535c0 .922.366 1.807 1.019 2.459l.422.422a3.475 3.475 0 0 0 2.459 1.019h6.535a3.478 3.478 0 0 1 3.478 3.478v6.957a3.478 3.478 0 0 1-3.478 3.478h-6.957a3.478 3.478 0 0 1-3.478-3.478v-6.535ZM13.913 17.813c0-.922-.366-1.807-1.019-2.46l-.422-.421a3.478 3.478 0 0 0-2.46-1.019H3.479A3.478 3.478 0 0 1 0 10.435V3.478A3.478 3.478 0 0 1 3.478 0h6.957a3.478 3.478 0 0 1 3.478 3.478v6.535c0 .922.367 1.807 1.019 2.46l.422.421a3.478 3.478 0 0 0 2.46 1.019h6.534a3.478 3.478 0 0 1 3.478 3.478v6.957a3.478 3.478 0 0 1-3.478 3.478H17.39a3.478 3.478 0 0 1-3.478-3.478v-6.535ZM13.913 142.187c0 .922.367 1.807 1.019 2.459l.422.422a3.476 3.476 0 0 0 2.46 1.019h6.534a3.478 3.478 0 0 1 3.478 3.478v6.957A3.478 3.478 0 0 1 24.348 160H17.39a3.478 3.478 0 0 1-3.478-3.478v-6.535c0-.922-.366-1.807-1.019-2.459l-.422-.422a3.476 3.476 0 0 0-2.46-1.019H3.479A3.478 3.478 0 0 1 0 142.609v-6.957a3.478 3.478 0 0 1 3.478-3.478h6.957a3.478 3.478 0 0 1 3.478 3.478v6.535ZM74.062 15.354a3.478 3.478 0 0 0-1.019 2.46v6.534a3.478 3.478 0 0 1-3.478 3.478H62.61a3.478 3.478 0 0 1-3.479-3.478V17.39a3.478 3.478 0 0 1 3.479-3.478h6.534c.923 0 1.807-.366 2.46-1.019l.422-.422a3.478 3.478 0 0 0 1.018-2.46V3.479A3.479 3.479 0 0 1 76.521 0h6.957a3.479 3.479 0 0 1 3.478 3.478v6.535c0 .922.367 1.807 1.02 2.46l.421.421a3.478 3.478 0 0 0 2.46 1.019h6.534a3.479 3.479 0 0 1 3.479 3.478v6.957a3.479 3.479 0 0 1-3.479 3.478h-6.956a3.478 3.478 0 0 1-3.478-3.478v-6.535c0-.922-.367-1.807-1.02-2.46l-.421-.421a3.478 3.478 0 0 0-2.46-1.019h-6.112c-.923 0-1.808.367-2.46 1.019l-.422.422ZM80 83.9c0-.922.367-1.807 1.019-2.46l.422-.421A3.478 3.478 0 0 1 83.9 80h6.534a3.478 3.478 0 0 0 3.478-3.478v-6.957a3.478 3.478 0 0 0-3.478-3.478h-6.957A3.478 3.478 0 0 0 80 69.565V76.1c0 .922-.367 1.807-1.019 2.46l-.422.421A3.478 3.478 0 0 1 76.1 80h-6.534a3.478 3.478 0 0 0-3.478 3.478v6.957a3.478 3.478 0 0 0 3.478 3.478h6.957A3.478 3.478 0 0 0 80 90.435V83.9Z" />
    <path fill="#709482"
        d="M74.062 147.528a3.477 3.477 0 0 0-1.019 2.459v6.535A3.478 3.478 0 0 1 69.566 160H62.61a3.478 3.478 0 0 1-3.479-3.478v-6.957a3.478 3.478 0 0 1 3.479-3.478h6.534c.923 0 1.807-.366 2.46-1.019l.422-.422a3.477 3.477 0 0 0 1.018-2.459v-6.535a3.48 3.48 0 0 1 3.478-3.478h6.957a3.478 3.478 0 0 1 3.478 3.478v6.535c0 .922.367 1.807 1.02 2.459l.421.422a3.476 3.476 0 0 0 2.46 1.019h6.534a3.478 3.478 0 0 1 3.479 3.478v6.957A3.478 3.478 0 0 1 97.391 160h-6.956a3.478 3.478 0 0 1-3.478-3.478v-6.535c0-.922-.367-1.807-1.02-2.459l-.421-.422a3.476 3.476 0 0 0-2.46-1.019h-6.112c-.923 0-1.808.366-2.46 1.019l-.422.422Z" />
    <path fill="#BEE4D2"
        d="M132.174 83.896v6.561a3.478 3.478 0 0 0 3.478 3.456h6.957a3.478 3.478 0 0 0 3.478-3.478v-6.538a3.477 3.477 0 0 1 1.019-2.456l.422-.422A3.477 3.477 0 0 1 149.987 80h6.535A3.478 3.478 0 0 0 160 76.522v-6.957a3.478 3.478 0 0 0-3.478-3.478h-6.957a3.478 3.478 0 0 0-3.478 3.478V76.1a3.48 3.48 0 0 1-1.019 2.46l-.422.421A3.477 3.477 0 0 1 142.187 80h-6.113a3.477 3.477 0 0 1-2.459-1.019l-.422-.422a3.476 3.476 0 0 1-1.019-2.46v-6.534a3.478 3.478 0 0 0-3.478-3.478h-6.957a3.478 3.478 0 0 0-3.478 3.478v6.957A3.478 3.478 0 0 0 121.739 80h6.535c.922 0 1.807.367 2.459 1.019l.422.422a3.48 3.48 0 0 1 1.019 2.455Z" />
    <path fill="#709482"
        d="M26.807 81.44a3.478 3.478 0 0 1 1.02 2.46v6.535a3.478 3.478 0 0 0 3.477 3.478h6.957a3.478 3.478 0 0 0 3.478-3.478v-6.957A3.478 3.478 0 0 0 38.261 80h-6.535a3.478 3.478 0 0 1-2.46-1.019l-.421-.422a3.478 3.478 0 0 1-1.019-2.46v-6.534a3.478 3.478 0 0 0-3.478-3.478H17.39a3.48 3.48 0 0 0-3.478 3.478V76.1c0 .922-.366 1.807-1.019 2.46l-.422.421A3.478 3.478 0 0 1 10.012 80H3.479A3.478 3.478 0 0 0 0 83.478v6.957a3.478 3.478 0 0 0 3.478 3.478h6.957a3.478 3.478 0 0 0 3.478-3.478V83.9c0-.922.367-1.807 1.019-2.46l.422-.421A3.478 3.478 0 0 1 17.814 80h6.114c.922 0 1.806.367 2.457 1.019l.422.422Z" />
</svg>
