<svg width="192" height="192" viewBox="0 0 192 192" fill="none" xmlns="http://www.w3.org/2000/svg">
<g id="redis">
<path id="Vector" d="M184.478 140.207C174.231 145.548 121.152 167.372 109.852 173.263C98.5515 179.155 92.274 179.098 83.3467 174.831C74.4202 170.563 17.9347 147.747 7.7595 142.883C2.6745 140.453 0 138.401 0 136.463V117.056C0 117.056 73.5375 101.047 85.4092 96.7882C97.2803 92.529 101.399 92.3752 111.502 96.0757C121.606 99.7777 182.015 110.677 192 114.334L191.995 133.466C191.997 135.385 189.693 137.489 184.478 140.207Z" fill="#912626"/>
<path id="Vector_2" d="M184.474 120.915C174.228 126.253 121.15 148.078 109.85 153.969C98.5507 159.862 92.2732 159.804 83.3467 155.536C74.4195 151.272 17.9362 128.452 7.7617 123.591C-2.4128 118.727 -2.6258 115.38 7.3687 111.466C17.3632 107.551 73.5367 85.5127 85.41 81.2535C97.281 76.9957 101.399 76.8405 111.502 80.5425C121.605 84.243 174.366 105.244 184.349 108.9C194.336 112.561 194.719 115.575 184.474 120.915Z" fill="#C6302B"/>
<path id="Vector_3" d="M184.478 108.805C174.231 114.147 121.152 135.97 109.852 141.864C98.5515 147.754 92.274 147.697 83.3467 143.429C74.4195 139.164 17.9347 116.345 7.7595 111.481C2.6745 109.051 0 107.002 0 105.064V85.6545C0 85.6545 73.5375 69.6465 85.4092 65.3872C97.2803 61.128 101.399 60.9735 111.502 64.6747C121.607 68.376 182.016 79.2727 192 82.9305L191.995 102.065C191.997 103.983 189.693 106.087 184.478 108.805Z" fill="#912626"/>
<path id="Vector_4" d="M184.474 89.5132C174.228 94.8532 121.15 116.677 109.85 122.569C98.5507 128.46 92.2732 128.402 83.3467 124.135C74.4195 119.87 17.9362 97.0507 7.7617 92.1892C-2.4128 87.327 -2.6258 83.979 7.3687 80.064C17.3632 76.1512 73.5375 54.111 85.41 49.8525C97.281 45.594 101.399 45.4395 111.502 49.1407C121.605 52.8412 174.366 73.8405 184.349 77.4982C194.336 81.1582 194.719 84.1732 184.474 89.5132Z" fill="#C6302B"/>
<path id="Vector_5" d="M184.478 76.2397C174.231 81.5797 121.152 103.405 109.852 109.298C98.5515 115.189 92.274 115.131 83.3467 110.863C74.4195 106.598 17.9347 83.7787 7.7595 78.9172C2.6745 76.485 0 74.4352 0 72.4987V53.0887C0 53.0887 73.5375 37.0815 85.4092 32.823C97.2803 28.563 101.399 28.41 111.502 32.1105C121.607 35.8117 182.016 46.7085 192 50.3662L191.995 69.5002C191.997 71.4165 189.693 73.521 184.478 76.2397Z" fill="#912626"/>
<path id="Vector_6" d="M184.474 56.9475C174.228 62.2875 121.15 84.1125 109.85 90.003C98.5507 95.8935 92.2732 95.8357 83.3467 91.5705C74.4202 87.303 17.9362 64.485 7.76245 59.6227C-2.4128 54.7612 -2.62505 51.4125 7.3687 47.4982C17.3632 43.5847 73.5374 21.5475 85.41 17.2875C97.281 13.0282 101.399 12.8752 111.502 16.5765C121.605 20.2777 174.366 41.277 184.349 44.9347C194.336 48.5917 194.719 51.6075 184.474 56.9475Z" fill="#C6302B"/>
<path id="Vector_7" d="M119.462 38.0678L102.955 39.7815L99.2595 48.6735L93.2911 38.751L74.2298 37.038L88.4528 31.9088L84.1853 24.0353L97.5015 29.2433L110.055 25.1333L106.662 33.2745L119.462 38.0678ZM98.274 81.2063L67.4663 68.4285L111.611 61.6523L98.274 81.2063ZM55.5616 43.0103C68.5928 43.0103 79.1566 47.1053 79.1566 52.1558C79.1566 57.2078 68.5928 61.302 55.5616 61.302C42.5303 61.302 31.9666 57.207 31.9666 52.1558C31.9666 47.1053 42.5303 43.0103 55.5616 43.0103Z" fill="white"/>
<path id="Vector_8" d="M138.971 40.4985L165.098 50.823L138.994 61.1377L138.971 40.4985Z" fill="#621B1C"/>
<path id="Vector_9" d="M110.066 51.9322L138.971 40.4985L138.994 61.1377L136.16 62.2462L110.066 51.9322Z" fill="#9A2928"/>
</g>
</svg>
