<svg width="192" height="192" viewBox="0 0 192 192" fill="none" xmlns="http://www.w3.org/2000/svg">
<g clip-path="url(#clip0_22543_164357)">
<path d="M134.261 69.6299L73.9872 53.4796C71.8534 52.9078 69.66 54.1742 69.0883 56.308L59.7708 91.0813C59.199 93.2152 60.4654 95.4085 62.5992 95.9803L122.873 112.131C125.007 112.702 127.2 111.436 127.772 109.302L137.089 74.5289C137.661 72.395 136.395 70.2017 134.261 69.6299Z" fill="white"/>
<path d="M68.9848 56.6945L68.8968 57.0229L95.1114 85.9949C95.6714 86.6301 96.4064 87.0859 97.2243 87.3051C98.0423 87.5243 98.9067 87.4971 99.7092 87.2269L136.898 75.2437L136.986 74.9153C137.138 74.3571 137.178 73.7743 137.104 73.2005C137.03 72.6268 136.843 72.0734 136.553 71.5723C136.264 71.0713 135.879 70.6325 135.419 70.2813C134.959 69.9302 134.434 69.6736 133.875 69.5264L74.3736 53.5832C73.8155 53.4309 73.2327 53.3907 72.6589 53.4649C72.0851 53.5391 71.5317 53.7262 71.0307 54.0155C70.5296 54.3048 70.0908 54.6905 69.7397 55.1503C69.3885 55.6101 69.132 56.1349 68.9848 56.6945Z" fill="white"/>
<path fill-rule="evenodd" clip-rule="evenodd" d="M122.234 112.995L122.614 113.097C125.281 113.811 128.023 112.228 128.738 109.561L137.861 75.512L137.864 75.5027L137.95 75.1787L137.951 75.1771L138.055 74.7879C138.77 72.1206 137.187 69.3789 134.52 68.6642L74.246 52.5139C71.5786 51.7992 68.837 53.3821 68.1223 56.0494L58.8048 90.8227C58.0901 93.49 59.673 96.2317 62.3403 96.9464L122.221 112.991C122.226 112.993 122.23 112.994 122.234 112.995ZM106.03 86.2408L100.028 88.1748L100.022 88.177C99.0344 88.508 97.9714 88.5408 96.9654 88.2712C95.9594 88.0017 95.0552 87.4417 94.3656 86.6614L90.1301 81.9804L65.6154 95.7534L120.374 110.426L106.03 86.2408ZM107.983 85.6117L123.139 111.167C124.737 111.591 126.378 110.642 126.806 109.044L135.456 76.759L107.983 85.6117ZM69.3873 59.0557L88.754 80.4595L62.8508 95.0126C61.2547 94.5808 60.3085 92.9383 60.7366 91.3403L69.3873 59.0557ZM72.7871 54.4568C73.2299 54.3996 73.6796 54.4306 74.1103 54.5481L133.616 70.4926L133.62 70.4937C134.052 70.6073 134.457 70.8053 134.812 71.0763C135.167 71.3473 135.464 71.6859 135.687 72.0725C135.911 72.4592 136.055 72.8862 136.112 73.329C136.161 73.7066 136.146 74.0893 136.067 74.4609L99.4024 86.2752L99.3901 86.2794C98.7742 86.4867 98.1108 86.5076 97.4831 86.3394C96.8553 86.1712 96.2913 85.8213 95.8616 85.3338L70.0074 56.7602C70.1253 56.3991 70.3033 56.06 70.5344 55.7575C70.8053 55.4026 71.1439 55.105 71.5306 54.8818C71.9172 54.6585 72.3443 54.5141 72.7871 54.4568Z" fill="#151A16"/>
<path d="M134.06 89.5709C133.079 103.726 145.559 103.199 148.893 101.828C160.435 121.409 171.208 108.249 166.962 102.01C176.038 109.543 183.619 98.6335 176.7 92.7139C183.944 94.655 188.023 91.5722 189.045 86.1112C190.337 79.2103 182.23 74.0077 170.509 71.3849C158.789 68.762 135.247 72.4557 134.06 89.5709Z" fill="#D9E2DC"/>
<path d="M64.4714 70.6567C58.2435 83.4062 47.6993 76.7097 45.4971 73.8548C25.7114 85.0421 22.9616 68.2585 29.758 64.9788C18.132 66.9644 17.0206 53.7256 25.973 52.0589C18.7285 50.1178 16.7375 45.4084 18.5828 40.168C20.9147 33.5459 30.5371 33.094 41.9988 36.6827C53.4605 40.2715 72.0016 55.2414 64.4714 70.6567Z" fill="#D9E2DC"/>
<path fill-rule="evenodd" clip-rule="evenodd" d="M184.058 77.9445C180.887 75.5724 176.083 73.657 170.291 72.3607C164.615 71.0906 155.994 71.3469 148.677 74.0156C141.37 76.6806 135.613 81.6369 135.058 89.64C134.823 93.0348 135.401 95.4495 136.366 97.1589C137.327 98.8615 138.717 99.9434 140.253 100.603C141.801 101.268 143.497 101.501 145.018 101.482C146.551 101.462 147.825 101.186 148.513 100.903C149.903 100.331 151.992 98.7792 152.917 96.3959C153.806 94.1032 153.707 90.8015 150.316 86.4718C149.975 86.037 150.051 85.4085 150.486 85.0679C150.921 84.7274 151.549 84.8038 151.89 85.2385C155.608 89.985 155.984 94.0197 154.781 97.1193C153.827 99.5789 151.936 101.295 150.31 102.237C152.944 106.475 155.468 108.9 157.667 110.12C159.993 111.408 161.956 111.356 163.438 110.689C164.953 110.008 166.086 108.628 166.603 107.055C167.12 105.481 166.988 103.825 166.135 102.573C165.855 102.161 165.921 101.606 166.289 101.27C166.658 100.935 167.217 100.923 167.601 101.241C169.726 103.004 171.671 103.616 173.256 103.568C174.839 103.521 176.161 102.816 177.07 101.756C178.885 99.6383 179.078 96.0645 176.05 93.4738C175.695 93.1701 175.597 92.6612 175.815 92.2479C176.033 91.8346 176.507 91.6271 176.959 91.748C180.418 92.6749 182.95 92.3579 184.698 91.327C186.438 90.301 187.589 88.4571 188.062 85.9272C188.612 82.9908 187.216 80.3069 184.058 77.9445ZM148.45 103.031C147.523 103.288 146.334 103.465 145.044 103.482C143.318 103.504 141.33 103.242 139.464 102.441C137.586 101.634 135.831 100.279 134.624 98.1423C133.422 96.0123 132.807 93.1847 133.063 89.5017C133.694 80.3897 140.301 74.9415 147.992 72.1367C155.673 69.3354 164.683 69.0563 170.728 70.409C176.656 71.7356 181.766 73.7329 185.256 76.343C188.758 78.9628 190.77 82.3307 190.028 86.2951C189.48 89.2263 188.08 91.6543 185.714 93.0497C183.975 94.0754 181.815 94.4826 179.283 94.2187C181.078 97.2312 180.575 100.74 178.588 103.058C177.332 104.523 175.49 105.503 173.315 105.568C171.911 105.609 170.409 105.269 168.872 104.483C168.978 105.559 168.839 106.656 168.503 107.679C167.833 109.717 166.348 111.573 164.258 112.513C162.134 113.469 159.506 113.425 156.698 111.869C154.051 110.402 151.248 107.599 148.45 103.031Z" fill="#151A16"/>
<path fill-rule="evenodd" clip-rule="evenodd" d="M26.9855 35.589C30.918 35.1203 36.0355 35.8632 41.7 37.6368C47.2505 39.3747 54.5882 43.9072 59.5906 49.8768C64.5862 55.8384 67.0941 63.0092 63.5729 70.2175C62.0793 73.2751 60.3714 75.0773 58.6807 76.0751C56.9968 77.0688 55.2521 77.3108 53.5923 77.1141C51.9193 76.9158 50.3335 76.2702 49.0263 75.4927C47.7091 74.7092 46.7437 73.8333 46.289 73.2438C45.371 72.0537 44.3379 69.6651 44.7288 67.1389C45.1049 64.7087 46.8417 61.899 51.9436 59.845C52.4559 59.6388 52.704 59.0562 52.4978 58.5439C52.2915 58.0316 51.709 57.7835 51.1967 57.9897C45.6038 60.2414 43.2607 63.5475 42.7523 66.8331C42.3489 69.4403 43.1289 71.8721 44.0656 73.5009C39.6655 75.8534 36.2674 76.6928 33.7526 76.6487C31.0949 76.602 29.4202 75.5748 28.4706 74.2571C27.4994 72.9091 27.2078 71.1474 27.5465 69.5269C27.8855 67.9053 28.8285 66.5375 30.1927 65.8792C30.6415 65.6626 30.8623 65.1487 30.7106 64.6741C30.5589 64.1994 30.0809 63.9089 29.5897 63.9928C26.8677 64.4577 24.8772 64.0143 23.5286 63.1811C22.181 62.3486 21.3885 61.0768 21.1316 59.7042C20.6184 56.9627 22.238 53.7712 26.1561 53.0417C26.6153 52.9563 26.9541 52.5642 26.9723 52.0975C26.9904 51.6307 26.683 51.2136 26.2318 51.0927C22.7726 50.1658 20.7384 48.6253 19.7399 46.8584C18.7462 45.1001 18.6712 42.9276 19.5261 40.4999C20.5183 37.6821 23.069 36.0557 26.9855 35.589ZM45.28 75.1183C45.9536 75.8048 46.8951 76.5521 48.0039 77.2116C49.4877 78.0942 51.3401 78.8612 53.3569 79.1002C55.387 79.3408 57.5837 79.0448 59.6972 77.7975C61.8039 76.5543 63.7496 74.4125 65.3699 71.0954C69.379 62.8884 66.3813 54.8666 61.1235 48.5922C55.8725 42.3259 48.2088 37.579 42.2976 35.7282C36.5004 33.913 31.0758 33.0874 26.7488 33.603C22.4056 34.1206 18.9792 36.0312 17.6396 39.8356C16.6491 42.6483 16.647 45.4507 17.9987 47.8424C18.9921 49.6003 20.6584 51.0326 22.9835 52.0702C19.9224 53.7814 18.604 57.0714 19.1657 60.0722C19.5208 61.9695 20.6265 63.7392 22.4774 64.8826C23.6728 65.621 25.143 66.0772 26.8678 66.1652C26.2378 67.0433 25.8093 68.063 25.5889 69.1176C25.15 71.2168 25.5081 73.5667 26.848 75.4263C28.2096 77.3159 30.5074 78.592 33.7175 78.6484C36.7439 78.7015 40.5725 77.676 45.28 75.1183Z" fill="#151A16"/>
<path fill-rule="evenodd" clip-rule="evenodd" d="M69.7545 109.033C70.2886 109.173 70.6076 109.72 70.4671 110.254C65.4932 129.155 58.8845 142.251 47.1949 155.657C46.8319 156.073 46.2002 156.116 45.784 155.753C45.3677 155.391 45.3245 154.759 45.6875 154.343C57.1487 141.198 63.6266 128.389 68.5329 109.745C68.6735 109.211 69.2204 108.892 69.7545 109.033Z" fill="#151A16"/>
<path fill-rule="evenodd" clip-rule="evenodd" d="M88.7545 114.033C89.2886 114.173 89.6077 114.72 89.4671 115.254C81.9183 143.94 67.3091 166.634 47.6223 182.283C47.1899 182.626 46.5609 182.554 46.2172 182.122C45.8736 181.69 45.9455 181.061 46.3778 180.717C65.691 165.365 80.0818 143.06 87.533 114.745C87.6735 114.211 88.2204 113.892 88.7545 114.033Z" fill="#151A16"/>
<path fill-rule="evenodd" clip-rule="evenodd" d="M107.755 119.033C108.289 119.173 108.608 119.72 108.467 120.254C104.183 136.533 97.9411 150.748 88.8006 162.959C88.4697 163.401 87.8429 163.491 87.4008 163.16C86.9587 162.829 86.8685 162.202 87.1995 161.76C96.1507 149.802 102.298 135.838 106.533 119.745C106.674 119.211 107.22 118.892 107.755 119.033Z" fill="#151A16"/>
</g>
<defs>
<clipPath id="clip0_22543_164357">
<rect width="192" height="192" fill="white"/>
</clipPath>
</defs>
</svg>
