<svg xmlns="http://www.w3.org/2000/svg" width="292" height="76" fill="none">
    <path fill="#00E16D"
        d="M286.485 10.934c3.018-.487 5.068-3.313 4.578-6.312-.49-3-3.334-5.037-6.352-4.55-3.019.487-5.068 3.313-4.579 6.312.49 3 3.334 5.037 6.353 4.55ZM81.391.012h-8.815V74.62h8.815V.012ZM290.019 21.315h-8.814v53.304h8.814V21.315Z" />
    <path fill="#00E16D" fill-rule="evenodd"
        d="M90.737 47.944c0-15.23 12.447-27.598 27.773-27.598s27.773 12.369 27.773 27.598c0 15.23-12.447 27.599-27.773 27.599S90.737 63.174 90.737 47.944Zm7.62.044c0 11.048 9.035 20.028 20.153 20.028 11.118 0 20.154-8.98 20.154-20.028 0-11.048-9.036-20.027-20.154-20.027s-20.154 8.98-20.154 20.027ZM48.48 29.546c0-4.533 3.721-8.23 8.283-8.23v53.303H47.95V66.96c-5.05 5.327-12.226 8.628-20.154 8.628C12.07 75.588-.598 62.603.022 46.845c.576-14.261 12.27-25.882 26.665-26.454a27.734 27.734 0 0 1 21.793 9.155Zm-20.685 38.47c11.073 0 20.11-8.979 20.154-19.983v-.088c-.045-11.048-9.036-19.983-20.154-19.983S7.64 36.942 7.64 47.989c0 11.049 9.036 20.028 20.154 20.028ZM266.233 21.315c-4.562 0-8.283 3.698-8.283 8.231a27.734 27.734 0 0 0-21.793-9.155c-14.396.572-26.09 12.193-26.665 26.454-.621 15.758 12.048 28.743 27.772 28.743 7.929 0 15.105-3.301 20.154-8.627v7.658h8.815V21.315Zm-8.77 26.718c-.045 11.005-9.081 19.984-20.154 19.984-11.118 0-20.154-8.98-20.154-20.028 0-11.048 9.036-20.027 20.154-20.027s20.109 8.935 20.154 19.983v.088Z"
        clip-rule="evenodd" />
    <path fill="#00E16D"
        d="m202.67 21.316-20.198 20.468c-.355.352-.399.924-.089 1.408l24.141 31.472h-10.099L176.182 48.21v-.044l-.044.044h-9.036a1 1 0 0 0-1.019 1.012V74.62h-8.815V.012h8.815v39.35a1 1 0 0 0 1.019 1.013h6.644l18.825-19.06h10.099Z" />
</svg>
